<svg width="541" height="397" viewBox="0 0 541 397" fill="none" xmlns="http://www.w3.org/2000/svg">
<path d="M0 28.7329C0 12.8642 12.8642 0 28.7329 0H537.716C539.53 0 541 1.47019 541 3.28376V368.267C541 384.136 528.136 397 512.267 397H3.28375C1.47018 397 0 395.53 0 393.716V28.7329Z" fill="#FFEDEE"/>
<path d="M402.718 82.4071C402.718 82.4071 359.69 37.9472 291.563 40.0739C223.437 42.2007 165.34 85.2596 117.292 118.965C69.2435 152.67 56.342 205.042 84.3121 245.914C112.282 286.786 156.742 269.58 213.388 296.109C270.034 322.638 280.758 337.707 343.905 331.256C407.052 324.805 455.07 258.826 447.894 188.542C440.717 118.259 402.718 82.4071 402.718 82.4071Z" fill="#ED1C24"/>
<path opacity="0.7" d="M402.718 82.4071C402.718 82.4071 359.69 37.9472 291.563 40.0739C223.437 42.2007 165.34 85.2596 117.292 118.965C69.2435 152.67 56.342 205.042 84.3121 245.914C112.282 286.786 156.742 269.58 213.388 296.109C270.034 322.638 280.758 337.707 343.905 331.256C407.052 324.805 455.07 258.826 447.894 188.542C440.717 118.259 402.718 82.4071 402.718 82.4071Z" fill="white"/>
<path d="M419.208 352.977C419.208 355.94 352.684 358.329 270.709 358.329C188.734 358.329 122.2 355.94 122.2 352.977C122.2 350.013 188.724 347.635 270.709 347.635C352.694 347.635 419.208 350.024 419.208 352.977Z" fill="#ED1C24"/>
<path opacity="0.6" d="M419.208 352.977C419.208 355.94 352.684 358.329 270.709 358.329C188.734 358.329 122.2 355.94 122.2 352.977C122.2 350.013 188.724 347.635 270.709 347.635C352.694 347.635 419.208 350.024 419.208 352.977Z" fill="white"/>
<path d="M130.244 186.144C130.304 186.144 129.548 182.384 129.467 182.112C128.601 179.431 125.345 174.754 122.18 174.754C121.655 174.77 121.139 174.897 120.666 175.125C120.193 175.354 119.774 175.679 119.434 176.08C119.095 176.481 118.844 176.949 118.697 177.453C118.55 177.957 118.511 178.487 118.582 179.007C118.814 181.225 120.809 183.12 122.613 184.208C124.73 185.529 130.244 186.144 130.244 186.144Z" fill="#ED1C24"/>
<path d="M136.362 160.824C133.388 161.893 131.917 167.396 132.007 170.218C132.007 170.46 132.572 174.25 132.632 174.25H132.693C132.451 175.117 132.199 176.044 131.947 177.072C131.503 178.967 131.02 181.104 130.647 183.483C130.214 186.031 129.932 188.602 129.8 191.183C129.644 194.076 129.742 196.976 130.092 199.852C130.096 199.885 130.096 199.919 130.092 199.952C129.709 199.116 128.54 196.808 128.429 196.636C126.877 194.278 122.503 190.589 119.448 191.466C118.948 191.62 118.485 191.878 118.091 192.222C117.696 192.566 117.378 192.99 117.158 193.465C116.938 193.94 116.819 194.456 116.811 194.98C116.803 195.504 116.905 196.023 117.11 196.505C117.916 198.592 120.335 199.882 122.361 200.466C124.649 201.111 129.75 200.345 130.153 200.285C130.59 203.199 131.216 206.081 132.028 208.913C132.501 210.566 133.035 212.219 133.56 213.862C133.207 213.146 132.874 212.511 132.824 212.431C131.272 210.072 126.897 206.383 123.843 207.26C123.343 207.414 122.88 207.672 122.485 208.016C122.091 208.361 121.773 208.784 121.553 209.259C121.332 209.735 121.214 210.251 121.206 210.774C121.197 211.298 121.299 211.818 121.505 212.3C122.311 214.376 124.73 215.676 126.756 216.251C128.782 216.825 133.177 216.251 134.326 216.109C134.537 216.734 134.749 217.369 134.971 217.994C135.979 221.018 137.067 224.042 137.994 227.005C138.327 228.013 138.609 229.102 138.902 230.15C138.589 229.515 138.307 228.981 138.257 228.91C136.714 226.542 132.33 222.863 129.286 223.74C128.785 223.893 128.321 224.15 127.925 224.494C127.53 224.838 127.211 225.261 126.989 225.736C126.768 226.212 126.649 226.728 126.64 227.252C126.631 227.776 126.732 228.297 126.937 228.779C127.744 230.856 130.173 232.156 132.199 232.73C134.225 233.305 138.186 232.801 139.557 232.609C139.829 233.688 140.101 234.776 140.313 235.835C140.434 236.56 140.605 237.246 140.696 237.992L140.998 240.149C141.139 241.53 141.3 242.951 141.401 244.301C141.482 245.249 141.542 246.146 141.603 247.043C141.29 246.035 140.595 243.949 140.595 243.787C139.479 241.57 137.813 239.675 135.757 238.284C135.642 238.032 135.508 237.789 135.354 237.558C135.066 237.119 134.69 236.745 134.249 236.46C133.807 236.175 133.311 235.987 132.793 235.906C132.274 235.825 131.744 235.854 131.237 235.991C130.73 236.128 130.258 236.37 129.85 236.702C127.462 238.768 128.056 244.432 129.155 247.033C129.215 247.184 130.163 248.777 130.687 249.764L129.407 248.172C128.52 247.093 127.613 246.045 126.645 244.916C126.148 244.392 125.654 243.858 125.163 243.314C124.68 242.769 124.105 242.255 123.571 241.711C122.301 240.491 120.96 239.312 119.539 238.163C120.487 237.387 123.783 234.605 124.73 232.71C125.678 230.815 126.353 228.164 125.365 226.159C125.148 225.681 124.833 225.255 124.44 224.908C124.048 224.56 123.587 224.299 123.087 224.141C122.587 223.983 122.059 223.933 121.538 223.992C121.018 224.051 120.515 224.219 120.063 224.485C117.382 226.159 117.11 231.853 117.806 234.565C117.806 234.736 118.572 236.651 118.985 237.689C118.148 236.994 117.322 236.308 116.455 235.673C113.955 233.748 111.415 231.874 108.795 229.989L106.446 228.245C106.779 227.973 110.77 224.747 111.839 222.621C112.786 220.736 113.461 218.075 112.474 216.079C112.258 215.6 111.943 215.171 111.55 214.822C111.157 214.472 110.695 214.209 110.194 214.051C109.693 213.892 109.163 213.84 108.641 213.9C108.119 213.959 107.614 214.128 107.162 214.396C104.491 216.079 104.219 221.764 104.914 224.475C104.964 224.677 106.003 227.419 106.305 228.104C104.581 226.824 102.878 225.534 101.265 224.193C99.0596 222.387 96.9723 220.441 95.0162 218.367C95.1674 218.246 99.3503 214.89 100.439 212.723C101.386 210.838 102.062 208.177 101.074 206.171C100.856 205.696 100.54 205.272 100.148 204.927C99.756 204.581 99.2958 204.322 98.7972 204.165C98.2986 204.009 97.7726 203.958 97.2533 204.017C96.734 204.076 96.2329 204.243 95.7822 204.508C93.1011 206.191 92.8391 211.886 93.5245 214.588C93.5748 214.769 94.361 216.865 94.7642 217.843L94.613 217.944C92.6983 215.803 90.978 213.496 89.4726 211.05C88.636 209.719 87.9002 208.389 87.2148 207.088C88.0615 206.544 91.8815 204.065 93.081 202.17C94.2804 200.275 95.1976 197.826 94.4316 195.729C94.2676 195.237 94.0029 194.784 93.6543 194.399C93.3057 194.014 92.8809 193.707 92.4068 193.495C91.9328 193.284 91.4199 193.173 90.9008 193.171C90.3818 193.169 89.8679 193.274 89.3919 193.481C86.5496 194.852 85.6525 200.537 86.0456 203.278C86.0456 203.43 86.4488 204.952 86.7511 206.05C86.4488 205.466 86.1262 204.851 85.8541 204.276C84.8461 202.129 83.9894 200.093 83.2839 198.289C82.8908 197.281 82.5481 196.273 82.2759 195.427C82.8202 194.469 84.9873 190.548 85.1888 188.371C85.3904 186.194 85.0679 183.543 83.425 182.031C83.05 181.663 82.6018 181.377 82.1094 181.194C81.617 181.01 81.0914 180.931 80.5667 180.964C80.0421 180.996 79.5301 181.138 79.064 181.381C78.5979 181.624 78.1881 181.962 77.8612 182.374C75.9763 184.904 77.7805 190.316 79.4134 192.615C79.5545 192.816 82.1146 195.638 82.1449 195.638V195.578C82.4271 196.435 82.7295 197.342 83.0923 198.34C83.7677 200.164 84.5438 202.22 85.5416 204.387C86.5887 206.753 87.7733 209.055 89.0895 211.281C90.5573 213.778 92.2438 216.139 94.1292 218.337L94.1998 218.408C93.4136 217.924 91.176 216.644 90.9845 216.563C88.3941 215.444 82.7194 214.819 80.6431 217.198C80.3094 217.604 80.0648 218.075 79.9253 218.581C79.7858 219.087 79.7545 219.617 79.8334 220.136C79.9123 220.656 80.0997 221.152 80.3833 221.594C80.667 222.036 81.0405 222.413 81.4797 222.701C83.2939 223.992 86.0355 223.709 88.0413 223.105C90.3091 222.389 94.0889 218.932 94.4417 218.66C96.4132 220.85 98.5278 222.907 100.771 224.818C102.072 225.937 103.412 227.025 104.803 228.104C104.108 227.711 103.483 227.358 103.392 227.318C100.802 226.199 95.1371 225.574 93.0608 227.953C92.7251 228.357 92.4786 228.827 92.3374 229.334C92.1962 229.84 92.1636 230.37 92.2416 230.889C92.3196 231.409 92.5066 231.906 92.7902 232.349C93.0738 232.791 93.4477 233.168 93.8873 233.456C95.7117 234.746 98.4432 234.464 100.459 233.859C102.475 233.254 105.811 230.331 106.688 229.555L108.26 230.785C110.8 232.73 113.3 234.655 115.77 236.621C116.626 237.316 117.443 238.022 118.269 238.738C117.654 238.385 117.13 238.093 117.04 238.052C114.449 236.943 108.785 236.308 106.708 238.697C106.372 239.101 106.126 239.572 105.985 240.078C105.844 240.584 105.811 241.114 105.889 241.634C105.967 242.154 106.154 242.651 106.438 243.093C106.721 243.535 107.095 243.913 107.535 244.201C109.359 245.491 112.091 245.209 114.106 244.594C116.122 243.979 119.146 241.348 120.154 240.441C120.97 241.187 121.797 241.943 122.563 242.709C123.067 243.243 123.571 243.717 124.075 244.291L125.516 245.934C126.403 247.003 127.31 248.101 128.147 249.17C128.732 249.916 129.276 250.631 129.83 251.347C128.984 250.651 127.3 249.331 127.139 249.22C124.75 247.718 119.247 246.247 116.828 248.283C116.437 248.633 116.125 249.062 115.912 249.542C115.698 250.021 115.587 250.54 115.587 251.065C115.587 251.589 115.698 252.108 115.912 252.588C116.125 253.067 116.437 253.496 116.828 253.847C118.43 255.399 121.172 255.56 123.258 255.237C125.546 254.885 129.699 252.214 130.213 251.841C131.12 253.03 131.987 254.199 132.794 255.308C135.586 259.168 137.763 262.495 139.254 264.833L139.406 265.075L141.341 264.138L141.038 263.674C139.476 261.346 137.208 258.039 134.295 254.199C133.388 252.98 132.38 251.71 131.342 250.399C132.42 249.222 133.43 247.984 134.366 246.69C136.583 247.557 141.21 247.587 141.804 247.587C141.905 249.089 141.986 250.54 142.036 251.911C142.238 256.679 142.218 260.65 142.177 263.422C142.177 263.533 142.177 263.634 142.177 263.744L144.304 262.736C144.304 259.975 144.193 256.245 143.921 251.831C143.82 250.319 143.689 248.696 143.548 247.033C144.133 246.892 148.941 245.652 150.755 244.201C152.408 242.89 154.142 240.753 154.081 238.526C154.085 238.001 153.979 237.481 153.768 237C153.558 236.519 153.249 236.088 152.861 235.734C152.473 235.38 152.015 235.112 151.517 234.947C151.019 234.782 150.491 234.724 149.969 234.776C146.824 235.18 144.203 240.229 143.689 243.011C143.689 243.173 143.518 245.027 143.457 246.126C143.397 245.45 143.337 244.795 143.266 244.11C143.125 242.729 142.943 241.358 142.762 239.877C142.641 239.171 142.52 238.445 142.409 237.72C142.298 236.994 142.107 236.248 141.956 235.512C141.573 233.789 141.109 232.065 140.595 230.342C141.804 230.221 146.098 229.717 147.933 228.658C149.767 227.6 151.793 225.766 152.075 223.548C152.158 223.03 152.131 222.501 151.996 221.994C151.86 221.487 151.62 221.014 151.29 220.607C150.96 220.199 150.548 219.865 150.081 219.627C149.614 219.389 149.102 219.251 148.578 219.224C145.413 219.143 142.046 223.74 141.119 226.411C141.059 226.572 140.605 228.557 140.383 229.656C140.061 228.648 139.758 227.59 139.375 226.552C138.367 223.528 137.228 220.575 136.12 217.581L135.112 214.829C135.545 214.829 140.655 214.305 142.712 213.116C144.536 212.108 146.572 210.223 146.854 208.006C146.939 207.488 146.913 206.957 146.778 206.45C146.643 205.943 146.403 205.469 146.073 205.061C145.743 204.653 145.33 204.319 144.862 204.081C144.394 203.844 143.881 203.707 143.357 203.682C140.192 203.601 136.825 208.207 135.898 210.868C135.827 211.07 135.182 213.892 135.051 214.668C134.326 212.652 133.62 210.636 133.035 208.621C132.194 205.896 131.52 203.122 131.02 200.315C131.221 200.315 136.563 199.811 138.67 198.602C140.494 197.543 142.53 195.699 142.812 193.481C142.895 192.963 142.868 192.432 142.732 191.925C142.596 191.417 142.355 190.944 142.024 190.536C141.693 190.128 141.28 189.795 140.811 189.557C140.343 189.32 139.829 189.183 139.305 189.157C136.15 189.077 132.783 193.683 131.856 196.344C131.796 196.515 131.302 198.702 131.09 199.741H130.909C130.492 196.902 130.33 194.031 130.425 191.163C130.425 189.591 130.576 188.079 130.727 186.617C131.735 186.617 136.321 186.617 138.337 185.751C140.353 184.884 142.49 183.291 143.014 181.124C143.154 180.616 143.185 180.085 143.105 179.565C143.025 179.044 142.836 178.546 142.551 178.104C142.266 177.661 141.89 177.284 141.449 176.997C141.007 176.71 140.51 176.519 139.99 176.437C136.855 176.014 133.005 180.217 131.796 182.757C131.725 182.898 131.211 184.38 130.848 185.468C130.919 184.803 130.989 184.128 131.08 183.452C131.403 181.084 131.836 178.937 132.239 177.032C132.481 175.953 132.713 175.016 132.945 174.079C133.953 173.575 137.904 171.508 139.264 169.825C140.625 168.142 141.815 165.733 141.28 163.566C141.169 163.044 140.948 162.552 140.631 162.123C140.314 161.694 139.909 161.338 139.443 161.078C138.978 160.819 138.462 160.662 137.93 160.618C137.398 160.574 136.864 160.644 136.362 160.824Z" fill="#ED1C24"/>
<path d="M79.232 209.548C81.7014 209.447 86.6403 206.907 86.6504 206.907C86.6605 206.907 83.9894 204.166 83.7979 204.004C81.5906 202.25 76.2888 200.144 73.6581 201.898C73.2294 202.2 72.8691 202.589 72.6005 203.04C72.332 203.49 72.1613 203.992 72.0995 204.513C72.0377 205.034 72.0862 205.562 72.2419 206.063C72.3975 206.564 72.6568 207.027 73.003 207.421C74.4242 209.145 77.1557 209.629 79.232 209.548Z" fill="#ED1C24"/>
<g opacity="0.5">
<path d="M130.244 186.144C130.304 186.144 129.548 182.384 129.467 182.112C128.601 179.431 125.345 174.754 122.18 174.754C121.655 174.77 121.139 174.897 120.666 175.125C120.193 175.354 119.774 175.679 119.434 176.08C119.095 176.481 118.844 176.949 118.697 177.453C118.55 177.957 118.511 178.487 118.582 179.007C118.814 181.225 120.809 183.12 122.613 184.208C124.73 185.529 130.244 186.144 130.244 186.144Z" fill="white"/>
<path d="M136.362 160.824C133.388 161.893 131.917 167.396 132.007 170.218C132.007 170.46 132.572 174.25 132.632 174.25H132.693C132.451 175.117 132.199 176.044 131.947 177.072C131.503 178.967 131.02 181.104 130.647 183.483C130.214 186.031 129.932 188.602 129.8 191.183C129.644 194.076 129.742 196.976 130.092 199.852C130.096 199.885 130.096 199.919 130.092 199.952C129.709 199.116 128.54 196.808 128.429 196.636C126.877 194.278 122.503 190.589 119.448 191.466C118.948 191.62 118.485 191.878 118.091 192.222C117.696 192.566 117.378 192.99 117.158 193.465C116.938 193.94 116.819 194.456 116.811 194.98C116.803 195.504 116.905 196.023 117.11 196.505C117.916 198.592 120.335 199.882 122.361 200.466C124.649 201.111 129.75 200.345 130.153 200.285C130.59 203.199 131.216 206.081 132.028 208.913C132.501 210.566 133.035 212.219 133.56 213.862C133.207 213.146 132.874 212.511 132.824 212.431C131.272 210.072 126.897 206.383 123.843 207.26C123.343 207.414 122.88 207.672 122.485 208.016C122.091 208.361 121.773 208.784 121.553 209.259C121.332 209.735 121.214 210.251 121.206 210.774C121.197 211.298 121.299 211.818 121.505 212.3C122.311 214.376 124.73 215.676 126.756 216.251C128.782 216.825 133.177 216.251 134.326 216.109C134.537 216.734 134.749 217.369 134.971 217.994C135.979 221.018 137.067 224.042 137.994 227.005C138.327 228.013 138.609 229.102 138.902 230.15C138.589 229.515 138.307 228.981 138.257 228.91C136.714 226.542 132.33 222.863 129.286 223.74C128.785 223.893 128.321 224.15 127.925 224.494C127.53 224.838 127.211 225.261 126.989 225.736C126.768 226.212 126.649 226.728 126.64 227.252C126.631 227.776 126.732 228.297 126.937 228.779C127.744 230.856 130.173 232.156 132.199 232.73C134.225 233.305 138.186 232.801 139.557 232.609C139.829 233.688 140.101 234.776 140.313 235.835C140.434 236.56 140.605 237.246 140.696 237.992L140.998 240.149C141.139 241.53 141.3 242.951 141.401 244.301C141.482 245.249 141.542 246.146 141.603 247.043C141.29 246.035 140.595 243.949 140.595 243.787C139.479 241.57 137.813 239.675 135.757 238.284C135.642 238.032 135.508 237.789 135.354 237.558C135.066 237.119 134.69 236.745 134.249 236.46C133.807 236.175 133.311 235.987 132.793 235.906C132.274 235.825 131.744 235.854 131.237 235.991C130.73 236.128 130.258 236.37 129.85 236.702C127.462 238.768 128.056 244.432 129.155 247.033C129.215 247.184 130.163 248.777 130.687 249.764L129.407 248.172C128.52 247.093 127.613 246.045 126.645 244.916C126.148 244.392 125.654 243.858 125.163 243.314C124.68 242.769 124.105 242.255 123.571 241.711C122.301 240.491 120.96 239.312 119.539 238.163C120.487 237.387 123.783 234.605 124.73 232.71C125.678 230.815 126.353 228.164 125.365 226.159C125.148 225.681 124.833 225.255 124.44 224.908C124.048 224.56 123.587 224.299 123.087 224.141C122.587 223.983 122.059 223.933 121.538 223.992C121.018 224.051 120.515 224.219 120.063 224.485C117.382 226.159 117.11 231.853 117.806 234.565C117.806 234.736 118.572 236.651 118.985 237.689C118.148 236.994 117.322 236.308 116.455 235.673C113.955 233.748 111.415 231.874 108.795 229.989L106.446 228.245C106.779 227.973 110.77 224.747 111.839 222.621C112.786 220.736 113.461 218.075 112.474 216.079C112.258 215.6 111.943 215.171 111.55 214.822C111.157 214.472 110.695 214.209 110.194 214.051C109.693 213.892 109.163 213.84 108.641 213.9C108.119 213.959 107.614 214.128 107.162 214.396C104.491 216.079 104.219 221.764 104.914 224.475C104.964 224.677 106.003 227.419 106.305 228.104C104.581 226.824 102.878 225.534 101.265 224.193C99.0596 222.387 96.9723 220.441 95.0162 218.367C95.1674 218.246 99.3503 214.89 100.439 212.723C101.386 210.838 102.062 208.177 101.074 206.171C100.856 205.696 100.54 205.272 100.148 204.927C99.756 204.581 99.2958 204.322 98.7972 204.165C98.2986 204.009 97.7726 203.958 97.2533 204.017C96.734 204.076 96.2329 204.243 95.7822 204.508C93.1011 206.191 92.8391 211.886 93.5245 214.588C93.5748 214.769 94.361 216.865 94.7642 217.843L94.613 217.944C92.6983 215.803 90.978 213.496 89.4726 211.05C88.636 209.719 87.9002 208.389 87.2148 207.088C88.0615 206.544 91.8815 204.065 93.081 202.17C94.2804 200.275 95.1976 197.826 94.4316 195.729C94.2676 195.237 94.0029 194.784 93.6543 194.399C93.3057 194.014 92.8809 193.707 92.4068 193.495C91.9328 193.284 91.4199 193.173 90.9008 193.171C90.3818 193.169 89.8679 193.274 89.3919 193.481C86.5496 194.852 85.6525 200.537 86.0456 203.278C86.0456 203.43 86.4488 204.952 86.7511 206.05C86.4488 205.466 86.1262 204.851 85.8541 204.276C84.8461 202.129 83.9894 200.093 83.2839 198.289C82.8908 197.281 82.5481 196.273 82.2759 195.427C82.8202 194.469 84.9873 190.548 85.1888 188.371C85.3904 186.194 85.0679 183.543 83.425 182.031C83.05 181.663 82.6018 181.377 82.1094 181.194C81.617 181.01 81.0914 180.931 80.5667 180.964C80.0421 180.996 79.5301 181.138 79.064 181.381C78.5979 181.624 78.1881 181.962 77.8612 182.374C75.9763 184.904 77.7805 190.316 79.4134 192.615C79.5545 192.816 82.1146 195.638 82.1449 195.638V195.578C82.4271 196.435 82.7295 197.342 83.0923 198.34C83.7677 200.164 84.5438 202.22 85.5416 204.387C86.5887 206.753 87.7733 209.055 89.0895 211.281C90.5573 213.778 92.2438 216.139 94.1292 218.337L94.1998 218.408C93.4136 217.924 91.176 216.644 90.9845 216.563C88.3941 215.444 82.7194 214.819 80.6431 217.198C80.3094 217.604 80.0648 218.075 79.9253 218.581C79.7858 219.087 79.7545 219.617 79.8334 220.136C79.9123 220.656 80.0997 221.152 80.3833 221.594C80.667 222.036 81.0405 222.413 81.4797 222.701C83.2939 223.992 86.0355 223.709 88.0413 223.105C90.3091 222.389 94.0889 218.932 94.4417 218.66C96.4132 220.85 98.5278 222.907 100.771 224.818C102.072 225.937 103.412 227.025 104.803 228.104C104.108 227.711 103.483 227.358 103.392 227.318C100.802 226.199 95.1371 225.574 93.0608 227.953C92.7251 228.357 92.4786 228.827 92.3374 229.334C92.1962 229.84 92.1636 230.37 92.2416 230.889C92.3196 231.409 92.5066 231.906 92.7902 232.349C93.0738 232.791 93.4477 233.168 93.8873 233.456C95.7117 234.746 98.4432 234.464 100.459 233.859C102.475 233.254 105.811 230.331 106.688 229.555L108.26 230.785C110.8 232.73 113.3 234.655 115.77 236.621C116.626 237.316 117.443 238.022 118.269 238.738C117.654 238.385 117.13 238.093 117.04 238.052C114.449 236.943 108.785 236.308 106.708 238.697C106.372 239.101 106.126 239.572 105.985 240.078C105.844 240.584 105.811 241.114 105.889 241.634C105.967 242.154 106.154 242.651 106.438 243.093C106.721 243.535 107.095 243.913 107.535 244.201C109.359 245.491 112.091 245.209 114.106 244.594C116.122 243.979 119.146 241.348 120.154 240.441C120.97 241.187 121.797 241.943 122.563 242.709C123.067 243.243 123.571 243.717 124.075 244.291L125.516 245.934C126.403 247.003 127.31 248.101 128.147 249.17C128.732 249.916 129.276 250.631 129.83 251.347C128.984 250.651 127.3 249.331 127.139 249.22C124.75 247.718 119.247 246.247 116.828 248.283C116.437 248.633 116.125 249.062 115.912 249.542C115.698 250.021 115.587 250.54 115.587 251.065C115.587 251.589 115.698 252.108 115.912 252.588C116.125 253.067 116.437 253.496 116.828 253.847C118.43 255.399 121.172 255.56 123.258 255.237C125.546 254.885 129.699 252.214 130.213 251.841C131.12 253.03 131.987 254.199 132.794 255.308C135.586 259.168 137.763 262.495 139.254 264.833L139.406 265.075L141.341 264.138L141.038 263.674C139.476 261.346 137.208 258.039 134.295 254.199C133.388 252.98 132.38 251.71 131.342 250.399C132.42 249.222 133.43 247.984 134.366 246.69C136.583 247.557 141.21 247.587 141.804 247.587C141.905 249.089 141.986 250.54 142.036 251.911C142.238 256.679 142.218 260.65 142.177 263.422C142.177 263.533 142.177 263.634 142.177 263.744L144.304 262.736C144.304 259.975 144.193 256.245 143.921 251.831C143.82 250.319 143.689 248.696 143.548 247.033C144.133 246.892 148.941 245.652 150.755 244.201C152.408 242.89 154.142 240.753 154.081 238.526C154.085 238.001 153.979 237.481 153.768 237C153.558 236.519 153.249 236.088 152.861 235.734C152.473 235.38 152.015 235.112 151.517 234.947C151.019 234.782 150.491 234.724 149.969 234.776C146.824 235.18 144.203 240.229 143.689 243.011C143.689 243.173 143.518 245.027 143.457 246.126C143.397 245.45 143.337 244.795 143.266 244.11C143.125 242.729 142.943 241.358 142.762 239.877C142.641 239.171 142.52 238.445 142.409 237.72C142.298 236.994 142.107 236.248 141.956 235.512C141.573 233.789 141.109 232.065 140.595 230.342C141.804 230.221 146.098 229.717 147.933 228.658C149.767 227.6 151.793 225.766 152.075 223.548C152.158 223.03 152.131 222.501 151.996 221.994C151.86 221.487 151.62 221.014 151.29 220.607C150.96 220.199 150.548 219.865 150.081 219.627C149.614 219.389 149.102 219.251 148.578 219.224C145.413 219.143 142.046 223.74 141.119 226.411C141.059 226.572 140.605 228.557 140.383 229.656C140.061 228.648 139.758 227.59 139.375 226.552C138.367 223.528 137.228 220.575 136.12 217.581L135.112 214.829C135.545 214.829 140.655 214.305 142.712 213.116C144.536 212.108 146.572 210.223 146.854 208.006C146.939 207.488 146.913 206.957 146.778 206.45C146.643 205.943 146.403 205.469 146.073 205.061C145.743 204.653 145.33 204.319 144.862 204.081C144.394 203.844 143.881 203.707 143.357 203.682C140.192 203.601 136.825 208.207 135.898 210.868C135.827 211.07 135.182 213.892 135.051 214.668C134.326 212.652 133.62 210.636 133.035 208.621C132.194 205.896 131.52 203.122 131.02 200.315C131.221 200.315 136.563 199.811 138.67 198.602C140.494 197.543 142.53 195.699 142.812 193.481C142.895 192.963 142.868 192.432 142.732 191.925C142.596 191.417 142.355 190.944 142.024 190.536C141.693 190.128 141.28 189.795 140.811 189.557C140.343 189.32 139.829 189.183 139.305 189.157C136.15 189.077 132.783 193.683 131.856 196.344C131.796 196.515 131.302 198.702 131.09 199.741H130.909C130.492 196.902 130.33 194.031 130.425 191.163C130.425 189.591 130.576 188.079 130.727 186.617C131.735 186.617 136.321 186.617 138.337 185.751C140.353 184.884 142.49 183.291 143.014 181.124C143.154 180.616 143.185 180.085 143.105 179.565C143.025 179.044 142.836 178.546 142.551 178.104C142.266 177.661 141.89 177.284 141.449 176.997C141.007 176.71 140.51 176.519 139.99 176.437C136.855 176.014 133.005 180.217 131.796 182.757C131.725 182.898 131.211 184.38 130.848 185.468C130.919 184.803 130.989 184.128 131.08 183.452C131.403 181.084 131.836 178.937 132.239 177.032C132.481 175.953 132.713 175.016 132.945 174.079C133.953 173.575 137.904 171.508 139.264 169.825C140.625 168.142 141.815 165.733 141.28 163.566C141.169 163.044 140.948 162.552 140.631 162.123C140.314 161.694 139.909 161.338 139.443 161.078C138.978 160.819 138.462 160.662 137.93 160.618C137.398 160.574 136.864 160.644 136.362 160.824Z" fill="white"/>
<path d="M79.232 209.548C81.7014 209.447 86.6403 206.907 86.6504 206.907C86.6605 206.907 83.9894 204.166 83.7979 204.004C81.5906 202.25 76.2888 200.144 73.6581 201.898C73.2294 202.2 72.8691 202.589 72.6005 203.04C72.332 203.49 72.1613 203.992 72.0995 204.513C72.0377 205.034 72.0862 205.562 72.2419 206.063C72.3975 206.564 72.6568 207.027 73.003 207.421C74.4242 209.145 77.1557 209.629 79.232 209.548Z" fill="white"/>
</g>
<path d="M108.069 271.384C108.069 271.384 123.057 235.26 131.443 236.832C139.829 238.405 117.06 294.426 117.06 294.426C117.06 294.426 143.427 244.684 161.409 244.684C179.39 244.684 154.817 299.657 132.048 317.981C132.048 317.981 168.001 279.236 188.986 287.622C209.971 296.008 147.026 335.267 147.026 335.267C147.026 335.267 183.583 323.746 179.39 332.646C175.197 341.547 163.838 343.119 163.838 343.119L205.163 345.215H61.321L93.6858 342.071C93.6858 342.071 60.1216 325.319 69.0922 318.505C78.0628 311.692 97.8586 326.357 97.8586 326.357C97.8586 326.357 63.6998 288.66 70.2916 274.529C76.8835 260.398 106.255 300.181 106.255 300.181C106.255 300.181 82.276 249.401 87.104 240.491C91.932 231.581 108.069 271.384 108.069 271.384Z" fill="#ED1C24"/>
<path opacity="0.4" d="M108.069 271.384C108.069 271.384 123.057 235.26 131.443 236.832C139.829 238.405 117.06 294.426 117.06 294.426C117.06 294.426 143.427 244.684 161.409 244.684C179.39 244.684 154.817 299.657 132.048 317.981C132.048 317.981 168.001 279.236 188.986 287.622C209.971 296.008 147.026 335.267 147.026 335.267C147.026 335.267 183.583 323.746 179.39 332.646C175.197 341.547 163.838 343.119 163.838 343.119L205.163 345.215H61.321L93.6858 342.071C93.6858 342.071 60.1216 325.319 69.0922 318.505C78.0628 311.692 97.8586 326.357 97.8586 326.357C97.8586 326.357 63.6998 288.66 70.2916 274.529C76.8835 260.398 106.255 300.181 106.255 300.181C106.255 300.181 82.276 249.401 87.104 240.491C91.932 231.581 108.069 271.384 108.069 271.384Z" fill="white"/>
<path d="M103.281 273.29C116.465 312.246 116.465 339.813 116.465 339.813C116.465 339.813 100.882 340.418 84.6951 328.434" stroke="#263238" stroke-linecap="round" stroke-linejoin="round"/>
<path d="M109.873 294.265C112.587 282.618 116.192 271.199 120.658 260.106" stroke="#263238" stroke-linecap="round" stroke-linejoin="round"/>
<path d="M148.83 271.495L115.266 321.237C115.266 321.237 92.4864 302.086 84.6951 291.271" stroke="#263238" stroke-linecap="round" stroke-linejoin="round"/>
<path d="M115.86 333.221C115.86 333.221 151.219 316.439 165.612 306.854" stroke="#263238" stroke-linecap="round" stroke-linejoin="round"/>
<path d="M410.399 186.144C410.338 186.144 411.104 182.384 411.175 182.112C412.041 179.431 415.307 174.754 418.462 174.754C418.987 174.77 419.503 174.897 419.976 175.125C420.449 175.354 420.868 175.679 421.208 176.08C421.547 176.481 421.798 176.949 421.945 177.453C422.092 177.957 422.131 178.487 422.06 179.007C421.829 181.225 419.833 183.12 418.029 184.208C415.912 185.529 410.399 186.144 410.399 186.144Z" fill="#ED1C24"/>
<path d="M404.28 160.824C407.254 161.893 408.735 167.396 408.635 170.218C408.635 170.46 408.07 174.25 408.02 174.25H407.959C408.191 175.117 408.443 176.044 408.695 177.072C409.139 178.967 409.622 181.104 409.995 183.483C410.428 186.031 410.711 188.602 410.842 191.183C411.003 194.076 410.905 196.976 410.55 199.851C410.546 199.885 410.546 199.919 410.55 199.952C410.943 199.116 412.112 196.807 412.213 196.636C413.765 194.278 418.14 190.588 421.194 191.465C421.695 191.618 422.159 191.875 422.554 192.219C422.949 192.564 423.268 192.987 423.489 193.463C423.709 193.938 423.827 194.455 423.835 194.979C423.842 195.504 423.739 196.023 423.532 196.505C422.726 198.591 420.307 199.882 418.281 200.466C415.993 201.111 410.892 200.345 410.489 200.285C410.057 203.199 409.431 206.082 408.615 208.913C408.144 210.566 407.633 212.215 407.082 213.862C407.435 213.146 407.768 212.511 407.818 212.43C409.37 210.072 413.755 206.383 416.799 207.26C417.3 207.413 417.764 207.67 418.159 208.014C418.555 208.358 418.873 208.782 419.094 209.257C419.315 209.733 419.433 210.249 419.44 210.774C419.448 211.298 419.344 211.818 419.137 212.299C418.331 214.376 415.912 215.676 413.886 216.25C411.86 216.825 407.466 216.25 406.316 216.109L405.681 217.994C404.674 221.018 403.575 224.042 402.658 227.005C402.325 228.013 402.033 229.102 401.74 230.15C402.063 229.515 402.335 228.981 402.386 228.91C403.938 226.541 408.312 222.862 411.356 223.739C411.858 223.893 412.321 224.15 412.717 224.494C413.113 224.838 413.431 225.261 413.653 225.736C413.874 226.211 413.993 226.728 414.002 227.252C414.011 227.776 413.91 228.297 413.705 228.779C412.898 230.855 410.469 232.156 408.443 232.73C406.417 233.305 402.456 232.801 401.085 232.609C400.813 233.688 400.551 234.776 400.339 235.835C400.208 236.56 400.037 237.246 399.946 237.992L399.644 240.149C399.503 241.529 399.342 242.951 399.241 244.301C399.16 245.249 399.1 246.146 399.039 247.043C399.362 246.035 400.047 243.948 400.098 243.787C401.217 241.572 402.882 239.678 404.936 238.284C405.05 238.029 405.188 237.786 405.349 237.558C405.634 237.118 406.009 236.743 406.45 236.457C406.89 236.172 407.385 235.982 407.904 235.901C408.422 235.821 408.952 235.85 409.458 235.988C409.965 236.126 410.436 236.369 410.842 236.701C413.241 238.768 412.636 244.432 411.538 247.033C411.477 247.184 410.58 248.776 410.006 249.764C410.439 249.23 410.842 248.756 411.296 248.172C412.173 247.093 413.08 246.045 414.047 244.916L415.529 243.313C416.013 242.769 416.597 242.255 417.132 241.711C418.391 240.491 419.732 239.312 421.113 238.163C420.176 237.387 416.87 234.605 415.922 232.71C414.975 230.815 414.299 228.164 415.287 226.158C415.504 225.68 415.819 225.252 416.213 224.904C416.606 224.555 417.068 224.294 417.569 224.136C418.071 223.978 418.599 223.927 419.121 223.988C419.643 224.048 420.147 224.217 420.599 224.485C423.27 226.158 423.542 231.853 422.847 234.565C422.847 234.736 422.081 236.651 421.667 237.689C422.504 236.994 423.33 236.308 424.197 235.673C426.697 233.748 429.287 231.873 431.857 229.989L434.206 228.245C433.873 227.973 429.882 224.747 428.814 222.621C427.876 220.736 427.191 218.075 428.179 216.079C428.395 215.6 428.709 215.171 429.102 214.822C429.495 214.472 429.957 214.209 430.458 214.05C430.96 213.892 431.489 213.84 432.011 213.9C432.534 213.959 433.038 214.128 433.49 214.396C436.171 216.079 436.434 221.764 435.738 224.475C435.688 224.677 434.649 227.418 434.357 228.104C436.071 226.824 437.774 225.534 439.397 224.193C441.603 222.387 443.69 220.441 445.646 218.367C445.495 218.246 441.312 214.89 440.223 212.723C439.276 210.838 438.601 208.177 439.588 206.171C439.804 205.693 440.119 205.266 440.511 204.917C440.903 204.569 441.364 204.307 441.864 204.148C442.364 203.989 442.892 203.937 443.413 203.996C443.935 204.054 444.438 204.222 444.89 204.488C447.571 206.171 447.843 211.866 447.148 214.567C447.097 214.749 446.311 216.845 445.918 217.823C445.964 217.862 446.015 217.896 446.069 217.924C447.981 215.783 449.698 213.475 451.2 211.029C452.046 209.699 452.772 208.368 453.457 207.068C452.611 206.524 448.791 204.044 447.591 202.149C446.392 200.255 445.485 197.805 446.241 195.709C446.404 195.21 446.67 194.751 447.022 194.362C447.374 193.973 447.804 193.662 448.285 193.45C448.765 193.238 449.284 193.129 449.809 193.131C450.334 193.133 450.852 193.246 451.331 193.461C454.183 194.832 455.07 200.517 454.677 203.258C454.677 203.409 454.274 204.931 453.982 206.03C454.274 205.445 454.596 204.831 454.869 204.256C455.877 202.109 456.733 200.073 457.439 198.269C457.842 197.261 458.175 196.253 458.447 195.406C457.892 194.449 455.735 190.528 455.524 188.351C455.312 186.174 455.655 183.523 457.298 182.011C457.672 181.643 458.119 181.358 458.611 181.174C459.102 180.99 459.627 180.912 460.151 180.944C460.675 180.976 461.186 181.118 461.651 181.361C462.117 181.604 462.525 181.942 462.851 182.354C464.746 184.884 462.942 190.296 461.309 192.594C461.168 192.796 458.598 195.618 458.568 195.618V195.558C458.285 196.414 457.983 197.321 457.62 198.319C456.955 200.144 456.179 202.2 455.181 204.367C454.126 206.73 452.938 209.032 451.623 211.261C450.155 213.758 448.469 216.119 446.583 218.317L446.513 218.387C447.299 217.903 449.537 216.623 449.728 216.543C452.329 215.424 457.993 214.799 460.07 217.178C460.404 217.583 460.649 218.053 460.789 218.559C460.93 219.065 460.962 219.595 460.884 220.114C460.806 220.633 460.619 221.13 460.337 221.572C460.054 222.014 459.681 222.392 459.243 222.681C457.419 223.971 454.687 223.689 452.671 223.084C450.403 222.369 446.624 218.911 446.281 218.639C444.309 220.83 442.195 222.887 439.951 224.798C438.651 225.917 437.3 227.005 435.919 228.084C436.615 227.691 437.24 227.338 437.331 227.297C439.921 226.179 445.586 225.554 447.662 227.932C447.998 228.337 448.244 228.807 448.385 229.313C448.526 229.819 448.559 230.35 448.481 230.869C448.403 231.389 448.216 231.886 447.932 232.328C447.649 232.771 447.275 233.148 446.835 233.436C445.021 234.726 442.28 234.444 440.274 233.839C438.268 233.234 434.912 230.311 434.045 229.535C433.51 229.948 433.037 230.362 432.462 230.765C429.932 232.71 427.423 234.635 424.953 236.601C424.096 237.296 423.28 238.002 422.453 238.717L423.683 238.032C426.274 236.923 431.938 236.288 434.014 238.677C434.35 239.081 434.597 239.552 434.738 240.058C434.879 240.564 434.912 241.094 434.834 241.614C434.756 242.133 434.569 242.631 434.285 243.073C434.001 243.515 433.628 243.893 433.188 244.18C431.364 245.47 428.632 245.188 426.626 244.573C424.621 243.959 421.587 241.328 420.579 240.421C419.762 241.167 418.936 241.923 418.18 242.689C417.666 243.223 417.172 243.697 416.668 244.271L415.217 245.914C414.34 246.982 413.422 248.081 412.586 249.149C412.001 249.895 411.457 250.611 410.913 251.327C411.749 250.631 413.443 249.311 413.594 249.2C415.983 247.698 421.496 246.226 423.905 248.262C424.295 248.613 424.608 249.042 424.821 249.521C425.035 250.001 425.145 250.52 425.145 251.044C425.145 251.569 425.035 252.088 424.821 252.567C424.608 253.047 424.295 253.476 423.905 253.826C422.292 255.378 419.551 255.54 417.474 255.217C415.176 254.864 411.024 252.193 410.509 251.82C409.602 253.01 408.736 254.179 407.929 255.288C405.137 259.148 402.96 262.474 401.468 264.813C401.468 264.903 401.367 264.974 401.317 265.055L399.382 264.117L399.684 263.654C401.247 261.325 403.524 258.019 406.427 254.179C407.345 252.959 408.342 251.689 409.381 250.379C408.3 249.204 407.29 247.965 406.357 246.67C404.129 247.537 399.513 247.567 398.908 247.567C398.817 249.069 398.737 250.52 398.676 251.891C398.475 256.659 398.495 260.63 398.545 263.402V263.724L396.419 262.716C396.419 259.954 396.529 256.225 396.812 251.81C396.902 250.298 397.033 248.676 397.185 247.013C396.59 246.872 391.782 245.632 389.968 244.18C388.325 242.87 386.591 240.733 386.652 238.506C386.646 237.98 386.752 237.46 386.961 236.978C387.171 236.496 387.48 236.064 387.868 235.71C388.256 235.356 388.715 235.088 389.214 234.924C389.713 234.759 390.241 234.702 390.764 234.756C393.899 235.159 396.529 240.209 397.043 242.991C397.043 243.152 397.205 245.007 397.265 246.105C397.336 245.43 397.386 244.775 397.467 244.09C397.598 242.709 397.779 241.338 397.971 239.856C398.082 239.151 398.203 238.425 398.313 237.699C398.424 236.974 398.616 236.228 398.767 235.492C399.15 233.768 399.614 232.045 400.128 230.321C398.918 230.2 394.635 229.696 392.79 228.638C390.945 227.58 388.93 225.745 388.657 223.528C388.573 223.01 388.599 222.479 388.734 221.972C388.868 221.465 389.109 220.991 389.439 220.583C389.769 220.175 390.182 219.841 390.65 219.603C391.118 219.366 391.631 219.23 392.155 219.204C395.31 219.123 398.676 223.719 399.604 226.39C399.664 226.552 400.118 228.537 400.339 229.636C400.662 228.628 400.964 227.57 401.347 226.531C402.355 223.508 403.494 220.554 404.603 217.561C404.946 216.644 405.268 215.726 405.611 214.809C405.177 214.809 400.067 214.285 398.011 213.096C396.187 212.088 394.151 210.203 393.868 207.985C393.786 207.467 393.813 206.938 393.948 206.431C394.084 205.924 394.324 205.452 394.654 205.044C394.984 204.636 395.396 204.302 395.863 204.064C396.33 203.826 396.842 203.689 397.366 203.661C400.531 203.581 403.897 208.187 404.825 210.848C404.895 211.05 405.54 213.872 405.671 214.648C406.397 212.632 407.113 210.616 407.687 208.6C408.539 205.878 409.212 203.104 409.703 200.295C409.502 200.295 404.17 199.791 402.063 198.581C400.229 197.523 398.193 195.679 397.92 193.461C397.836 192.943 397.862 192.413 397.997 191.905C398.131 191.398 398.372 190.925 398.702 190.517C399.032 190.108 399.444 189.775 399.913 189.537C400.381 189.299 400.894 189.163 401.418 189.137C404.573 189.056 407.939 193.663 408.867 196.324C408.927 196.495 409.431 198.682 409.643 199.72H409.814C410.23 196.881 410.392 194.011 410.298 191.143C410.298 189.57 410.147 188.059 409.995 186.597C408.987 186.597 404.411 186.597 402.396 185.73C400.38 184.863 398.233 183.271 397.709 181.104C397.569 180.596 397.538 180.065 397.618 179.544C397.697 179.024 397.886 178.526 398.172 178.084C398.457 177.641 398.833 177.264 399.274 176.977C399.715 176.69 400.212 176.499 400.733 176.417C403.867 175.994 407.718 180.197 408.937 182.737C408.998 182.878 409.522 184.359 409.874 185.448C409.804 184.783 409.733 184.107 409.643 183.432C409.33 181.064 408.887 178.917 408.484 177.012C408.242 175.933 408.01 174.996 407.778 174.058C406.77 173.554 402.819 171.488 401.468 169.805C400.118 168.122 398.908 165.713 399.452 163.546C399.568 163.036 399.789 162.557 400.1 162.138C400.412 161.72 400.808 161.371 401.263 161.115C401.718 160.858 402.221 160.7 402.741 160.65C403.261 160.6 403.785 160.659 404.28 160.824Z" fill="#ED1C24"/>
<path d="M461.41 209.548C458.941 209.447 454.002 206.907 454.002 206.907C454.002 206.907 456.653 204.166 456.844 204.004C459.051 202.25 464.353 200.144 466.984 201.898C467.414 202.199 467.776 202.588 468.045 203.038C468.314 203.489 468.486 203.991 468.547 204.513C468.609 205.034 468.56 205.563 468.404 206.064C468.247 206.565 467.987 207.028 467.639 207.421C466.218 209.145 463.517 209.629 461.41 209.548Z" fill="#ED1C24"/>
<g opacity="0.5">
<path d="M410.399 186.144C410.338 186.144 411.104 182.384 411.175 182.112C412.041 179.431 415.307 174.754 418.462 174.754C418.987 174.77 419.503 174.897 419.976 175.125C420.449 175.354 420.868 175.679 421.208 176.08C421.547 176.481 421.798 176.949 421.945 177.453C422.092 177.957 422.131 178.487 422.06 179.007C421.829 181.225 419.833 183.12 418.029 184.208C415.912 185.529 410.399 186.144 410.399 186.144Z" fill="white"/>
<path d="M404.28 160.824C407.254 161.893 408.735 167.396 408.635 170.218C408.635 170.46 408.07 174.25 408.02 174.25H407.959C408.191 175.117 408.443 176.044 408.695 177.072C409.139 178.967 409.622 181.104 409.995 183.483C410.428 186.031 410.711 188.602 410.842 191.183C411.003 194.076 410.905 196.976 410.55 199.851C410.546 199.885 410.546 199.919 410.55 199.952C410.943 199.116 412.112 196.807 412.213 196.636C413.765 194.278 418.14 190.588 421.194 191.465C421.695 191.618 422.159 191.875 422.554 192.219C422.949 192.564 423.268 192.987 423.489 193.463C423.709 193.938 423.827 194.455 423.835 194.979C423.842 195.504 423.739 196.023 423.532 196.505C422.726 198.591 420.307 199.882 418.281 200.466C415.993 201.111 410.892 200.345 410.489 200.285C410.057 203.199 409.431 206.082 408.615 208.913C408.144 210.566 407.633 212.215 407.082 213.862C407.435 213.146 407.768 212.511 407.818 212.43C409.37 210.072 413.755 206.383 416.799 207.26C417.3 207.413 417.764 207.67 418.159 208.014C418.555 208.358 418.873 208.782 419.094 209.257C419.315 209.733 419.433 210.249 419.44 210.774C419.448 211.298 419.344 211.818 419.137 212.299C418.331 214.376 415.912 215.676 413.886 216.25C411.86 216.825 407.466 216.25 406.316 216.109L405.681 217.994C404.674 221.018 403.575 224.042 402.658 227.005C402.325 228.013 402.033 229.102 401.74 230.15C402.063 229.515 402.335 228.981 402.386 228.91C403.938 226.541 408.312 222.862 411.356 223.739C411.858 223.893 412.321 224.15 412.717 224.494C413.113 224.838 413.431 225.261 413.653 225.736C413.874 226.211 413.993 226.728 414.002 227.252C414.011 227.776 413.91 228.297 413.705 228.779C412.898 230.855 410.469 232.156 408.443 232.73C406.417 233.305 402.456 232.801 401.085 232.609C400.813 233.688 400.551 234.776 400.339 235.835C400.208 236.56 400.037 237.246 399.946 237.992L399.644 240.149C399.503 241.529 399.342 242.951 399.241 244.301C399.16 245.249 399.1 246.146 399.039 247.043C399.362 246.035 400.047 243.948 400.098 243.787C401.217 241.572 402.882 239.678 404.936 238.284C405.05 238.029 405.188 237.786 405.349 237.558C405.634 237.118 406.009 236.743 406.45 236.457C406.89 236.172 407.385 235.982 407.904 235.901C408.422 235.821 408.952 235.85 409.458 235.988C409.965 236.126 410.436 236.369 410.842 236.701C413.241 238.768 412.636 244.432 411.538 247.033C411.477 247.184 410.58 248.776 410.006 249.764C410.439 249.23 410.842 248.756 411.296 248.172C412.173 247.093 413.08 246.045 414.047 244.916L415.529 243.313C416.013 242.769 416.597 242.255 417.132 241.711C418.391 240.491 419.732 239.312 421.113 238.163C420.176 237.387 416.87 234.605 415.922 232.71C414.975 230.815 414.299 228.164 415.287 226.158C415.504 225.68 415.819 225.252 416.213 224.904C416.606 224.555 417.068 224.294 417.569 224.136C418.071 223.978 418.599 223.927 419.121 223.988C419.643 224.048 420.147 224.217 420.599 224.485C423.27 226.158 423.542 231.853 422.847 234.565C422.847 234.736 422.081 236.651 421.667 237.689C422.504 236.994 423.33 236.308 424.197 235.673C426.697 233.748 429.287 231.873 431.857 229.989L434.206 228.245C433.873 227.973 429.882 224.747 428.814 222.621C427.876 220.736 427.191 218.075 428.179 216.079C428.395 215.6 428.709 215.171 429.102 214.822C429.495 214.472 429.957 214.209 430.458 214.05C430.96 213.892 431.489 213.84 432.011 213.9C432.534 213.959 433.038 214.128 433.49 214.396C436.171 216.079 436.434 221.764 435.738 224.475C435.688 224.677 434.649 227.418 434.357 228.104C436.071 226.824 437.774 225.534 439.397 224.193C441.603 222.387 443.69 220.441 445.646 218.367C445.495 218.246 441.312 214.89 440.223 212.723C439.276 210.838 438.601 208.177 439.588 206.171C439.804 205.693 440.119 205.266 440.511 204.917C440.903 204.569 441.364 204.307 441.864 204.148C442.364 203.989 442.892 203.937 443.413 203.996C443.935 204.054 444.438 204.222 444.89 204.488C447.571 206.171 447.843 211.866 447.148 214.567C447.097 214.749 446.311 216.845 445.918 217.823C445.964 217.862 446.015 217.896 446.069 217.924C447.981 215.783 449.698 213.475 451.2 211.029C452.046 209.699 452.772 208.368 453.457 207.068C452.611 206.524 448.791 204.044 447.591 202.149C446.392 200.255 445.485 197.805 446.241 195.709C446.404 195.21 446.67 194.751 447.022 194.362C447.374 193.973 447.804 193.662 448.285 193.45C448.765 193.238 449.284 193.129 449.809 193.131C450.334 193.133 450.852 193.246 451.331 193.461C454.183 194.832 455.07 200.517 454.677 203.258C454.677 203.409 454.274 204.931 453.982 206.03C454.274 205.445 454.596 204.831 454.869 204.256C455.877 202.109 456.733 200.073 457.439 198.269C457.842 197.261 458.175 196.253 458.447 195.406C457.892 194.449 455.735 190.528 455.524 188.351C455.312 186.174 455.655 183.523 457.298 182.011C457.672 181.643 458.119 181.358 458.611 181.174C459.102 180.99 459.627 180.912 460.151 180.944C460.675 180.976 461.186 181.118 461.651 181.361C462.117 181.604 462.525 181.942 462.851 182.354C464.746 184.884 462.942 190.296 461.309 192.594C461.168 192.796 458.598 195.618 458.568 195.618V195.558C458.285 196.414 457.983 197.321 457.62 198.319C456.955 200.144 456.179 202.2 455.181 204.367C454.126 206.73 452.938 209.032 451.623 211.261C450.155 213.758 448.469 216.119 446.583 218.317L446.513 218.387C447.299 217.903 449.537 216.623 449.728 216.543C452.329 215.424 457.993 214.799 460.07 217.178C460.404 217.583 460.649 218.053 460.789 218.559C460.93 219.065 460.962 219.595 460.884 220.114C460.806 220.633 460.619 221.13 460.337 221.572C460.054 222.014 459.681 222.392 459.243 222.681C457.419 223.971 454.687 223.689 452.671 223.084C450.403 222.369 446.624 218.911 446.281 218.639C444.309 220.83 442.195 222.887 439.951 224.798C438.651 225.917 437.3 227.005 435.919 228.084C436.615 227.691 437.24 227.338 437.331 227.297C439.921 226.179 445.586 225.554 447.662 227.932C447.998 228.337 448.244 228.807 448.385 229.313C448.526 229.819 448.559 230.35 448.481 230.869C448.403 231.389 448.216 231.886 447.932 232.328C447.649 232.771 447.275 233.148 446.835 233.436C445.021 234.726 442.28 234.444 440.274 233.839C438.268 233.234 434.912 230.311 434.045 229.535C433.51 229.948 433.037 230.362 432.462 230.765C429.932 232.71 427.423 234.635 424.953 236.601C424.096 237.296 423.28 238.002 422.453 238.717L423.683 238.032C426.274 236.923 431.938 236.288 434.014 238.677C434.35 239.081 434.597 239.552 434.738 240.058C434.879 240.564 434.912 241.094 434.834 241.614C434.756 242.133 434.569 242.631 434.285 243.073C434.001 243.515 433.628 243.893 433.188 244.18C431.364 245.47 428.632 245.188 426.626 244.573C424.621 243.959 421.587 241.328 420.579 240.421C419.762 241.167 418.936 241.923 418.18 242.689C417.666 243.223 417.172 243.697 416.668 244.271L415.217 245.914C414.34 246.982 413.422 248.081 412.586 249.149C412.001 249.895 411.457 250.611 410.913 251.327C411.749 250.631 413.443 249.311 413.594 249.2C415.983 247.698 421.496 246.226 423.905 248.262C424.295 248.613 424.608 249.042 424.821 249.521C425.035 250.001 425.145 250.52 425.145 251.044C425.145 251.569 425.035 252.088 424.821 252.567C424.608 253.047 424.295 253.476 423.905 253.826C422.292 255.378 419.551 255.54 417.474 255.217C415.176 254.864 411.024 252.193 410.509 251.82C409.602 253.01 408.736 254.179 407.929 255.288C405.137 259.148 402.96 262.474 401.468 264.813C401.468 264.903 401.367 264.974 401.317 265.055L399.382 264.117L399.684 263.654C401.247 261.325 403.524 258.019 406.427 254.179C407.345 252.959 408.342 251.689 409.381 250.379C408.3 249.204 407.29 247.965 406.357 246.67C404.129 247.537 399.513 247.567 398.908 247.567C398.817 249.069 398.737 250.52 398.676 251.891C398.475 256.659 398.495 260.63 398.545 263.402V263.724L396.419 262.716C396.419 259.954 396.529 256.225 396.812 251.81C396.902 250.298 397.033 248.676 397.185 247.013C396.59 246.872 391.782 245.632 389.968 244.18C388.325 242.87 386.591 240.733 386.652 238.506C386.646 237.98 386.752 237.46 386.961 236.978C387.171 236.496 387.48 236.064 387.868 235.71C388.256 235.356 388.715 235.088 389.214 234.924C389.713 234.759 390.241 234.702 390.764 234.756C393.899 235.159 396.529 240.209 397.043 242.991C397.043 243.152 397.205 245.007 397.265 246.105C397.336 245.43 397.386 244.775 397.467 244.09C397.598 242.709 397.779 241.338 397.971 239.856C398.082 239.151 398.203 238.425 398.313 237.699C398.424 236.974 398.616 236.228 398.767 235.492C399.15 233.768 399.614 232.045 400.128 230.321C398.918 230.2 394.635 229.696 392.79 228.638C390.945 227.58 388.93 225.745 388.657 223.528C388.573 223.01 388.599 222.479 388.734 221.972C388.868 221.465 389.109 220.991 389.439 220.583C389.769 220.175 390.182 219.841 390.65 219.603C391.118 219.366 391.631 219.23 392.155 219.204C395.31 219.123 398.676 223.719 399.604 226.39C399.664 226.552 400.118 228.537 400.339 229.636C400.662 228.628 400.964 227.57 401.347 226.531C402.355 223.508 403.494 220.554 404.603 217.561C404.946 216.644 405.268 215.726 405.611 214.809C405.177 214.809 400.067 214.285 398.011 213.096C396.187 212.088 394.151 210.203 393.868 207.985C393.786 207.467 393.813 206.938 393.948 206.431C394.084 205.924 394.324 205.452 394.654 205.044C394.984 204.636 395.396 204.302 395.863 204.064C396.33 203.826 396.842 203.689 397.366 203.661C400.531 203.581 403.897 208.187 404.825 210.848C404.895 211.05 405.54 213.872 405.671 214.648C406.397 212.632 407.113 210.616 407.687 208.6C408.539 205.878 409.212 203.104 409.703 200.295C409.502 200.295 404.17 199.791 402.063 198.581C400.229 197.523 398.193 195.679 397.92 193.461C397.836 192.943 397.862 192.413 397.997 191.905C398.131 191.398 398.372 190.925 398.702 190.517C399.032 190.108 399.444 189.775 399.913 189.537C400.381 189.299 400.894 189.163 401.418 189.137C404.573 189.056 407.939 193.663 408.867 196.324C408.927 196.495 409.431 198.682 409.643 199.72H409.814C410.23 196.881 410.392 194.011 410.298 191.143C410.298 189.57 410.147 188.059 409.995 186.597C408.987 186.597 404.411 186.597 402.396 185.73C400.38 184.863 398.233 183.271 397.709 181.104C397.569 180.596 397.538 180.065 397.618 179.544C397.697 179.024 397.886 178.526 398.172 178.084C398.457 177.641 398.833 177.264 399.274 176.977C399.715 176.69 400.212 176.499 400.733 176.417C403.867 175.994 407.718 180.197 408.937 182.737C408.998 182.878 409.522 184.359 409.874 185.448C409.804 184.783 409.733 184.107 409.643 183.432C409.33 181.064 408.887 178.917 408.484 177.012C408.242 175.933 408.01 174.996 407.778 174.058C406.77 173.554 402.819 171.488 401.468 169.805C400.118 168.122 398.908 165.713 399.452 163.546C399.568 163.036 399.789 162.557 400.1 162.138C400.412 161.72 400.808 161.371 401.263 161.115C401.718 160.858 402.221 160.7 402.741 160.65C403.261 160.6 403.785 160.659 404.28 160.824Z" fill="white"/>
<path d="M461.41 209.548C458.941 209.447 454.002 206.907 454.002 206.907C454.002 206.907 456.653 204.166 456.844 204.004C459.052 202.25 464.353 200.144 466.984 201.898C467.414 202.199 467.776 202.588 468.045 203.038C468.315 203.489 468.486 203.991 468.548 204.513C468.609 205.034 468.56 205.563 468.404 206.064C468.247 206.565 467.987 207.028 467.639 207.421C466.218 209.145 463.517 209.629 461.41 209.548Z" fill="white"/>
</g>
<path d="M432.573 271.384C432.573 271.384 417.585 235.26 409.199 236.832C400.813 238.405 423.582 294.426 423.582 294.426C423.582 294.426 397.215 244.684 379.233 244.684C361.252 244.684 385.825 299.657 408.604 317.981C408.604 317.981 372.641 279.236 351.666 287.622C330.691 296.008 393.647 335.267 393.647 335.267C393.647 335.267 357.089 323.746 361.282 332.646C365.475 341.547 376.865 343.119 376.865 343.119L335.539 345.215H479.321L446.956 342.071C446.956 342.071 480.52 325.319 471.53 318.505C462.539 311.692 442.763 326.357 442.763 326.357C442.763 326.357 476.922 288.66 470.33 274.529C463.738 260.398 434.367 300.181 434.367 300.181C434.367 300.181 458.346 249.401 453.518 240.491C448.69 231.581 432.573 271.384 432.573 271.384Z" fill="#ED1C24"/>
<path opacity="0.4" d="M432.573 271.384C432.573 271.384 417.585 235.26 409.199 236.832C400.813 238.405 423.582 294.426 423.582 294.426C423.582 294.426 397.215 244.684 379.233 244.684C361.252 244.684 385.825 299.657 408.604 317.981C408.604 317.981 372.641 279.236 351.666 287.622C330.691 296.008 393.647 335.267 393.647 335.267C393.647 335.267 357.089 323.746 361.282 332.646C365.475 341.547 376.865 343.119 376.865 343.119L335.539 345.215H479.321L446.956 342.071C446.956 342.071 480.52 325.319 471.53 318.505C462.539 311.692 442.763 326.357 442.763 326.357C442.763 326.357 476.922 288.66 470.33 274.529C463.738 260.398 434.367 300.181 434.367 300.181C434.367 300.181 458.346 249.401 453.518 240.491C448.69 231.581 432.573 271.384 432.573 271.384Z" fill="white"/>
<path d="M437.371 273.29C424.187 312.246 424.187 339.813 424.187 339.813C424.187 339.813 439.77 340.418 455.947 328.434" stroke="#263238" stroke-linecap="round" stroke-linejoin="round"/>
<path d="M430.779 294.265C428.059 282.619 424.45 271.199 419.984 260.106" stroke="#263238" stroke-linecap="round" stroke-linejoin="round"/>
<path d="M391.822 271.495L425.376 321.237C425.376 321.237 448.156 302.086 455.947 291.271" stroke="#263238" stroke-linecap="round" stroke-linejoin="round"/>
<path d="M424.782 333.221C424.782 333.221 389.423 316.439 375.04 306.854" stroke="#263238" stroke-linecap="round" stroke-linejoin="round"/>
<path d="M200.829 90.652L192.594 77.5085H120.063V90.652V95.3792V314.04H418.613V90.652H200.829Z" fill="#263238"/>
<path d="M416.648 96.6794H122.281V309.273H416.648V96.6794Z" fill="white"/>
<mask id="mask0_750_808" style="mask-type:luminance" maskUnits="userSpaceOnUse" x="122" y="96" width="295" height="214">
<path d="M416.648 96.6794H122.281V309.273H416.648V96.6794Z" fill="white"/>
</mask>
<g mask="url(#mask0_750_808)">
<path opacity="0.17" d="M418.089 94.8552H411.255V310.886H418.089V94.8552Z" fill="black"/>
<path opacity="0.17" d="M418.089 225.473H411.255V309.132H418.089V225.473Z" fill="black"/>
<path d="M417.031 93.807H121.112V105.368H417.031V93.807Z" fill="#ED1C24" stroke="#263238" stroke-miterlimit="10"/>
</g>
<path d="M416.648 96.6794H122.281V309.273H416.648V96.6794Z" stroke="#263238" stroke-linecap="round" stroke-linejoin="round"/>
<g opacity="0.17">
<path d="M275.648 116.516H255.056C254.818 116.516 254.582 116.469 254.362 116.377C254.142 116.286 253.942 116.153 253.773 115.984C253.605 115.816 253.471 115.616 253.38 115.396C253.289 115.175 253.242 114.94 253.242 114.701C253.24 114.462 253.286 114.225 253.377 114.004C253.468 113.783 253.601 113.581 253.77 113.412C253.938 113.242 254.139 113.108 254.359 113.016C254.58 112.924 254.817 112.877 255.056 112.877H275.648C275.887 112.877 276.124 112.924 276.345 113.016C276.566 113.108 276.766 113.242 276.935 113.412C277.103 113.581 277.237 113.783 277.327 114.004C277.418 114.225 277.464 114.462 277.462 114.701C277.462 114.94 277.415 115.175 277.324 115.396C277.233 115.616 277.099 115.816 276.931 115.984C276.763 116.153 276.563 116.286 276.342 116.377C276.122 116.469 275.886 116.516 275.648 116.516Z" fill="black"/>
<path d="M316.832 116.516H296.24C295.76 116.513 295.3 116.321 294.96 115.981C294.62 115.642 294.428 115.182 294.426 114.701C294.426 114.219 294.617 113.757 294.957 113.415C295.297 113.073 295.758 112.88 296.24 112.877H316.832C317.316 112.877 317.78 113.069 318.122 113.411C318.464 113.753 318.657 114.217 318.657 114.701C318.654 115.183 318.46 115.645 318.119 115.985C317.777 116.325 317.314 116.516 316.832 116.516Z" fill="black"/>
<path d="M358.026 116.516H337.434C336.952 116.516 336.49 116.325 336.148 115.985C335.806 115.645 335.613 115.183 335.61 114.701C335.61 114.217 335.802 113.753 336.144 113.411C336.486 113.069 336.95 112.877 337.434 112.877H358.026C358.509 112.88 358.97 113.073 359.31 113.415C359.65 113.757 359.841 114.219 359.841 114.701C359.838 115.182 359.646 115.642 359.306 115.981C358.967 116.321 358.507 116.513 358.026 116.516Z" fill="black"/>
<path d="M399.211 116.516H378.618C378.38 116.516 378.144 116.469 377.924 116.377C377.704 116.286 377.504 116.153 377.336 115.984C377.167 115.816 377.033 115.616 376.942 115.396C376.851 115.175 376.804 114.94 376.804 114.701C376.803 114.462 376.849 114.225 376.939 114.004C377.03 113.783 377.163 113.581 377.332 113.412C377.501 113.242 377.701 113.108 377.922 113.016C378.143 112.924 378.379 112.877 378.618 112.877H399.211C399.693 112.88 400.154 113.073 400.494 113.415C400.834 113.757 401.025 114.219 401.025 114.701C401.022 115.182 400.83 115.642 400.491 115.981C400.151 116.321 399.691 116.513 399.211 116.516Z" fill="black"/>
</g>
<path d="M150.1 203.289H181.215" stroke="#263238" stroke-width="3" stroke-linecap="round" stroke-linejoin="round"/>
<path d="M180.66 208.137H184.057" stroke="#263238" stroke-linecap="round" stroke-linejoin="round"/>
<path d="M161.177 208.137H178.604" stroke="#263238" stroke-linecap="round" stroke-linejoin="round"/>
<path d="M147.721 208.137H159.333" stroke="#263238" stroke-linecap="round" stroke-linejoin="round"/>
<path d="M169.785 212.985H184.057" stroke="#263238" stroke-linecap="round" stroke-linejoin="round"/>
<path d="M161.994 212.985H167.537" stroke="#263238" stroke-linecap="round" stroke-linejoin="round"/>
<path d="M147.721 212.985H159.534" stroke="#263238" stroke-linecap="round" stroke-linejoin="round"/>
<path d="M155.432 217.823H184.057" stroke="#263238" stroke-linecap="round" stroke-linejoin="round"/>
<path d="M147.721 217.823H152.771" stroke="#263238" stroke-linecap="round" stroke-linejoin="round"/>
<path d="M176.971 222.671H184.057" stroke="#263238" stroke-linecap="round" stroke-linejoin="round"/>
<path d="M163.435 222.671H174.502" stroke="#263238" stroke-linecap="round" stroke-linejoin="round"/>
<path d="M147.721 222.671H161.177" stroke="#263238" stroke-linecap="round" stroke-linejoin="round"/>
<path d="M159.534 227.519H184.057" stroke="#263238" stroke-linecap="round" stroke-linejoin="round"/>
<path d="M147.721 227.519H157.276" stroke="#263238" stroke-linecap="round" stroke-linejoin="round"/>
<path d="M221.058 203.289H252.173" stroke="#263238" stroke-width="3" stroke-linecap="round" stroke-linejoin="round"/>
<path d="M251.619 208.137H255.016" stroke="#263238" stroke-linecap="round" stroke-linejoin="round"/>
<path d="M232.136 208.137H249.563" stroke="#263238" stroke-linecap="round" stroke-linejoin="round"/>
<path d="M218.68 208.137H230.291" stroke="#263238" stroke-linecap="round" stroke-linejoin="round"/>
<path d="M240.743 212.985H255.016" stroke="#263238" stroke-linecap="round" stroke-linejoin="round"/>
<path d="M232.952 212.985H238.496" stroke="#263238" stroke-linecap="round" stroke-linejoin="round"/>
<path d="M218.68 212.985H230.493" stroke="#263238" stroke-linecap="round" stroke-linejoin="round"/>
<path d="M226.39 217.823H255.016" stroke="#263238" stroke-linecap="round" stroke-linejoin="round"/>
<path d="M218.68 217.823H223.729" stroke="#263238" stroke-linecap="round" stroke-linejoin="round"/>
<path d="M247.93 222.671H255.016" stroke="#263238" stroke-linecap="round" stroke-linejoin="round"/>
<path d="M234.393 222.671H245.461" stroke="#263238" stroke-linecap="round" stroke-linejoin="round"/>
<path d="M218.68 222.671H232.136" stroke="#263238" stroke-linecap="round" stroke-linejoin="round"/>
<path d="M230.493 227.519H255.016" stroke="#263238" stroke-linecap="round" stroke-linejoin="round"/>
<path d="M218.68 227.519H228.235" stroke="#263238" stroke-linecap="round" stroke-linejoin="round"/>
<path d="M292.017 203.289H323.132" stroke="#263238" stroke-width="3" stroke-linecap="round" stroke-linejoin="round"/>
<path d="M322.577 208.137H325.974" stroke="#263238" stroke-linecap="round" stroke-linejoin="round"/>
<path d="M303.094 208.137H320.521" stroke="#263238" stroke-linecap="round" stroke-linejoin="round"/>
<path d="M289.638 208.137H301.25" stroke="#263238" stroke-linecap="round" stroke-linejoin="round"/>
<path d="M311.702 212.985H325.974" stroke="#263238" stroke-linecap="round" stroke-linejoin="round"/>
<path d="M303.911 212.985H309.454" stroke="#263238" stroke-linecap="round" stroke-linejoin="round"/>
<path d="M289.638 212.985H301.451" stroke="#263238" stroke-linecap="round" stroke-linejoin="round"/>
<path d="M297.349 217.823H325.974" stroke="#263238" stroke-linecap="round" stroke-linejoin="round"/>
<path d="M289.638 217.823H294.688" stroke="#263238" stroke-linecap="round" stroke-linejoin="round"/>
<path d="M318.888 222.671H325.974" stroke="#263238" stroke-linecap="round" stroke-linejoin="round"/>
<path d="M305.352 222.671H316.419" stroke="#263238" stroke-linecap="round" stroke-linejoin="round"/>
<path d="M289.638 222.671H303.094" stroke="#263238" stroke-linecap="round" stroke-linejoin="round"/>
<path d="M301.451 227.519H325.974" stroke="#263238" stroke-linecap="round" stroke-linejoin="round"/>
<path d="M289.638 227.519H299.193" stroke="#263238" stroke-linecap="round" stroke-linejoin="round"/>
<path d="M362.975 203.289H394.09" stroke="#263238" stroke-width="3" stroke-linecap="round" stroke-linejoin="round"/>
<path d="M393.536 208.137H396.933" stroke="#263238" stroke-linecap="round" stroke-linejoin="round"/>
<path d="M374.053 208.137H391.48" stroke="#263238" stroke-linecap="round" stroke-linejoin="round"/>
<path d="M360.597 208.137H372.208" stroke="#263238" stroke-linecap="round" stroke-linejoin="round"/>
<path d="M382.66 212.985H396.933" stroke="#263238" stroke-linecap="round" stroke-linejoin="round"/>
<path d="M374.869 212.985H380.413" stroke="#263238" stroke-linecap="round" stroke-linejoin="round"/>
<path d="M360.597 212.985H372.41" stroke="#263238" stroke-linecap="round" stroke-linejoin="round"/>
<path d="M368.307 217.823H396.933" stroke="#263238" stroke-linecap="round" stroke-linejoin="round"/>
<path d="M360.597 217.823H365.646" stroke="#263238" stroke-linecap="round" stroke-linejoin="round"/>
<path d="M389.847 222.671H396.933" stroke="#263238" stroke-linecap="round" stroke-linejoin="round"/>
<path d="M376.31 222.671H387.377" stroke="#263238" stroke-linecap="round" stroke-linejoin="round"/>
<path d="M360.597 222.671H374.052" stroke="#263238" stroke-linecap="round" stroke-linejoin="round"/>
<path d="M372.41 227.519H396.933" stroke="#263238" stroke-linecap="round" stroke-linejoin="round"/>
<path d="M360.597 227.519H370.152" stroke="#263238" stroke-linecap="round" stroke-linejoin="round"/>
<path d="M406.518 187.676H132.36V131.12H406.518V187.676Z" fill="#ED1C24"/>
<path opacity="0.7" d="M406.518 187.676H132.36V131.12H406.518V187.676Z" fill="white"/>
<path d="M337.142 187.676H201.787V131.12H337.142V187.676Z" fill="#ED1C24"/>
<path opacity="0.92" d="M337.142 187.676H201.787V131.12H337.142V187.676Z" fill="white"/>
<path d="M309.484 147.509H318.707" stroke="#263238" stroke-linecap="round" stroke-linejoin="round"/>
<path d="M256.689 147.509H303.931" stroke="#263238" stroke-linecap="round" stroke-linejoin="round"/>
<path d="M220.222 147.509H251.679" stroke="#263238" stroke-linecap="round" stroke-linejoin="round"/>
<path d="M280.033 152.358H318.707" stroke="#263238" stroke-linecap="round" stroke-linejoin="round"/>
<path d="M258.906 152.358H273.914" stroke="#263238" stroke-linecap="round" stroke-linejoin="round"/>
<path d="M220.222 152.358H252.244" stroke="#263238" stroke-linecap="round" stroke-linejoin="round"/>
<path d="M241.126 157.206H318.707" stroke="#263238" stroke-linecap="round" stroke-linejoin="round"/>
<path d="M220.222 157.206H233.899" stroke="#263238" stroke-linecap="round" stroke-linejoin="round"/>
<path d="M299.486 162.054H318.707" stroke="#263238" stroke-linecap="round" stroke-linejoin="round"/>
<path d="M262.797 162.054H292.813" stroke="#263238" stroke-linecap="round" stroke-linejoin="round"/>
<path d="M220.222 162.054H256.689" stroke="#263238" stroke-linecap="round" stroke-linejoin="round"/>
<path d="M252.244 166.892H318.707" stroke="#263238" stroke-linecap="round" stroke-linejoin="round"/>
<path d="M220.222 166.892H246.126" stroke="#263238" stroke-linecap="round" stroke-linejoin="round"/>
<path d="M406.518 308.567H132.36V252.012H406.518V308.567Z" fill="#ED1C24"/>
<path opacity="0.7" d="M406.518 308.567H132.36V252.012H406.518V308.567Z" fill="white"/>
<mask id="mask1_750_808" style="mask-type:luminance" maskUnits="userSpaceOnUse" x="347" y="229" width="62" height="80">
<path d="M408.635 229.051H347.766V308.92H408.635V229.051Z" fill="white"/>
</mask>
<g mask="url(#mask1_750_808)">
<path d="M374.073 273.531C374.073 273.531 358.016 279.982 355.496 280.778C352.977 281.575 352.825 282.663 352.825 286.12C352.825 289.578 353.299 305.17 353.299 306.43C353.299 307.69 353.138 310.049 353.138 310.049H405.742C405.742 310.049 402.275 295.938 400.229 289.275C398.182 282.613 399.13 282.028 395.511 279.831C391.893 277.634 382.408 274.479 380.392 274.005C378.302 273.677 376.189 273.518 374.073 273.531Z" fill="#263238" stroke="#263238" stroke-linecap="round" stroke-linejoin="round"/>
<path d="M374.859 271.798C374.859 271.798 371.079 271.485 369.507 274.64C367.934 277.795 364.155 285.143 364.155 285.143L368.721 287.975L363.409 290.686C364.296 294.575 365.4 298.411 366.715 302.177C367.63 304.648 368.679 307.068 369.86 309.424C369.86 309.424 377.52 300.766 380.544 298.085C382.537 296.177 384.188 293.94 385.422 291.473L381.491 287.854L388.264 287.068C388.264 287.068 386.531 278.259 384.323 274.64C382.116 271.022 374.859 271.798 374.859 271.798Z" fill="#263238" stroke="#263238" stroke-linecap="round" stroke-linejoin="round"/>
<path d="M367.128 302.278C367.41 303.064 367.713 303.81 368.005 304.465" stroke="white" stroke-width="0.5" stroke-linecap="round" stroke-linejoin="round"/>
<path d="M367.703 278.561L364.155 285.143L368.721 287.975L363.832 290.747C363.832 290.747 364.971 295.716 366.402 300.171" stroke="white" stroke-width="0.5" stroke-linecap="round" stroke-linejoin="round"/>
<path d="M385.583 275.577L388.234 287.068L381.461 287.854L385.392 291.472C385.392 291.472 377.832 300.332 374.698 303.91" stroke="white" stroke-width="0.5" stroke-linecap="round" stroke-linejoin="round"/>
<path d="M395.481 293.206L392.649 310.684" stroke="white" stroke-width="0.5" stroke-linecap="round" stroke-linejoin="round"/>
<path d="M356.605 290.062C356.605 290.062 356.293 300.604 356.444 303.911C356.569 306.006 356.993 308.073 357.704 310.049" stroke="white" stroke-width="0.5" stroke-linecap="round" stroke-linejoin="round"/>
<path d="M385.724 297.46L388.396 293.841L390.603 297.46H385.724Z" fill="white" stroke="#263238" stroke-miterlimit="10"/>
<path d="M388.869 262.827C388.869 262.827 391.54 262.515 392.175 266.456C392.81 270.397 390.915 275.426 384.616 275.426C378.316 275.426 378.8 270.699 378.951 267.242C379.102 263.785 388.869 262.827 388.869 262.827Z" fill="#263238" stroke="#263238" stroke-miterlimit="10"/>
<path d="M373.287 269.288C373.287 269.288 373.125 273.844 372.813 279.045C372.5 284.246 369.981 291.321 369.981 297.299C369.959 300.611 370.117 303.922 370.454 307.217C370.454 307.217 375.645 297.137 378.004 291.321C380.362 285.506 383.043 268.653 383.043 268.653L373.287 269.288Z" fill="white" stroke="#263238" stroke-miterlimit="10"/>
<path d="M388.708 258.936C389.88 256.641 390.527 254.114 390.603 251.538C390.603 247.607 389.817 242.255 385.251 239.887C380.685 237.518 371.865 239.1 369.668 243.666C368.185 246.585 367.49 249.841 367.652 253.111C367.811 254.878 368.18 256.621 368.751 258.301C368.751 258.301 369.386 255.278 373.629 253.746C377.873 252.214 382.449 250.591 384.646 251.73C386.843 252.869 388.708 258.936 388.708 258.936Z" fill="#263238" stroke="#263238" stroke-linecap="round" stroke-linejoin="round"/>
<path d="M368.882 257.324C368.882 257.324 366.987 254.491 366.201 256.538C365.415 258.584 366.523 261.577 367.773 262.202C369.023 262.827 369.668 262.515 369.668 262.515L368.882 257.324Z" fill="white" stroke="#263238" stroke-linecap="round" stroke-linejoin="round"/>
<path d="M388.708 257.797C388.708 257.797 390.915 255.59 390.915 257.636C390.804 259.535 390.099 261.351 388.899 262.827C387.952 264.087 387.478 263.462 387.478 263.462L388.708 257.797Z" fill="white" stroke="#263238" stroke-linecap="round" stroke-linejoin="round"/>
<path d="M384.969 248.736L386.531 244.331C386.592 244.159 386.583 243.969 386.504 243.804C386.426 243.638 386.285 243.511 386.113 243.45C385.94 243.388 385.75 243.398 385.585 243.476C385.42 243.554 385.292 243.695 385.231 243.868L383.92 247.547C382.542 247.221 381.111 247.18 379.716 247.426C378.321 247.672 376.99 248.2 375.806 248.978C371.714 251.659 368.408 254.018 368.408 254.018C368.408 254.018 368.569 262.988 370.293 266.294C372.017 269.6 375.02 273.531 377.54 273.531C380.06 273.531 384.465 268.028 386.198 266.294C387.932 264.561 389.031 257.797 389.031 255.59C389.031 254.008 386.43 250.56 384.969 248.736Z" fill="white" stroke="#263238" stroke-miterlimit="10"/>
<path d="M378.77 289.174C376.213 289.406 373.637 289.061 371.23 288.167C370.509 291.185 370.091 294.268 369.981 297.369C369.959 300.681 370.117 303.992 370.454 307.287C370.454 307.287 375.645 297.208 378.004 291.392C378.256 290.707 378.528 289.951 378.77 289.174Z" fill="#ED1C24" stroke="#263238" stroke-miterlimit="10"/>
</g>
<mask id="mask2_750_808" style="mask-type:luminance" maskUnits="userSpaceOnUse" x="276" y="229" width="62" height="80">
<path d="M337.293 229.051H276.424V308.92H337.293V229.051Z" fill="white"/>
</mask>
<g mask="url(#mask2_750_808)">
<path d="M304.374 265.175C300.359 265.631 296.372 266.304 292.43 267.191C287.824 268.381 285.606 268.895 285.606 271.112C285.606 273.329 285.092 282.885 283.591 287.158C282.089 291.432 280.345 297.57 280.345 299.788C280.345 302.005 283.591 311.389 283.591 311.389H289.557C289.557 311.389 287.34 300.463 287.34 299.445C287.34 298.427 290.414 289.366 290.414 289.366L290.586 311.722H321.832L321.499 290.384C321.499 290.384 324.22 299.092 324.22 300.624C324.22 302.156 323.212 312.236 323.212 312.236H329.139C329.139 312.236 332.042 301.148 331.871 297.218C331.699 293.287 328.847 280.829 328.464 277.059C328.081 273.289 330.338 271.253 326.246 268.693C322.154 266.133 312.76 264.601 310.714 264.429C308.581 264.472 306.458 264.721 304.374 265.175Z" fill="#ED1C24" stroke="#263238" stroke-miterlimit="10"/>
<path d="M290.384 289.416L290.898 280.879L289.013 274.398" stroke="#263238" stroke-linecap="round" stroke-linejoin="round"/>
<path d="M321.448 279.518V290.434" stroke="#263238" stroke-linecap="round" stroke-linejoin="round"/>
<path d="M321.61 282.593L324.341 278.49" stroke="#263238" stroke-linecap="round" stroke-linejoin="round"/>
<path d="M307.277 276.787L306.259 311.43" stroke="#263238" stroke-linecap="round" stroke-linejoin="round"/>
<path d="M306.763 261.083C305.244 261.166 303.8 261.768 302.671 262.787C300.796 264.5 300.111 271.152 300.111 271.152C300.111 271.152 306.088 269.449 307.106 269.137C308.124 268.824 317.185 270.84 317.185 270.84C317.185 270.84 316.338 264.873 313.95 262.313C311.561 259.753 306.763 261.083 306.763 261.083Z" fill="#263238" stroke="#263238" stroke-linecap="round" stroke-linejoin="round"/>
<path d="M304.374 255.62C304.374 255.62 305.745 257.636 305.745 263.684C305.745 269.731 306.42 275.97 307.277 276.787C308.134 277.603 311.712 268.723 311.712 264.692C311.78 262.026 312.423 259.406 313.597 257.011C313.597 257.011 309.323 254.108 307.106 253.766C306.5 253.671 305.881 253.81 305.374 254.155C304.867 254.499 304.51 255.023 304.374 255.62Z" fill="white" stroke="#263238" stroke-linecap="round" stroke-linejoin="round"/>
<path d="M306.017 270.336C306.289 273.652 306.753 276.263 307.277 276.787C307.801 277.311 309.444 273.985 310.573 270.417C309.06 270.631 307.522 270.603 306.017 270.336Z" fill="#263238" stroke="#263238" stroke-linecap="round" stroke-linejoin="round"/>
<path d="M314.786 239.241C314.786 239.241 315.794 239.584 317.689 237.871C319.584 236.157 318.697 232.922 317.86 233.607C317.326 234.043 316.864 234.56 316.489 235.139C316.159 234.14 315.549 233.257 314.733 232.592C313.917 231.928 312.928 231.511 311.883 231.39C308.305 231.047 304.031 235.996 304.031 235.996C304.031 235.996 296.19 241.802 297.036 246.408C297.883 251.014 302.328 255.106 304.374 255.62C306.42 256.134 310.18 252.385 309.494 249.139C308.809 245.894 308.305 241.076 309.494 240.602C311.231 240.049 312.998 239.595 314.786 239.241Z" fill="#263238" stroke="#263238" stroke-linecap="round" stroke-linejoin="round"/>
<path d="M304.031 252.888C304.031 252.888 301.139 250.873 300.453 252.385C299.768 253.896 301.31 256.648 303.185 257.495C305.059 258.341 306.763 255.62 306.763 255.62C306.763 255.62 312.74 260.398 316.842 260.569C320.944 260.74 321.116 257.495 320.43 251.356C319.745 245.218 317.699 240.43 316.167 238.727C314.635 237.024 308.658 238.556 306.773 240.088C304.888 241.62 303.749 242.991 305.584 243.333C307.418 243.676 309.162 244.341 307.458 246.236C305.755 248.131 304.898 247.426 305.442 248.796C305.987 250.167 308.174 251.528 306.128 252.213L304.031 252.888Z" fill="white" stroke="#263238" stroke-linecap="round" stroke-linejoin="round"/>
</g>
<mask id="mask3_750_808" style="mask-type:luminance" maskUnits="userSpaceOnUse" x="196" y="228" width="62" height="81">
<path d="M257.425 228.668H196.555V308.93H257.425V228.668Z" fill="white"/>
</mask>
<g mask="url(#mask3_750_808)">
<path d="M229.031 261.96C229.031 261.96 207.522 264.52 206.857 266.395C206.191 268.27 198.329 286.554 199.519 288.237C200.708 289.92 203.107 290.253 204.982 290.253C206.31 290.134 207.566 289.598 208.57 288.721L203.107 311.903H242.699L243.898 295.686C243.898 295.686 248.504 297.702 251.579 297.399C254.653 297.097 253.967 294.668 253.282 290.061C252.597 285.455 252.274 273.672 251.064 271.455C249.855 269.237 235.361 263.089 235.361 263.089L229.031 261.96Z" fill="#263238" stroke="#263238" stroke-linecap="round" stroke-linejoin="round"/>
<path d="M244.221 289.759V279.176L245.067 277.13" stroke="white" stroke-linecap="round" stroke-linejoin="round"/>
<path d="M209.739 280.879L211.453 273.713L211.11 272.181" stroke="white" stroke-linecap="round" stroke-linejoin="round"/>
<path d="M214.235 312.629C214.235 312.629 217.47 298.629 219.012 289.93C220.554 281.232 226.975 261.96 226.975 261.96L236.883 264.692C236.883 264.692 230.22 284.145 228.517 292.511C226.814 300.877 225.382 312.73 225.382 312.73L214.235 312.629Z" fill="#ED1C24" stroke="#263238" stroke-miterlimit="10"/>
<path d="M228.346 259.944C228.346 259.944 225.443 259.944 224.415 261.96C223.387 263.976 222.026 271.858 222.026 271.858C222.026 271.858 228.174 269.127 228.688 269.127C229.202 269.127 231.591 269.298 232.781 270.659C233.97 272.019 236.54 275.265 236.54 275.265C236.54 275.265 240.461 268.955 239.443 264.863C239.094 263.514 238.328 262.31 237.255 261.421C236.182 260.533 234.856 260.005 233.466 259.914L228.346 259.944Z" fill="#ED1C24" stroke="#263238" stroke-miterlimit="10"/>
<path d="M227.338 255.449C227.338 255.449 226.995 267.403 227.338 270.81C227.68 274.217 228.194 275.073 228.194 275.073C228.194 275.073 231.097 270.296 231.944 268.592C232.791 266.889 235.361 265.004 236.56 263.472C237.76 261.94 238.576 256.134 238.576 256.134C238.576 256.134 234.141 259.551 231.752 258.695C230.062 257.947 228.556 256.839 227.338 255.449Z" fill="white" stroke="#263238" stroke-linecap="round" stroke-linejoin="round"/>
<path d="M234.393 233.849C231.491 234.272 228.658 235.724 227.842 238.556C227.156 240.945 226.834 248.797 226.652 252.717C226.471 256.638 228.527 261.597 230.231 262.111C231.653 262.616 233.183 262.734 234.666 262.454C235.522 262.111 239.453 256.82 240.471 255.792C241.489 254.764 244.563 245.208 244.563 241.802C244.639 240.121 244.163 238.462 243.21 237.076C242.257 235.69 240.878 234.652 239.282 234.121C237.689 233.689 236.024 233.596 234.393 233.849Z" fill="white" stroke="#263238" stroke-linecap="round" stroke-linejoin="round"/>
<path d="M242.85 249.865C242.85 249.865 245.581 247.466 244.866 250.54C244.646 251.459 244.227 252.318 243.638 253.056C243.049 253.795 242.305 254.395 241.459 254.814L242.85 249.865Z" fill="white" stroke="#263238" stroke-linecap="round" stroke-linejoin="round"/>
<path d="M226.975 246.579C226.975 246.579 224.959 244.705 224.959 247.265C225.037 248.941 225.636 250.551 226.672 251.871L226.975 246.579Z" fill="white" stroke="#263238" stroke-linecap="round" stroke-linejoin="round"/>
<path d="M242.85 249.865C243.735 247.254 244.307 244.547 244.553 241.802C244.628 240.121 244.153 238.462 243.2 237.076C242.247 235.69 240.868 234.652 239.272 234.121C237.679 233.689 236.014 233.596 234.383 233.849C231.48 234.272 228.648 235.724 227.832 238.556C227.306 241.381 227 244.242 226.914 247.113C227.781 246.438 229.585 244.785 229.202 242.82C228.688 240.259 227.66 239.07 229.535 237.871C231.41 236.671 233.637 238.385 236.712 239.413C239.786 240.441 242.85 239.07 243.707 239.917C244.563 240.763 240.975 244.362 241.489 245.722C242.003 247.083 243.193 248.625 242.85 249.825V249.865Z" fill="#263238" stroke="#263238" stroke-linecap="round" stroke-linejoin="round"/>
<path d="M218.266 282.593C218.266 282.593 215.706 279.004 214.003 278.833C212.299 278.662 208.197 282.593 208.197 282.593H218.266Z" fill="white" stroke="#263238" stroke-linecap="round" stroke-linejoin="round"/>
<path d="M234.484 282.925H236.883L237.387 287.713L234.827 287.028L234.484 282.925Z" fill="white" stroke="#263238" stroke-linecap="round" stroke-linejoin="round"/>
<path d="M236.883 282.925L241.146 284.81L242.165 290.102L237.387 287.713L236.883 282.925Z" fill="white" stroke="#263238" stroke-linecap="round" stroke-linejoin="round"/>
<path d="M250.52 292.198L226.118 282.643C224.712 283.334 223.392 284.19 222.187 285.193C221.475 285.909 220.949 286.788 220.655 287.753C220.655 287.753 232.256 296.119 237.891 298.679C243.525 301.239 251.72 302.096 253.08 300.695C254.441 299.294 254.088 294.043 253.252 293.186C252.799 292.72 252.284 292.319 251.72 291.997" fill="#263238"/>
<path d="M250.52 292.198L226.118 282.643C224.712 283.334 223.392 284.19 222.187 285.193C221.475 285.909 220.949 286.788 220.655 287.753C220.655 287.753 232.256 296.119 237.891 298.679C243.525 301.239 251.72 302.096 253.08 300.695C254.441 299.294 254.088 294.043 253.252 293.186C252.799 292.72 252.284 292.319 251.72 291.997" stroke="#263238" stroke-linecap="round" stroke-linejoin="round"/>
<path d="M234.484 282.119L234.827 287.068C234.827 287.068 216.906 291.16 210.253 292.36C203.601 293.559 200.013 292.692 198.995 289.628C197.977 286.564 201.383 282.794 202.916 281.948C204.448 281.101 234.484 282.119 234.484 282.119Z" fill="#263238" stroke="#263238" stroke-linecap="round" stroke-linejoin="round"/>
</g>
<mask id="mask4_750_808" style="mask-type:luminance" maskUnits="userSpaceOnUse" x="135" y="229" width="55" height="80">
<path d="M189.187 229.051H135.293V308.92H189.187V229.051Z" fill="white"/>
</mask>
<g mask="url(#mask4_750_808)">
<path d="M168.565 270.417C168.565 270.417 175.399 272.12 178.13 272.977C180.862 273.834 181.708 274.852 181.708 276.898C181.708 278.944 180.176 287.985 180.176 289.356V298.578C180.176 301.139 182.737 310.522 182.737 310.522H149.475C149.475 310.522 145.725 296.19 143.165 288.348C140.605 280.506 140.262 277.765 142.822 276.565C148.908 274.335 155.117 272.457 161.419 270.941C163.786 270.599 166.174 270.424 168.565 270.417Z" fill="#ED1C24" stroke="#263238" stroke-miterlimit="10"/>
<path d="M178.473 281.676C178.473 281.676 180.489 291.069 179.834 294.476C179.179 297.883 174.542 310.865 174.542 310.865" stroke="#263238" stroke-linecap="round" stroke-linejoin="round"/>
<path d="M142.802 276.555C142.802 276.555 139.778 277.069 140.585 281C141.391 284.931 137.511 310.341 137.511 310.341H145.02C145.02 310.341 150.14 296.855 150.987 293.619C151.833 290.384 152.529 287.814 150.987 285.082" fill="#ED1C24"/>
<path d="M142.802 276.555C142.802 276.555 139.778 277.069 140.585 281C141.391 284.931 137.511 310.341 137.511 310.341H145.02C145.02 310.341 150.14 296.855 150.987 293.619C151.833 290.384 152.529 287.814 150.987 285.082" stroke="#263238" stroke-miterlimit="10"/>
<path d="M174.603 253.796L175.721 288.56H165.632V256.79L174.603 253.796Z" fill="#263238" stroke="#263238" stroke-linecap="round" stroke-linejoin="round"/>
<path d="M161.57 278.783C161.57 278.783 164.473 291.886 165.672 295.847C166.872 299.808 167.033 308.95 166.68 310.18C166.327 311.41 170.944 310.18 170.944 310.18C170.944 310.18 172.143 301.108 172.829 295.847C173.514 290.586 171.458 280.658 171.458 280.658L169.24 271.949L160.875 273.491L161.57 278.783Z" fill="white" stroke="#263238" stroke-linecap="round" stroke-linejoin="round"/>
<path d="M168.878 264.44C168.402 267.157 168.46 269.94 169.049 272.634C170.057 276.394 172.809 283.218 170.42 285.092C168.031 286.967 164.785 285.949 163.082 282.532C161.379 279.115 159.836 270.588 159.836 263.593C159.836 256.598 160.522 255.399 162.911 255.399C165.299 255.399 168.878 264.44 168.878 264.44Z" fill="white" stroke="#263238" stroke-linecap="round" stroke-linejoin="round"/>
<path d="M163.959 261.204C162.424 262.539 160.619 263.525 158.667 264.097C156.107 264.611 154.746 257.787 154.404 250.994C154.061 244.2 155.774 240.411 159.353 238.707C162.931 237.004 171.639 237.851 175.056 239.211C178.473 240.572 182.565 242.799 182.565 246.378C182.565 249.956 177.949 252.889 176.588 253.695C175.227 254.502 171.982 255.711 169.936 257.787C168.168 259.28 166.142 260.438 163.959 261.204Z" fill="#263238" stroke="#263238" stroke-linecap="round" stroke-linejoin="round"/>
<path d="M163.959 261.204C163.959 261.204 165.975 266.325 169.764 266.486C173.554 266.647 177.828 257.959 177.959 254.199C178.09 250.439 174.199 243.958 174.199 243.958C174.199 243.958 167.547 259.148 163.959 261.204Z" fill="white" stroke="#263238" stroke-linecap="round" stroke-linejoin="round"/>
<path d="M162.941 253.524L163.273 290.384H151.844L154.404 247.547" fill="#263238"/>
<path d="M162.941 253.524L163.273 290.384H151.844L154.404 247.547" stroke="#263238" stroke-linecap="round" stroke-linejoin="round"/>
</g>
</svg>
