<svg width="46" height="46" viewBox="0 0 46 46" fill="none" xmlns="http://www.w3.org/2000/svg">
<path d="M42.9875 4.525H40.725V2.2625C40.725 1.01202 39.7119 0 38.4625 0C37.2132 0 36.2 1.01202 36.2 2.2625V5.69584C34.947 6.63116 33.7382 7.61015 32.5639 8.6242C29.1586 6.06282 24.9418 4.525 20.3625 4.525C9.13507 4.525 0 13.6589 0 24.8875C0 36.1161 9.13507 45.25 20.3625 45.25C31.5899 45.25 40.725 36.1161 40.725 24.8875C40.725 20.308 39.1872 16.0911 36.6258 12.6861C37.6399 11.5118 38.6188 10.303 39.5542 9.05H42.9875C44.2369 9.05 45.25 8.03798 45.25 6.7875C45.25 5.53702 44.2369 4.525 42.9875 4.525ZM36.2 24.8875C36.2 33.6194 29.0955 40.725 20.3625 40.725C11.6295 40.725 4.525 33.6194 4.525 24.8875C4.525 16.1556 11.6295 9.05 20.3625 9.05C23.6108 9.05 26.6317 10.0358 29.1476 11.72C28.4894 12.346 27.8349 12.9757 27.1878 13.6128C26.7215 14.0809 26.2645 14.5581 25.8045 15.0323C24.1825 14.1325 22.3451 13.575 20.3625 13.575C14.1252 13.575 9.05 18.6502 9.05 24.8875C9.05 31.1248 14.1252 36.2 20.3625 36.2C26.5998 36.2 31.675 31.1248 31.675 24.8875C31.675 22.9049 31.1175 21.0675 30.2175 19.4455C30.6919 18.9855 31.1691 18.5285 31.637 18.0622C32.2741 17.4151 32.9038 16.7606 33.5298 16.1022C35.2142 18.6183 36.2 21.6395 36.2 24.8875ZM27.15 24.8875C27.15 28.6304 24.1054 31.675 20.3625 31.675C16.6196 31.675 13.575 28.6304 13.575 24.8875C13.575 21.1446 16.6196 18.1 20.3625 18.1C21.1449 18.1 21.8849 18.2597 22.585 18.5043C21.2444 20.0324 19.9573 21.6139 18.7627 23.2877C18.2115 24.0626 18.1792 25.1352 18.7627 25.9527C19.4987 26.9837 20.9311 27.2231 21.9623 26.4873C23.6361 25.2927 25.2176 24.0056 26.7457 22.665C26.9903 23.3651 27.15 24.1051 27.15 24.8875Z" fill="#ED1C24"/>
</svg>
