<svg width="43" height="34" viewBox="0 0 43 34" fill="none" xmlns="http://www.w3.org/2000/svg">
<path d="M42.3244 16.145C38.0332 6.18184 29.9607 0 21.2509 0C12.541 0 4.46853 6.18184 0.17735 16.145C0.060377 16.413 0 16.7023 0 16.9948C0 17.2872 0.060377 17.5765 0.17735 17.8445C4.46853 27.8077 12.541 33.9895 21.2509 33.9895C29.9607 33.9895 38.0332 27.8077 42.3244 17.8445C42.4413 17.5765 42.5017 17.2872 42.5017 16.9948C42.5017 16.7023 42.4413 16.413 42.3244 16.145ZM21.2509 29.7408C14.5167 29.7408 8.14364 24.8761 4.46853 16.9948C8.14364 9.11344 14.5167 4.24869 21.2509 4.24869C27.985 4.24869 34.3581 9.11344 38.0332 16.9948C34.3581 24.8761 27.985 29.7408 21.2509 29.7408ZM21.2509 8.49738C19.5702 8.49738 17.9273 8.99574 16.53 9.92945C15.1326 10.8632 14.0434 12.1903 13.4003 13.743C12.7572 15.2956 12.5889 17.0042 12.9167 18.6525C13.2446 20.3008 14.0539 21.8149 15.2423 23.0033C16.4307 24.1917 17.9448 25.001 19.5931 25.3289C21.2414 25.6567 22.95 25.4885 24.5027 24.8453C26.0554 24.2022 27.3825 23.113 28.3162 21.7157C29.2499 20.3183 29.7482 18.6754 29.7482 16.9948C29.7482 14.7411 28.853 12.5798 27.2594 10.9862C25.6658 9.39264 23.5045 8.49738 21.2509 8.49738ZM21.2509 21.2435C20.4105 21.2435 19.5891 20.9943 18.8904 20.5274C18.1917 20.0606 17.6471 19.397 17.3256 18.6207C17.004 17.8443 16.9199 16.99 17.0838 16.1659C17.2477 15.3417 17.6524 14.5847 18.2466 13.9905C18.8408 13.3963 19.5978 12.9916 20.422 12.8277C21.2461 12.6638 22.1004 12.7479 22.8768 13.0695C23.6531 13.3911 24.3167 13.9356 24.7835 14.6343C25.2504 15.333 25.4995 16.1544 25.4995 16.9948C25.4995 18.1216 25.0519 19.2023 24.2551 19.999C23.4583 20.7958 22.3777 21.2435 21.2509 21.2435Z" fill="#ED1C24"/>
</svg>
