<svg width="222" height="48" viewBox="0 0 222 48" fill="none" xmlns="http://www.w3.org/2000/svg">
<g clip-path="url(#clip0_324_1890)">
<path d="M78.3324 23.5194H75.3132V12.6957H71.2373V10.1294H82.4234V12.6957H78.3324V23.5194Z" fill="#575757"/>
<path d="M95.6926 23.5194H92.2658L90.1373 19.7002H87.0578V23.5194H84.0386V10.1294H89.8505C90.8619 10.1294 91.7979 10.2804 92.6281 10.5974C93.4584 10.9144 94.1226 11.4125 94.6359 12.107C95.1039 12.7863 95.3454 13.6769 95.3454 14.7789C95.3454 16.832 94.5151 18.2812 92.8395 19.0963L95.6926 23.5194ZM89.8656 17.1641C91.6167 17.1641 92.4923 16.3942 92.4923 14.8695C92.4923 13.3448 91.6167 12.6353 89.8656 12.6353H87.0728V17.1641H89.8656Z" fill="#575757"/>
<path d="M108.298 23.5194H97.897V10.1294H108.087V12.6353H100.916V15.5488H107.362V18.0547H100.916V21.0135H108.298V23.5194Z" fill="#575757"/>
<path d="M122.79 23.5194H120.043L113.551 14.9148V23.5194H110.668V10.1294H113.415L119.922 18.7793V10.1294H122.79V23.5194Z" fill="#575757"/>
<path d="M131.304 23.5194H125.733V10.1294H131.409C133.478 10.1294 135.168 10.7483 136.482 12.0013C137.795 13.2391 138.444 14.8544 138.444 16.832C138.444 18.8095 137.78 20.4097 136.451 21.6476C135.123 22.9005 133.402 23.5194 131.289 23.5194H131.304ZM131.5 20.9682C131.983 20.9682 132.451 20.8928 132.919 20.7267C133.387 20.5606 133.795 20.3191 134.172 19.987C134.534 19.6549 134.836 19.2322 135.063 18.7039C135.289 18.1755 135.395 17.5566 135.395 16.832C135.395 15.5639 135.002 14.5374 134.202 13.7977C133.417 13.0429 132.466 12.6655 131.364 12.6655H128.768V20.9682H131.5Z" fill="#575757"/>
<path d="M143.471 23.5194H140.452V10.1294H150.068V12.6353H143.471V15.9262H149.51V18.4472H143.471V23.5194Z" fill="#575757"/>
<path d="M157.978 23.7308C155.955 23.7308 154.249 23.0665 152.861 21.7532C151.472 20.4399 150.777 18.7793 150.777 16.8018C150.777 14.8242 151.457 13.1787 152.83 11.8805C154.204 10.5672 155.91 9.91803 157.963 9.91803C160.016 9.91803 161.737 10.5822 163.111 11.8956C164.469 13.2089 165.164 14.8544 165.164 16.8018C165.164 18.7491 164.484 20.4248 163.111 21.7532C161.737 23.0816 160.031 23.7308 157.978 23.7308ZM158.023 21.089C158.537 21.089 159.035 20.9984 159.518 20.8173C160.001 20.6361 160.439 20.3644 160.816 20.0021C161.194 19.6398 161.511 19.202 161.737 18.6585C161.963 18.1151 162.084 17.5113 162.084 16.8018C162.084 15.896 161.888 15.1261 161.511 14.5072C161.133 13.8882 160.635 13.4052 160.016 13.058C159.397 12.7259 158.748 12.5447 158.023 12.5447C156.952 12.5447 156.001 12.9372 155.155 13.7373C154.31 14.5374 153.887 15.5488 153.887 16.8018C153.887 18.0547 154.295 19.0963 155.125 19.8964C155.955 20.6965 156.921 21.089 158.008 21.089H158.023Z" fill="#575757"/>
<path d="M178.811 23.5194H175.384L173.255 19.7002H170.176V23.5194H167.157V10.1294H172.969C173.98 10.1294 174.916 10.2804 175.746 10.5974C176.577 10.9144 177.241 11.4125 177.754 12.107C178.222 12.7863 178.464 13.6769 178.464 14.7789C178.464 16.832 177.633 18.2812 175.958 19.0963L178.811 23.5194ZM172.984 17.1641C174.735 17.1641 175.61 16.3942 175.61 14.8695C175.61 13.3448 174.735 12.6353 172.984 12.6353H170.191V17.1641H172.984Z" fill="#575757"/>
<path d="M187.083 23.7308C185.075 23.7308 183.4 23.0665 182.056 21.7532C180.713 20.4399 180.063 18.7793 180.063 16.7867C180.063 14.794 180.743 13.224 182.101 11.8956C183.46 10.5672 185.166 9.91803 187.204 9.91803C189.242 9.91803 190.948 10.6577 192.487 12.1522L190.721 14.3109C189.649 13.1335 188.487 12.5447 187.234 12.5447C186.102 12.5447 185.136 12.9372 184.351 13.7071C183.566 14.477 183.158 15.4884 183.158 16.7414C183.158 17.2697 183.249 17.783 183.415 18.2962C183.581 18.7944 183.837 19.2473 184.185 19.6549C184.517 20.0625 184.939 20.3795 185.453 20.621C185.966 20.8625 186.555 20.9833 187.234 20.9833C188.427 20.9833 189.589 20.455 190.721 19.3982L192.502 21.3305C190.827 22.9307 189.03 23.7459 187.083 23.7459V23.7308Z" fill="#575757"/>
<path d="M204.7 23.5194H194.299V10.1294H204.489V12.6353H197.318V15.5488H203.764V18.0547H197.318V21.0135H204.7V23.5194Z" fill="#575757"/>
<path d="M212.519 23.7156H209.244V18.266H210.165V22.8853H212.519V23.7156Z" fill="#575757"/>
<path d="M216.671 23.7156H213.395V18.266H214.316V22.8853H216.671V23.7156Z" fill="#575757"/>
<path d="M219.886 23.7911C219.086 23.7911 218.422 23.5194 217.879 22.9759C217.335 22.4325 217.063 21.7683 217.063 20.9833C217.063 20.1983 217.335 19.5341 217.894 19.0057C218.452 18.4774 219.132 18.2056 219.932 18.2056C220.732 18.2056 221.396 18.4924 222 19.0661L221.456 19.7303C220.988 19.2623 220.49 19.0359 219.932 19.0359C219.373 19.0359 218.92 19.2171 218.543 19.5794C218.165 19.9417 217.984 20.4096 217.984 20.9833C217.984 21.2399 218.03 21.4663 218.12 21.7079C218.211 21.9343 218.332 22.1457 218.498 22.3268C218.664 22.508 218.875 22.6589 219.117 22.7646C219.358 22.8703 219.63 22.9306 219.932 22.9306C220.475 22.9306 220.988 22.7193 221.456 22.2815L222 22.8853C221.366 23.4892 220.671 23.7911 219.886 23.7911Z" fill="#575757"/>
<path d="M76.6416 37.6341C75.298 37.6341 74.1356 37.1661 73.1846 36.2301C72.2336 35.2942 71.7505 34.162 71.7505 32.8185C71.7505 31.4749 72.2336 30.3126 73.1997 29.4068C74.1658 28.5011 75.3282 28.0331 76.6717 28.0331C78.0153 28.0331 79.1173 28.5011 80.1287 29.4219L79.4796 30.2069C78.6644 29.4219 77.7285 29.0143 76.6868 29.0143C75.6452 29.0143 74.6791 29.3766 73.9545 30.1163C73.2299 30.856 72.8525 31.7467 72.8525 32.8185C72.8525 33.8903 73.2299 34.796 73.9847 35.5206C74.7395 36.2452 75.6452 36.6226 76.6868 36.6226C77.7285 36.6226 78.6644 36.2452 79.4796 35.4753L80.1438 36.1849C79.1173 37.151 77.9398 37.6341 76.6416 37.6341Z" fill="#BE1E2D"/>
<path d="M91.6919 37.5887C90.6201 37.5887 89.7597 37.2566 89.0954 36.5923C88.4312 35.9281 88.0991 35.0526 88.0991 33.9959C88.0991 32.9391 88.4463 32.0485 89.1256 31.3994C89.805 30.7502 90.6654 30.4332 91.707 30.4332C92.1599 30.4332 92.5977 30.5087 93.0355 30.6446C93.4582 30.7804 93.8507 31.0069 94.1979 31.3088C94.5451 31.5956 94.8168 31.973 95.013 32.4259C95.2093 32.8788 95.3149 33.4071 95.3149 34.011C95.3149 34.7808 95.1489 35.43 94.8168 35.9583C94.4394 36.5471 93.9714 36.9697 93.428 37.2264C92.8845 37.483 92.3109 37.6189 91.707 37.6189L91.6919 37.5887ZM91.6919 36.6678C92.1146 36.6678 92.5071 36.5773 92.8996 36.3961C93.2921 36.215 93.6091 35.9281 93.8808 35.5205C94.1224 35.128 94.2431 34.6299 94.2431 34.011C94.2431 33.2713 94.0167 32.6523 93.5638 32.124C93.111 31.6107 92.492 31.3541 91.6919 31.3541C90.8919 31.3541 90.2729 31.6107 89.8201 32.124C89.3672 32.6372 89.1407 33.2713 89.1407 34.011C89.1407 34.6299 89.2615 35.128 89.4879 35.5205C89.7295 35.913 90.0314 36.1999 90.4239 36.3961C90.8013 36.5923 91.224 36.6829 91.6919 36.6829V36.6678Z" fill="#BE1E2D"/>
<path d="M110.637 37.5585H109.58V33.4675C109.58 32.7882 109.399 32.275 109.007 31.9429C108.629 31.6107 108.146 31.4447 107.558 31.4447C106.773 31.49 106.199 31.7164 105.806 32.1391C105.429 32.5618 105.218 33.1052 105.172 33.7695V37.5736H104.116V30.4786H105.172V32.0485C105.701 30.9767 106.622 30.4484 107.92 30.4484C108.554 30.4484 109.067 30.5691 109.475 30.8107C109.867 31.0522 110.154 31.3843 110.35 31.7919C110.531 32.2146 110.622 32.6826 110.622 33.2109V37.5736L110.637 37.5585Z" fill="#BE1E2D"/>
<path d="M121.778 37.5887C120.721 37.5887 119.815 37.2566 119.061 36.5924L119.468 35.8225C120.178 36.4264 120.963 36.7283 121.823 36.7283C122.231 36.7283 122.578 36.6528 122.85 36.4867C123.136 36.3207 123.302 36.0641 123.348 35.6867C123.348 35.0828 122.789 34.645 121.657 34.3733C121.083 34.2224 120.57 34.011 120.132 33.7393C119.695 33.4676 119.453 32.9845 119.423 32.3203C119.423 31.8674 119.544 31.49 119.77 31.2032C120.012 30.9164 120.313 30.705 120.691 30.5842C121.068 30.4635 121.461 30.388 121.883 30.388C122.744 30.388 123.499 30.5993 124.148 31.0371L123.74 31.8523C123.121 31.4749 122.472 31.2787 121.808 31.2787C120.872 31.2787 120.404 31.5957 120.404 32.2297C120.404 32.5165 120.54 32.7581 120.797 32.9392C121.053 33.1204 121.476 33.2864 122.05 33.4223C122.367 33.5128 122.638 33.6034 122.88 33.7091C123.121 33.8148 123.348 33.9204 123.589 34.0563C124.118 34.3884 124.374 34.8866 124.374 35.5508C124.374 36.0188 124.254 36.4113 124.012 36.6981C123.755 37 123.423 37.2264 123.031 37.3623C122.638 37.4982 122.216 37.5585 121.778 37.5585V37.5887Z" fill="#BE1E2D"/>
<path d="M135.531 37.5887C134.912 37.5887 134.399 37.4679 134.021 37.2113C133.614 36.9396 133.327 36.6075 133.146 36.1848C132.965 35.7621 132.874 35.3092 132.874 34.8261V30.4634H133.931V34.5544C133.931 35.2035 134.112 35.7168 134.474 36.064C134.836 36.4112 135.304 36.5773 135.893 36.5773C136.708 36.5018 137.297 36.215 137.675 35.7319C138.037 35.2337 138.233 34.645 138.233 33.9355V30.4634H139.29V37.5585H138.233V35.9583C137.735 37.0603 136.829 37.6038 135.531 37.6038V37.5887Z" fill="#BE1E2D"/>
<path d="M150.189 37.5887C149.812 37.5887 149.479 37.4529 149.177 37.1963C148.876 36.9396 148.725 36.4867 148.725 35.8527V27.55H149.766V35.732C149.766 36.3207 149.993 36.6226 150.446 36.6226C150.702 36.6226 150.944 36.5169 151.2 36.3207L151.397 37.1661C151.004 37.4378 150.597 37.5887 150.204 37.5887H150.189Z" fill="#BE1E2D"/>
<path d="M161.842 37.5888C161.344 37.5888 160.906 37.4378 160.559 37.1359C160.212 36.834 160.031 36.3207 160.031 35.581V31.49H159.004V30.6748H160.031V28.8181H161.073V30.6748H163.322V31.49H161.073V35.3999C161.073 36.215 161.374 36.6075 161.978 36.6075C162.341 36.6075 162.733 36.4868 163.156 36.2452L163.458 37.0604C162.96 37.4076 162.431 37.5888 161.858 37.5888H161.842Z" fill="#BE1E2D"/>
<path d="M172.561 29.135C172.334 29.135 172.153 29.0596 172.047 28.9086C171.927 28.7576 171.881 28.5916 171.881 28.4255C171.881 28.2293 171.942 28.0632 172.063 27.9123C172.183 27.7613 172.349 27.7009 172.561 27.7009C172.772 27.7009 172.938 27.7764 173.059 27.9123C173.18 28.0481 173.24 28.2293 173.24 28.4255C173.24 28.6067 173.18 28.7576 173.074 28.9086C172.953 29.0596 172.787 29.135 172.561 29.135ZM173.089 37.5434H172.047V30.4484H173.089V37.5434Z" fill="#BE1E2D"/>
<path d="M189.151 37.5585H188.095V33.4675C188.095 32.7882 187.913 32.275 187.521 31.9429C187.144 31.6107 186.66 31.4447 186.072 31.4447C185.287 31.49 184.713 31.7164 184.321 32.1391C183.943 32.5618 183.732 33.1052 183.687 33.7695V37.5736H182.63V30.4786H183.687V32.0485C184.215 30.9767 185.136 30.4484 186.434 30.4484C187.068 30.4484 187.581 30.5691 187.989 30.8107C188.381 31.0522 188.668 31.3843 188.864 31.7919C189.046 32.2146 189.136 32.6826 189.136 33.2109V37.5736L189.151 37.5585Z" fill="#BE1E2D"/>
<path d="M201.137 40.2003C200.095 40.2003 199.129 39.8531 198.223 39.1587L198.707 38.3888C199.401 38.9927 200.201 39.2946 201.092 39.2946C201.816 39.2946 202.42 39.0833 202.918 38.6757C203.416 38.2681 203.658 37.6491 203.658 36.834V35.7622C203.115 36.7434 202.254 37.2416 201.046 37.2416C200.11 37.2416 199.341 36.9396 198.722 36.3207C198.103 35.7018 197.801 34.8715 197.801 33.8148C197.801 32.7581 198.088 31.9429 198.676 31.3693C199.265 30.7956 200.035 30.4786 201.016 30.4182C202.254 30.4333 203.13 30.9315 203.658 31.8976V30.4484H204.715V36.8038C204.715 37.5586 204.564 38.1926 204.247 38.6908C203.9 39.2191 203.462 39.5965 202.918 39.838C202.375 40.0796 201.786 40.2003 201.152 40.2003H201.137ZM201.228 36.3811C202.013 36.3811 202.616 36.1245 203.024 35.6263C203.447 35.1281 203.658 34.5243 203.658 33.845C203.658 33.1053 203.432 32.5014 202.979 32.0184C202.526 31.5353 201.937 31.2938 201.228 31.2938C200.458 31.2938 199.854 31.5353 199.446 32.0033C199.039 32.4713 198.812 33.0902 198.782 33.845C198.812 34.5847 199.024 35.1885 199.446 35.6716C199.854 36.1546 200.458 36.3811 201.228 36.3811Z" fill="#BE1E2D"/>
<path d="M24.8177 47.8539C24.5762 47.8539 24.395 47.8539 24.2289 47.8539H24.1837C24.1837 47.8539 24.1384 47.8539 24.1233 47.8539H24.0931H24.0629C23.9421 47.8539 23.7912 47.8539 23.6402 47.8237H23.61H23.5798C23.5798 47.8237 23.5647 47.8237 23.5496 47.8237H23.5194H23.4893C23.2024 47.7935 22.9307 47.7633 22.6892 47.718L22.508 47.6878C19.4888 47.2048 16.6659 45.8008 14.4619 43.6874C15.6847 44.1252 16.9829 44.3667 18.3567 44.3667C24.6063 44.3667 29.7389 39.2945 29.7993 33.0448C29.7993 32.9995 29.7993 32.9694 29.7993 32.9241V29.8143H29.7691V19.8812H54.7679V29.8143H39.7022V32.9844C39.7022 39.2794 35.7169 44.9253 29.7842 47.0236C28.9087 47.3406 28.018 47.5671 27.1274 47.7029L26.9462 47.7331C26.7349 47.7633 26.4329 47.8086 26.1461 47.8388H26.1159H26.0857C26.0857 47.8388 26.0857 47.8388 26.0706 47.8388H26.0405H26.0103C25.8593 47.8388 25.7083 47.869 25.5876 47.869H25.5574H25.5272C25.5121 47.869 25.4819 47.869 25.4668 47.869H25.4215C25.2555 47.869 25.0743 47.869 24.8328 47.869L24.8177 47.8539Z" fill="#BE1E2D"/>
<path d="M59.6141 0H29.7695V9.93309H59.6141V0Z" fill="#ED1C24"/>
<path d="M25.1648 37.8605C24.9082 38.2228 24.6063 38.5549 24.2893 38.887C22.7042 40.457 20.5908 41.3325 18.3566 41.3325C13.7222 41.3325 9.93309 37.5585 9.93309 32.9241V19.8662H0V9.94818H9.91799V0H19.836V32.8939C19.836 35.6414 22.0551 37.8605 24.8025 37.8605C24.9233 37.8605 25.029 37.8605 25.1346 37.8605H25.1648Z" fill="#ED1C24"/>
</g>
<defs>
<clipPath id="clip0_324_1890">
<rect width="222" height="47.8539" fill="white"/>
</clipPath>
</defs>
</svg>
