<svg width="148" height="32" viewBox="0 0 148 32" fill="none" xmlns="http://www.w3.org/2000/svg">
<g clip-path="url(#clip0_0_297)">
<path d="M51.8899 15.58H49.8899V8.41002H47.1899V6.71002H54.5999V8.41002H51.8899V15.58Z" fill="white"/>
<path d="M63.3899 15.58H61.1199L59.7099 13.05H57.6699V15.58H55.6699V6.71002H59.5199C60.1899 6.71002 60.8099 6.81002 61.3599 7.02002C61.9099 7.23002 62.3499 7.56002 62.6899 8.02002C62.9999 8.47002 63.1599 9.06002 63.1599 9.79002C63.1599 11.15 62.6099 12.11 61.4999 12.65L63.3899 15.58ZM59.5299 11.37C60.6899 11.37 61.2699 10.86 61.2699 9.85002C61.2699 8.84002 60.6899 8.37002 59.5299 8.37002H57.6799V11.37H59.5299Z" fill="white"/>
<path d="M71.7399 15.58H64.8499V6.71002H71.5999V8.37002H66.8499V10.3H71.1199V11.96H66.8499V13.92H71.7399V15.58Z" fill="white"/>
<path d="M81.3401 15.58H79.5201L75.2201 9.88002V15.58H73.3101V6.71002H75.1301L79.4401 12.44V6.71002H81.3401V15.58Z" fill="white"/>
<path d="M86.98 15.58H83.29V6.71002H87.05C88.42 6.71002 89.54 7.12002 90.41 7.95002C91.28 8.77002 91.71 9.84002 91.71 11.15C91.71 12.46 91.27 13.52 90.39 14.34C89.51 15.17 88.37 15.58 86.97 15.58H86.98ZM87.11 13.89C87.43 13.89 87.74 13.84 88.05 13.73C88.36 13.62 88.63 13.46 88.88 13.24C89.12 13.02 89.32 12.74 89.47 12.39C89.62 12.04 89.69 11.63 89.69 11.15C89.69 10.31 89.43 9.63002 88.9 9.14002C88.38 8.64002 87.75 8.39002 87.02 8.39002H85.3V13.89H87.11Z" fill="white"/>
<path d="M95.04 15.58H93.04V6.71002H99.41V8.37002H95.04V10.55H99.04V12.22H95.04V15.58Z" fill="white"/>
<path d="M104.65 15.72C103.31 15.72 102.18 15.28 101.26 14.41C100.34 13.54 99.8799 12.44 99.8799 11.13C99.8799 9.82001 100.33 8.73001 101.24 7.87001C102.15 7.00001 103.28 6.57001 104.64 6.57001C106 6.57001 107.14 7.01001 108.05 7.88001C108.95 8.75001 109.41 9.84001 109.41 11.13C109.41 12.42 108.96 13.53 108.05 14.41C107.14 15.29 106.01 15.72 104.65 15.72ZM104.68 13.97C105.02 13.97 105.35 13.91 105.67 13.79C105.99 13.67 106.28 13.49 106.53 13.25C106.78 13.01 106.99 12.72 107.14 12.36C107.29 12 107.37 11.6 107.37 11.13C107.37 10.53 107.24 10.02 106.99 9.61001C106.74 9.20001 106.41 8.88001 106 8.65001C105.59 8.43001 105.16 8.31001 104.68 8.31001C103.97 8.31001 103.34 8.57001 102.78 9.10001C102.22 9.63001 101.94 10.3 101.94 11.13C101.94 11.96 102.21 12.65 102.76 13.18C103.31 13.71 103.95 13.97 104.67 13.97H104.68Z" fill="white"/>
<path d="M118.45 15.58H116.18L114.77 13.05H112.73V15.58H110.73V6.71002H114.58C115.25 6.71002 115.87 6.81002 116.42 7.02002C116.97 7.23002 117.41 7.56002 117.75 8.02002C118.06 8.47002 118.22 9.06002 118.22 9.79002C118.22 11.15 117.67 12.11 116.56 12.65L118.45 15.58ZM114.59 11.37C115.75 11.37 116.33 10.86 116.33 9.85002C116.33 8.84002 115.75 8.37002 114.59 8.37002H112.74V11.37H114.59Z" fill="white"/>
<path d="M123.93 15.72C122.6 15.72 121.49 15.28 120.6 14.41C119.71 13.54 119.28 12.44 119.28 11.12C119.28 9.80001 119.73 8.76001 120.63 7.88001C121.53 7.00001 122.66 6.57001 124.01 6.57001C125.36 6.57001 126.49 7.06001 127.51 8.05001L126.34 9.48001C125.63 8.70001 124.86 8.31001 124.03 8.31001C123.28 8.31001 122.64 8.57001 122.12 9.08001C121.6 9.59001 121.33 10.26 121.33 11.09C121.33 11.44 121.39 11.78 121.5 12.12C121.61 12.45 121.78 12.75 122.01 13.02C122.23 13.29 122.51 13.5 122.85 13.66C123.19 13.82 123.58 13.9 124.03 13.9C124.82 13.9 125.59 13.55 126.34 12.85L127.52 14.13C126.41 15.19 125.22 15.73 123.93 15.73V15.72Z" fill="white"/>
<path d="M135.6 15.58H128.71V6.71002H135.46V8.37002H130.71V10.3H134.98V11.96H130.71V13.92H135.6V15.58Z" fill="white"/>
<path d="M140.78 15.71H138.61V12.1H139.22V15.16H140.78V15.71Z" fill="white"/>
<path d="M143.53 15.71H141.36V12.1H141.97V15.16H143.53V15.71Z" fill="white"/>
<path d="M145.66 15.76C145.13 15.76 144.69 15.58 144.33 15.22C143.97 14.86 143.79 14.42 143.79 13.9C143.79 13.38 143.97 12.94 144.34 12.59C144.71 12.24 145.16 12.06 145.69 12.06C146.22 12.06 146.66 12.25 147.06 12.63L146.7 13.07C146.39 12.76 146.06 12.61 145.69 12.61C145.32 12.61 145.02 12.73 144.77 12.97C144.52 13.21 144.4 13.52 144.4 13.9C144.4 14.07 144.43 14.22 144.49 14.38C144.55 14.53 144.63 14.67 144.74 14.79C144.85 14.91 144.99 15.01 145.15 15.08C145.31 15.15 145.49 15.19 145.69 15.19C146.05 15.19 146.39 15.05 146.7 14.76L147.06 15.16C146.64 15.56 146.18 15.76 145.66 15.76Z" fill="white"/>
<path d="M50.77 24.93C49.88 24.93 49.11 24.62 48.48 24C47.85 23.38 47.53 22.63 47.53 21.74C47.53 20.85 47.85 20.08 48.49 19.48C49.13 18.88 49.9 18.57 50.79 18.57C51.68 18.57 52.41 18.88 53.08 19.49L52.65 20.01C52.11 19.49 51.49 19.22 50.8 19.22C50.11 19.22 49.47 19.46 48.99 19.95C48.51 20.44 48.26 21.03 48.26 21.74C48.26 22.45 48.51 23.05 49.01 23.53C49.51 24.01 50.11 24.26 50.8 24.26C51.49 24.26 52.11 24.01 52.65 23.5L53.09 23.97C52.41 24.61 51.63 24.93 50.77 24.93Z" fill="#BE1E2D"/>
<path d="M60.7401 24.9C60.0301 24.9 59.4601 24.68 59.0201 24.24C58.5801 23.8 58.3601 23.22 58.3601 22.52C58.3601 21.82 58.5901 21.23 59.0401 20.8C59.4901 20.37 60.0601 20.16 60.7501 20.16C61.0501 20.16 61.3401 20.21 61.6301 20.3C61.9101 20.39 62.1701 20.54 62.4001 20.74C62.6301 20.93 62.8101 21.18 62.9401 21.48C63.0701 21.78 63.1401 22.13 63.1401 22.53C63.1401 23.04 63.0301 23.47 62.8101 23.82C62.5601 24.21 62.2501 24.49 61.8901 24.66C61.5301 24.83 61.1501 24.92 60.7501 24.92L60.7401 24.9ZM60.7401 24.29C61.0201 24.29 61.2801 24.23 61.5401 24.11C61.8001 23.99 62.0101 23.8 62.1901 23.53C62.3501 23.27 62.4301 22.94 62.4301 22.53C62.4301 22.04 62.2801 21.63 61.9801 21.28C61.6801 20.94 61.2701 20.77 60.7401 20.77C60.2101 20.77 59.8001 20.94 59.5001 21.28C59.2001 21.62 59.0501 22.04 59.0501 22.53C59.0501 22.94 59.1301 23.27 59.2801 23.53C59.4401 23.79 59.6401 23.98 59.9001 24.11C60.1501 24.24 60.4301 24.3 60.7401 24.3V24.29Z" fill="#BE1E2D"/>
<path d="M73.29 24.88H72.59V22.17C72.59 21.72 72.47 21.38 72.21 21.16C71.96 20.94 71.64 20.83 71.25 20.83C70.73 20.86 70.35 21.01 70.09 21.29C69.84 21.57 69.7 21.93 69.67 22.37V24.89H68.97V20.19H69.67V21.23C70.02 20.52 70.63 20.17 71.49 20.17C71.91 20.17 72.25 20.25 72.52 20.41C72.78 20.57 72.97 20.79 73.1 21.06C73.22 21.34 73.28 21.65 73.28 22V24.89L73.29 24.88Z" fill="#BE1E2D"/>
<path d="M80.6701 24.9C79.9701 24.9 79.3701 24.68 78.8701 24.24L79.1401 23.73C79.6101 24.13 80.1301 24.33 80.7001 24.33C80.9701 24.33 81.2001 24.28 81.3801 24.17C81.5701 24.06 81.6801 23.89 81.7101 23.64C81.7101 23.24 81.3401 22.95 80.5901 22.77C80.2101 22.67 79.8701 22.53 79.5801 22.35C79.2901 22.17 79.1301 21.85 79.1101 21.41C79.1101 21.11 79.1901 20.86 79.3401 20.67C79.5001 20.48 79.7001 20.34 79.9501 20.26C80.2001 20.18 80.4601 20.13 80.7401 20.13C81.3101 20.13 81.8101 20.27 82.2401 20.56L81.9701 21.1C81.5601 20.85 81.1301 20.72 80.6901 20.72C80.0701 20.72 79.7601 20.93 79.7601 21.35C79.7601 21.54 79.8501 21.7 80.0201 21.82C80.1901 21.94 80.4701 22.05 80.8501 22.14C81.0601 22.2 81.2401 22.26 81.4001 22.33C81.5601 22.4 81.7101 22.47 81.8701 22.56C82.2201 22.78 82.3901 23.11 82.3901 23.55C82.3901 23.86 82.3101 24.12 82.1501 24.31C81.9801 24.51 81.7601 24.66 81.5001 24.75C81.2401 24.84 80.9601 24.88 80.6701 24.88V24.9Z" fill="#BE1E2D"/>
<path d="M89.78 24.9C89.37 24.9 89.03 24.82 88.78 24.65C88.51 24.47 88.32 24.25 88.2 23.97C88.08 23.69 88.02 23.39 88.02 23.07V20.18H88.72V22.89C88.72 23.32 88.84 23.66 89.08 23.89C89.32 24.12 89.63 24.23 90.02 24.23C90.56 24.18 90.95 23.99 91.2 23.67C91.44 23.34 91.57 22.95 91.57 22.48V20.18H92.27V24.88H91.57V23.82C91.24 24.55 90.64 24.91 89.78 24.91V24.9Z" fill="#BE1E2D"/>
<path d="M99.49 24.9C99.24 24.9 99.02 24.81 98.82 24.64C98.62 24.47 98.52 24.17 98.52 23.75V18.25H99.21V23.67C99.21 24.06 99.36 24.26 99.66 24.26C99.83 24.26 99.99 24.19 100.16 24.06L100.29 24.62C100.03 24.8 99.76 24.9 99.5 24.9H99.49Z" fill="#BE1E2D"/>
<path d="M107.21 24.9C106.88 24.9 106.59 24.8 106.36 24.6C106.13 24.4 106.01 24.06 106.01 23.57V20.86H105.33V20.32H106.01V19.09H106.7V20.32H108.19V20.86H106.7V23.45C106.7 23.99 106.9 24.25 107.3 24.25C107.54 24.25 107.8 24.17 108.08 24.01L108.28 24.55C107.95 24.78 107.6 24.9 107.22 24.9H107.21Z" fill="#BE1E2D"/>
<path d="M114.31 19.3C114.16 19.3 114.04 19.25 113.97 19.15C113.89 19.05 113.86 18.94 113.86 18.83C113.86 18.7 113.9 18.59 113.98 18.49C114.06 18.39 114.17 18.35 114.31 18.35C114.45 18.35 114.56 18.4 114.64 18.49C114.72 18.58 114.76 18.7 114.76 18.83C114.76 18.95 114.72 19.05 114.65 19.15C114.57 19.25 114.46 19.3 114.31 19.3ZM114.66 24.87H113.97V20.17H114.66V24.87Z" fill="#BE1E2D"/>
<path d="M125.3 24.88H124.6V22.17C124.6 21.72 124.48 21.38 124.22 21.16C123.97 20.94 123.65 20.83 123.26 20.83C122.74 20.86 122.36 21.01 122.1 21.29C121.85 21.57 121.71 21.93 121.68 22.37V24.89H120.98V20.19H121.68V21.23C122.03 20.52 122.64 20.17 123.5 20.17C123.92 20.17 124.26 20.25 124.53 20.41C124.79 20.57 124.98 20.79 125.11 21.06C125.23 21.34 125.29 21.65 125.29 22V24.89L125.3 24.88Z" fill="#BE1E2D"/>
<path d="M133.24 26.63C132.55 26.63 131.91 26.4 131.31 25.94L131.63 25.43C132.09 25.83 132.62 26.03 133.21 26.03C133.69 26.03 134.09 25.89 134.42 25.62C134.75 25.35 134.91 24.94 134.91 24.4V23.69C134.55 24.34 133.98 24.67 133.18 24.67C132.56 24.67 132.05 24.47 131.64 24.06C131.23 23.65 131.03 23.1 131.03 22.4C131.03 21.7 131.22 21.16 131.61 20.78C132 20.4 132.51 20.19 133.16 20.15C133.98 20.16 134.56 20.49 134.91 21.13V20.17H135.61V24.38C135.61 24.88 135.51 25.3 135.3 25.63C135.07 25.98 134.78 26.23 134.42 26.39C134.06 26.55 133.67 26.63 133.25 26.63H133.24ZM133.3 24.1C133.82 24.1 134.22 23.93 134.49 23.6C134.77 23.27 134.91 22.87 134.91 22.42C134.91 21.93 134.76 21.53 134.46 21.21C134.16 20.89 133.77 20.73 133.3 20.73C132.79 20.73 132.39 20.89 132.12 21.2C131.85 21.51 131.7 21.92 131.68 22.42C131.7 22.91 131.84 23.31 132.12 23.63C132.39 23.95 132.79 24.1 133.3 24.1Z" fill="#BE1E2D"/>
<path d="M16.4401 31.7C16.2801 31.7 16.1601 31.7 16.0501 31.7H16.0201C16.0201 31.7 15.9901 31.7 15.9801 31.7H15.9601H15.9401C15.8601 31.7 15.7601 31.7 15.6601 31.68H15.6401H15.6201C15.6201 31.68 15.6101 31.68 15.6001 31.68H15.5801H15.5601C15.3701 31.66 15.1901 31.64 15.0301 31.61L14.9101 31.59C12.9101 31.27 11.0401 30.34 9.58008 28.94C10.3901 29.23 11.2501 29.39 12.1601 29.39C16.3001 29.39 19.7001 26.03 19.7401 21.89C19.7401 21.86 19.7401 21.84 19.7401 21.81V19.75H19.7201V13.17H36.2801V19.75H26.3001V21.85C26.3001 26.02 23.6601 29.76 19.7301 31.15C19.1501 31.36 18.5601 31.51 17.9701 31.6L17.8501 31.62C17.7101 31.64 17.5101 31.67 17.3201 31.69H17.3001H17.2801C17.2801 31.69 17.2801 31.69 17.2701 31.69H17.2501H17.2301C17.1301 31.69 17.0301 31.71 16.9501 31.71H16.9301H16.9101C16.9001 31.71 16.8801 31.71 16.8701 31.71H16.8401C16.7301 31.71 16.6101 31.71 16.4501 31.71L16.4401 31.7Z" fill="#BE1E2D"/>
<path d="M39.49 0H19.72V6.58H39.49V0Z" fill="#ED1C24"/>
<path d="M16.67 25.08C16.5 25.32 16.3 25.54 16.09 25.76C15.04 26.8 13.64 27.38 12.16 27.38C9.09 27.38 6.58 24.88 6.58 21.81V13.16H0V6.59H6.57V0H13.14V21.79C13.14 23.61 14.61 25.08 16.43 25.08C16.51 25.08 16.58 25.08 16.65 25.08H16.67Z" fill="#ED1C24"/>
</g>
<defs>
<clipPath id="clip0_0_297">
<rect width="147.06" height="31.7" fill="white"/>
</clipPath>
</defs>
</svg>
