<svg width="517" height="471" viewBox="0 0 517 471" fill="none" xmlns="http://www.w3.org/2000/svg">
<path d="M489.085 96.7409C487.389 93.8501 485.597 91.0238 483.729 88.2512C458.85 51.3371 416.037 26.0937 373.921 14.681C355.482 9.68388 336.431 7.06175 317.348 6.41696C192.192 2.17211 142.338 100.932 100.973 126.423C59.5982 151.902 -4.04782 195.447 0.202399 286.781C4.45262 378.115 70.2022 464.141 197.494 469.449C324.775 474.758 333.265 417.415 404.327 396.169C451.359 382.113 484.77 334.635 501.138 290.757C523.441 230.964 522.389 153.289 489.096 96.7301L489.085 96.7409Z" fill="#ED1C24"/>
<path opacity="0.7" d="M489.085 96.7409C487.389 93.8501 485.597 91.0238 483.729 88.2512C458.85 51.3371 416.037 26.0937 373.921 14.681C355.482 9.68388 336.431 7.06175 317.348 6.41696C192.192 2.17211 142.338 100.932 100.973 126.423C59.5982 151.902 -4.04782 195.447 0.202399 286.781C4.45262 378.115 70.2022 464.141 197.494 469.449C324.775 474.758 333.265 417.415 404.327 396.169C451.359 382.113 484.77 334.635 501.138 290.757C523.441 230.964 522.389 153.289 489.096 96.7301L489.085 96.7409Z" fill="white"/>
<path opacity="0.2" d="M486.402 289.671H441.324V307.94H486.402V289.671Z" fill="#0F0F0F"/>
<path opacity="0.2" d="M339.769 142.176H294.691V160.445H339.769V142.176Z" fill="#0F0F0F"/>
<path opacity="0.2" d="M312.003 169.783H266.925V188.052H312.003V169.783Z" fill="#0F0F0F"/>
<path opacity="0.2" d="M342.538 48.5098H297.46V66.7787H342.538V48.5098Z" fill="#0F0F0F"/>
<path opacity="0.2" d="M306.089 270.069H261.011V288.338H306.089V270.069Z" fill="#0F0F0F"/>
<path opacity="0.2" d="M217.221 106.938H172.143V125.207H217.221V106.938Z" fill="#0F0F0F"/>
<path opacity="0.2" d="M266.592 106.938H221.514V125.207H266.592V106.938Z" fill="#0F0F0F"/>
<path opacity="0.2" d="M228.813 405.163H183.735V423.432H228.813V405.163Z" fill="#0F0F0F"/>
<path opacity="0.2" d="M205.2 427.73H160.122V445.999H205.2V427.73Z" fill="#0F0F0F"/>
<path opacity="0.1" d="M287.318 195.038H242.24V213.307H287.318V195.038Z" fill="#0F0F0F"/>
<path opacity="0.1" d="M220.634 61.4915H175.556V79.7604H220.634V61.4915Z" fill="#0F0F0F"/>
<path opacity="0.1" d="M512.161 333.473H467.083V351.742H512.161V333.473Z" fill="#0F0F0F"/>
<path opacity="0.1" d="M248.132 361.414H203.054V379.683H248.132V361.414Z" fill="#0F0F0F"/>
<path opacity="0.1" d="M299.65 361.414H254.572V379.683H299.65V361.414Z" fill="#0F0F0F"/>
<path opacity="0.1" d="M303.943 335.623H258.865V353.892H303.943V335.623Z" fill="#0F0F0F"/>
<path opacity="0.1" d="M338.835 195.038H293.757V213.307H338.835V195.038Z" fill="#0F0F0F"/>
<path opacity="0.2" d="M361.9 425.893H316.822V444.162H361.9V425.893Z" fill="#0F0F0F"/>
<path opacity="0.1" d="M337.215 451.147H292.137V469.416H337.215V451.147Z" fill="#0F0F0F"/>
<path opacity="0.1" d="M388.733 451.147H343.654V469.416H388.733V451.147Z" fill="#0F0F0F"/>
<path opacity="0.2" d="M143.368 198.509H98.2902V216.778H143.368V198.509Z" fill="#0F0F0F"/>
<path opacity="0.1" d="M118.683 223.763H73.6046V242.032H118.683V223.763Z" fill="#0F0F0F"/>
<path opacity="0.1" d="M170.2 223.763H125.122V242.032H170.2V223.763Z" fill="#0F0F0F"/>
<path opacity="0.2" d="M125.777 334.548H80.699V352.817H125.777V334.548Z" fill="#0F0F0F"/>
<path opacity="0.1" d="M325.409 247.19H280.331V265.459H325.409V247.19Z" fill="#0F0F0F"/>
<path opacity="0.1" d="M257.791 426.656H212.713V444.925H257.791V426.656Z" fill="#0F0F0F"/>
<path opacity="0.1" d="M242.98 84.3706H197.902V102.64H242.98V84.3706Z" fill="#0F0F0F"/>
<path opacity="0.2" d="M100.018 274.056H54.9401V292.325H100.018V274.056Z" fill="#0F0F0F"/>
<path opacity="0.1" d="M125.777 251.489H80.699V269.758H125.777V251.489Z" fill="#0F0F0F"/>
<path opacity="0.1" d="M240.619 141.649H195.541V159.918H240.619V141.649Z" fill="#0F0F0F"/>
<path opacity="0.1" d="M174.901 152.374H129.823V170.643H174.901V152.374Z" fill="#0F0F0F"/>
<path opacity="0.2" d="M397.319 289.671H352.241V307.94H397.319V289.671Z" fill="#0F0F0F"/>
<path opacity="0.2" d="M68.3884 390.719H23.3103V408.988H68.3884V390.719Z" fill="#0F0F0F"/>
<path opacity="0.1" d="M48.9189 134.03H3.84084V152.299H48.9189V134.03Z" fill="#0F0F0F"/>
<path opacity="0.1" d="M100.437 134.03H55.3586V152.299H100.437V134.03Z" fill="#0F0F0F"/>
<path opacity="0.1" d="M104.73 108.239H59.6518V126.507H104.73V108.239Z" fill="#0F0F0F"/>
<path opacity="0.1" d="M71.0394 181.637H25.9613V199.906H71.0394V181.637Z" fill="#0F0F0F"/>
<path opacity="0.2" d="M129.566 409.526H84.4877V427.795H129.566V409.526Z" fill="#0F0F0F"/>
<g opacity="0.3">
<path d="M341.83 4.55005V262.282H503.864V4.55005H341.83ZM497.961 66.4711H426.545V13.9317H497.961V66.4604V66.4711ZM426.545 136.484H497.961V192.774H426.545V136.484ZM426.545 129.617V73.3273H497.961V129.617H426.545ZM347.722 13.9317H419.139V66.4604H348.076V73.3273H419.139V129.617H348.076V136.484H419.139V192.774H348.076V199.641H419.139V252.922H347.722V13.9317ZM426.534 252.901V199.62H497.95V252.901H426.534Z" stroke="#0F0F0F" stroke-width="1.36211" stroke-linecap="round" stroke-linejoin="round"/>
<path d="M408.91 29.6323L372.88 59.4967" stroke="#0F0F0F" stroke-width="1.36211" stroke-linecap="round" stroke-linejoin="round"/>
<path d="M480.359 88.1145L444.318 117.968" stroke="#0F0F0F" stroke-width="1.36211" stroke-linecap="round" stroke-linejoin="round"/>
<path d="M398.972 214.385L362.941 244.239" stroke="#0F0F0F" stroke-width="1.36211" stroke-linecap="round" stroke-linejoin="round"/>
<path d="M390.01 38.3477L373.503 52.0279" stroke="#0F0F0F" stroke-width="1.36211" stroke-linecap="round" stroke-linejoin="round"/>
<path d="M477.612 81.269L461.094 94.9493" stroke="#0F0F0F" stroke-width="1.36211" stroke-linecap="round" stroke-linejoin="round"/>
<path d="M396.847 223.713L380.329 237.404" stroke="#0F0F0F" stroke-width="1.36211" stroke-linecap="round" stroke-linejoin="round"/>
<path d="M391.877 157.784L375.359 171.464" stroke="#0F0F0F" stroke-width="1.36211" stroke-linecap="round" stroke-linejoin="round"/>
<path d="M476.367 215.632L459.849 229.312" stroke="#0F0F0F" stroke-width="1.36211" stroke-linecap="round" stroke-linejoin="round"/>
<path d="M513.899 262.11H332.492V284.678H513.899V262.11Z" stroke="#0F0F0F" stroke-width="1.36211" stroke-linecap="round" stroke-linejoin="round"/>
</g>
<g opacity="0.3">
<path d="M75.1608 103.718L75.8263 97.2273H32.8625L33.528 103.718H75.1608Z" stroke="#0F0F0F" stroke-width="1.36211" stroke-linecap="round" stroke-linejoin="round"/>
<path d="M73.4006 120.794H35.2882L30.5228 74.6167H78.1553L73.4006 120.794Z" stroke="#0F0F0F" stroke-width="1.36211" stroke-linecap="round" stroke-linejoin="round"/>
<path d="M38.3041 74.2837C38.3041 74.2837 32.2508 73.4132 26.6267 68.6525C21.0027 63.8919 11.0641 62.5915 7.60809 65.1922C4.1521 67.7928 0.685379 71.2532 0.685379 71.2532C0.685379 71.2532 3.28273 61.7318 10.1947 59.561C17.1174 57.401 21.432 59.561 25.3281 61.2912C29.2241 63.0214 30.9521 64.3217 35.2774 66.9224C39.6028 69.523 42.2001 71.683 42.2001 71.683C42.2001 71.683 40.9015 66.0519 38.3041 63.462C35.7068 60.8614 20.1441 49.6098 20.1441 49.6098C20.1441 49.6098 28.7948 51.7699 34.4081 54.3705C40.0321 56.9712 44.3575 61.7318 44.7868 63.8919C45.2161 66.0519 46.9441 69.9529 46.9441 69.9529L48.6721 74.2837C48.6721 74.2837 48.2428 67.7928 47.8027 63.0321C47.3627 58.2715 46.504 55.241 46.9333 50.4803C47.3627 45.7196 48.232 42.6891 48.232 40.0885C48.232 37.4878 49.5307 34.8979 49.5307 34.8979C49.5307 34.8979 51.2587 47.0199 52.1281 50.9102C52.9974 54.8111 52.9974 60.0017 53.4267 62.6023C53.8561 65.2029 55.1547 72.9941 55.1547 72.9941C55.1547 72.9941 54.2854 66.5033 56.8827 63.0321C59.4801 59.5718 60.3387 56.9712 62.0667 54.3705C63.7947 51.7699 65.9627 47.4391 65.9627 47.4391C65.9627 47.4391 65.9627 54.3705 64.2347 58.6906C62.5068 63.0214 61.2081 65.1814 61.2081 66.9116V72.9726C61.2081 72.9726 65.5334 65.1814 68.1308 63.0107C70.7281 60.8506 72.4561 60.8506 73.3148 59.5503C74.1841 58.25 79.3681 55.2195 79.3681 55.2195C79.3681 55.2195 76.3414 62.1509 75.4721 63.4405C74.6027 64.7408 70.2881 68.6311 70.2881 68.6311C70.2881 68.6311 75.4721 66.0304 79.7974 64.7301C84.1228 63.4298 90.6054 62.1294 93.2028 62.1294C95.8001 62.1294 104.44 60.8291 104.44 60.8291C104.44 60.8291 96.6588 64.2895 91.9041 66.0197C87.1494 67.7498 84.1228 68.6203 82.3948 69.0502L80.6668 69.48C80.6668 69.48 86.7201 70.3505 92.7735 72.5105C98.8268 74.6706 100.555 76.4115 101.424 77.7011C102.294 79.0014 102.723 81.1614 102.723 81.1614C102.723 81.1614 105.32 83.3214 105.32 85.0624C105.32 86.8033 93.6428 76.8413 89.3282 75.541C85.0029 74.2407 78.166 74.5738 78.166 74.5738" stroke="#0F0F0F" stroke-width="1.36211" stroke-linecap="round" stroke-linejoin="round"/>
</g>
<g opacity="0.3">
<path d="M102.208 136.409L101.757 132.014H130.875L130.414 136.409H102.208Z" stroke="#0F0F0F" stroke-width="1.36211" stroke-linecap="round" stroke-linejoin="round"/>
<path d="M103.41 147.983H129.222L132.453 116.689H100.179L103.41 147.983Z" stroke="#0F0F0F" stroke-width="1.36211" stroke-linecap="round" stroke-linejoin="round"/>
<path d="M127.183 116.463C127.183 116.463 131.283 115.872 135.093 112.648C138.903 109.425 145.644 108.543 147.983 110.306C150.323 112.068 152.674 114.411 152.674 114.411C152.674 114.411 150.913 107.963 146.234 106.491C141.544 105.029 138.614 106.491 135.984 107.662C133.344 108.833 132.174 109.715 129.244 111.477C126.314 113.24 124.554 114.701 124.554 114.701C124.554 114.701 125.434 110.886 127.194 109.124C128.954 107.361 139.494 99.742 139.494 99.742C139.494 99.742 133.634 101.204 129.823 102.966C126.013 104.728 123.083 107.952 122.793 109.414C122.504 110.875 121.334 113.519 121.334 113.519L120.164 116.453C120.164 116.453 120.454 112.057 120.754 108.823C121.044 105.599 121.634 103.546 121.344 100.312C121.055 97.0876 120.464 95.0351 120.464 93.2726C120.464 91.5102 119.584 89.7478 119.584 89.7478C119.584 89.7478 118.414 97.9581 117.824 100.602C117.234 103.245 117.234 106.759 116.944 108.522C116.654 110.284 115.774 115.561 115.774 115.561C115.774 115.561 116.364 111.165 114.604 108.812C112.844 106.469 112.264 104.707 111.084 102.944C109.914 101.182 108.443 98.2482 108.443 98.2482C108.443 98.2482 108.443 102.944 109.613 105.878C110.783 108.812 111.663 110.274 111.663 111.456V115.561C111.663 115.561 108.733 110.284 106.973 108.812C105.213 107.35 104.043 107.35 103.453 106.469C102.862 105.588 99.3527 103.535 99.3527 103.535C99.3527 103.535 101.403 108.232 101.993 109.113C102.583 109.994 105.513 112.638 105.513 112.638C105.513 112.638 101.993 110.875 99.0737 109.994C96.1436 109.113 91.7538 108.232 89.9936 108.232C88.2335 108.232 82.3733 107.35 82.3733 107.35C82.3733 107.35 87.6431 109.693 90.8737 110.875C94.0936 112.047 96.1436 112.638 97.3135 112.928L98.4834 113.218C98.4834 113.218 94.3834 113.809 90.2834 115.271C86.1835 116.732 85.0136 117.914 84.4233 118.795C83.833 119.677 83.5432 121.138 83.5432 121.138C83.5432 121.138 81.783 122.6 81.783 123.782C81.783 124.964 89.6931 118.204 92.6232 117.334C95.5533 116.453 100.19 116.678 100.19 116.678" stroke="#0F0F0F" stroke-width="1.36211" stroke-linecap="round" stroke-linejoin="round"/>
</g>
<g opacity="0.3">
<path d="M158.265 62.3763L158.781 57.3254H125.391L125.906 62.3763H158.265Z" stroke="#0F0F0F" stroke-width="1.36211" stroke-linecap="round" stroke-linejoin="round"/>
<path d="M156.892 75.6483H127.28L123.577 39.7551H160.595L156.892 75.6483Z" stroke="#0F0F0F" stroke-width="1.36211" stroke-linecap="round" stroke-linejoin="round"/>
<path d="M123.577 39.7552C123.577 39.7552 119.466 35.7038 117.062 34.6722C114.658 33.6405 110.204 31.9211 110.204 31.9211C110.204 31.9211 115.688 31.9211 119.455 33.6405C123.223 35.36 127.001 37.7564 127.001 37.7564C127.001 37.7564 123.577 32.9527 120.829 29.5139C118.082 26.0858 111.921 20.2504 111.577 18.531C111.234 16.8116 119.81 24.3663 125.638 28.8261C131.466 33.2859 132.496 36.3809 132.496 36.3809C132.496 36.3809 128.042 28.1383 124.607 20.9382C121.173 13.7381 118.092 9.61145 117.062 8.23591C116.032 6.86036 127.001 19.5627 130.779 25.7419C134.546 31.9211 136.95 35.6931 136.95 35.6931C136.95 35.6931 132.839 15.1029 132.152 10.2885C131.466 5.47407 130.779 0.681152 130.779 0.681152C130.779 0.681152 137.293 19.5627 138.324 22.9908C139.354 26.4189 141.071 32.5981 141.071 32.5981C141.071 32.5981 143.132 22.6469 143.819 16.4677C144.506 10.2885 147.586 1.36893 147.586 1.36893C147.586 1.36893 146.212 20.5943 145.869 25.398C145.526 30.2017 145.182 35.0053 145.182 35.0053C145.182 35.0053 148.606 26.0858 151.697 21.9591C154.777 17.8432 160.273 12.3518 160.273 12.3518C160.273 12.3518 154.445 23.3347 153.071 26.7735C151.697 30.2017 149.99 36.3809 149.99 36.3809C149.99 36.3809 156.849 25.7419 159.929 22.303C163.009 18.8749 166.101 17.1555 168.837 15.436C171.585 13.7166 160.262 27.4506 158.899 30.5348C157.525 33.619 155.818 36.3701 155.818 36.3701C155.818 36.3701 157.879 33.619 163.364 31.5665C168.848 29.5031 178.443 27.4506 179.817 27.4506C181.191 27.4506 171.242 31.5665 167.818 32.942C164.394 34.3175 160.616 39.7338 160.616 39.7338" stroke="#0F0F0F" stroke-width="1.36211" stroke-linecap="round" stroke-linejoin="round"/>
</g>
<path d="M405.333 169.101C409.242 153.213 395.456 136.151 374.54 130.991C353.625 125.832 333.5 134.529 329.591 150.417C325.682 166.305 339.468 183.368 360.383 188.527C381.299 193.686 401.423 184.989 405.333 169.101Z" fill="#BE1E2D" stroke="#0F0F0F" stroke-width="1.36211" stroke-linecap="round" stroke-linejoin="round"/>
<path d="M345.415 172.581C345.415 172.581 337.676 174.698 334.156 170.464C330.635 166.241 335.916 153.904 341.723 148.262C347.529 142.62 363.897 140.159 372.343 141.041C380.79 141.922 390.825 148.262 392.231 154.957C393.637 161.652 390.825 168.175 390.643 170.282C390.471 172.399 385.545 172.399 384.837 171.335C384.128 170.282 373.578 154.775 371.463 154.065C369.349 153.356 367.943 154.775 365.657 156C363.371 157.235 345.951 164.629 345.951 164.629L345.425 172.56L345.415 172.581Z" fill="#0F0F0F" stroke="#0F0F0F" stroke-width="1.36211" stroke-linecap="round" stroke-linejoin="round"/>
<path d="M371.045 349.414L367.567 326.793L359.571 354.282C357.639 357.592 355.353 361.859 354.312 365.179C352.327 371.477 362.33 391.315 362.995 389.219C363.661 387.124 367.428 360.193 367.428 360.193C367.428 360.193 368.125 355.572 367.825 351.94L371.056 349.403L371.045 349.414Z" fill="white" stroke="#0F0F0F" stroke-width="1.36211" stroke-linecap="round" stroke-linejoin="round"/>
<path d="M366.408 365.427C366.408 365.427 359.174 367.888 359.174 383.277C359.174 387.468 365.142 431.517 365.142 438.889V469.452H405.111L410.048 440.437L413.751 468.84H453.838C453.838 468.84 457.842 424.07 458.153 418.514C458.464 412.958 461.233 400.911 460.31 384.244C459.387 367.576 455.684 361.085 455.684 361.085L367.31 359.538L366.419 365.427H366.408Z" fill="#0F0F0F" stroke="#0F0F0F" stroke-width="1.36211" stroke-linecap="round" stroke-linejoin="round"/>
<path d="M373.825 210.517C373.825 210.517 354.988 226.583 350.91 230.989C346.681 235.556 348.441 260.713 353.851 278.047C359.26 295.382 365.002 322.194 365.27 327.61C365.539 333.026 366.408 365.427 366.408 365.427C366.408 365.427 400.024 378.699 420.577 375.453C441.141 372.208 455.749 363.536 455.749 363.536C455.749 363.536 452.507 307.998 452.507 295.811C452.507 283.625 449.803 243.261 447.098 229.173C444.393 215.084 434.927 206.691 427.886 205.874C420.856 205.058 394.539 203.875 394.539 203.875L373.825 210.517Z" fill="white" stroke="#0F0F0F" stroke-width="1.36211" stroke-linecap="round" stroke-linejoin="round"/>
<path d="M364.315 206.712C364.315 206.712 372.816 230.602 374.232 230.838C375.649 231.075 379.427 227.292 379.427 227.292L394.539 203.886L388.529 182.286C388.529 182.286 385.094 193.72 378.483 201.049C371.871 208.378 364.315 206.723 364.315 206.723V206.712Z" fill="white" stroke="#0F0F0F" stroke-width="1.36211" stroke-linecap="round" stroke-linejoin="round"/>
<path d="M380.737 202.048L369.585 219.329L364.315 206.712L380.737 202.048Z" fill="#0F0F0F" stroke="#0F0F0F" stroke-width="1.36211" stroke-linecap="round" stroke-linejoin="round"/>
<path d="M370.937 147.564C370.937 147.564 361.256 155.312 353.518 158.138C345.78 160.965 341.905 162.018 341.905 162.018C341.905 162.018 344.374 177.697 345.071 182.103C345.769 186.509 347.357 193.903 350.524 197.084C353.69 200.254 361.439 207.83 364.949 209.764C368.458 211.699 374.447 210.119 376.207 209.238C377.967 208.357 388.174 192.85 388.7 190.732C389.226 188.615 388.529 182.275 388.529 182.275C388.529 182.275 393.101 179.803 393.809 177.342C394.518 174.871 392.929 165.715 391.523 164.479C390.117 163.243 387.831 164.651 387.477 166.069C387.123 167.477 386.071 169.594 386.071 169.594C386.071 169.594 385.899 165.897 384.482 163.608C383.076 161.319 383.076 160.438 379.728 157.795C376.379 155.151 370.927 147.575 370.927 147.575L370.937 147.564Z" fill="white" stroke="#0F0F0F" stroke-width="1.36211" stroke-linecap="round" stroke-linejoin="round"/>
<path d="M359.142 182.275L359.668 187.035C359.668 187.035 365.474 186.863 368.115 184.037" stroke="#0F0F0F" stroke-width="1.36211" stroke-linecap="round" stroke-linejoin="round"/>
<path d="M356.502 191.958C356.502 191.958 360.72 193.365 367.235 191.431C373.75 189.497 375.327 184.908 375.327 184.908" stroke="#0F0F0F" stroke-width="1.36211" stroke-linecap="round" stroke-linejoin="round"/>
<path d="M355.267 170.465C355.267 170.465 347.701 167.993 345.415 172.582" stroke="#0F0F0F" stroke-width="1.36211" stroke-linecap="round" stroke-linejoin="round"/>
<path d="M363.017 167.649C363.017 167.649 368.115 162.545 373.395 164.479" stroke="#0F0F0F" stroke-width="1.36211" stroke-linecap="round" stroke-linejoin="round"/>
<path d="M354.484 177.235C354.988 178.61 354.838 179.921 354.151 180.168C353.464 180.416 352.509 179.513 352.005 178.137C351.5 176.762 351.65 175.451 352.337 175.204C353.024 174.956 353.98 175.859 354.484 177.235Z" fill="#0F0F0F"/>
<path d="M370.862 172.206C371.367 173.581 371.217 174.892 370.53 175.139C369.843 175.387 368.887 174.484 368.383 173.108C367.879 171.733 368.029 170.422 368.716 170.175C369.403 169.927 370.358 170.83 370.862 172.206Z" fill="#0F0F0F"/>
<path d="M410.842 235.663L426.265 290.921C426.265 290.921 425.45 293.63 425.997 295.252C426.534 296.875 426.813 298.229 426.813 298.229C426.813 298.229 422.487 319.905 418.699 333.177C414.91 346.448 401.387 375.432 401.923 378.688C402.46 381.933 399.219 406.317 400.839 407.402C402.46 408.488 406.249 410.11 407.333 410.11C408.417 410.11 413.289 410.648 414.91 410.648C416.531 410.648 422.487 410.379 423.572 408.208C424.656 406.037 424.387 404.683 422.756 405.231C421.135 405.769 418.43 406.048 418.43 406.048L417.346 403.877C417.346 403.877 418.699 394.399 417.346 387.349C415.994 380.31 415.457 377.871 415.457 377.871C415.457 377.871 449.277 322.881 450.629 312.586C451.981 302.291 454.15 290.911 454.15 285.763C454.15 280.616 448.74 234.298 447.119 229.151C445.499 224.003 444.683 218.856 440.358 214.525C436.032 210.194 433.049 210.194 430.891 210.194" fill="white"/>
<path d="M410.842 235.663L426.265 290.921C426.265 290.921 425.45 293.63 425.997 295.252C426.534 296.875 426.813 298.229 426.813 298.229C426.813 298.229 422.487 319.905 418.699 333.177C414.91 346.448 401.387 375.432 401.923 378.688C402.46 381.933 399.219 406.317 400.839 407.402C402.46 408.488 406.249 410.11 407.333 410.11C408.417 410.11 413.289 410.648 414.91 410.648C416.531 410.648 422.487 410.379 423.572 408.208C424.656 406.037 424.387 404.683 422.756 405.231C421.135 405.769 418.43 406.048 418.43 406.048L417.346 403.877C417.346 403.877 418.699 394.399 417.346 387.349C415.994 380.31 415.457 377.871 415.457 377.871C415.457 377.871 449.277 322.881 450.629 312.586C451.981 302.291 454.15 290.911 454.15 285.763C454.15 280.616 448.74 234.298 447.119 229.151C445.499 224.003 444.683 218.856 440.358 214.525C436.032 210.194 433.049 210.194 430.891 210.194" stroke="#0F0F0F" stroke-width="1.36211" stroke-linecap="round" stroke-linejoin="round"/>
<path d="M428.981 296.767C428.981 296.767 436.923 293.457 443.717 296.434" stroke="#0F0F0F" stroke-width="1.36211" stroke-linecap="round" stroke-linejoin="round"/>
<path d="M434.111 290.793C434.111 290.793 443.213 288.643 449.008 295.435" stroke="#0F0F0F" stroke-width="1.36211" stroke-linecap="round" stroke-linejoin="round"/>
<path d="M421.242 323.408C420.395 326.868 419.525 330.232 418.688 333.187C414.899 346.459 401.376 375.442 401.913 378.698C402.449 381.944 399.208 406.327 400.828 407.413C402.449 408.498 406.238 410.121 407.322 410.121C408.406 410.121 413.279 410.658 414.899 410.658C416.52 410.658 422.477 410.389 423.561 408.219C424.645 406.048 424.376 404.694 422.745 405.242C421.124 405.779 418.42 406.059 418.42 406.059L417.336 403.888C417.336 403.888 418.688 394.41 417.336 387.36C415.983 380.31 415.447 377.881 415.447 377.881C415.447 377.881 431.696 351.456 442.118 331.811C435.378 324.794 426.877 323.397 421.253 323.397L421.242 323.408Z" fill="white" stroke="#0F0F0F" stroke-width="1.36211" stroke-linecap="round" stroke-linejoin="round"/>
<path d="M411.819 405.64C411.819 405.64 414.502 407.907 415.425 408.638C416.348 409.369 416.659 410.089 418.42 410.293" fill="white"/>
<path d="M411.819 405.64C411.819 405.64 414.502 407.907 415.425 408.638C416.348 409.369 416.659 410.089 418.42 410.293" stroke="#0F0F0F" stroke-width="1.36211" stroke-linecap="round" stroke-linejoin="round"/>
<path d="M406.56 406.983C406.56 406.983 410.585 409.981 413.064 410.594L406.56 406.983Z" fill="white"/>
<path d="M406.56 406.983C406.56 406.983 410.585 409.981 413.064 410.594" stroke="#0F0F0F" stroke-width="1.36211" stroke-linecap="round" stroke-linejoin="round"/>
<path d="M402.127 406.371C402.127 406.371 403.984 408.853 406.045 409.777L402.127 406.371Z" fill="white"/>
<path d="M402.127 406.371C402.127 406.371 403.984 408.853 406.045 409.777" stroke="#0F0F0F" stroke-width="1.36211" stroke-linecap="round" stroke-linejoin="round"/>
<path d="M366.301 358.742C366.301 358.742 367.278 366.018 367.675 367.2C368.072 368.382 367.481 370.542 367.868 375.066C368.265 379.591 369.435 384.308 366.494 383.524C363.553 382.739 362.169 375.066 362.373 373.1C362.566 371.133 359.035 365.233 359.035 365.233" fill="white"/>
<path d="M366.301 358.742C366.301 358.742 367.278 366.018 367.675 367.2C368.072 368.382 367.481 370.542 367.868 375.066C368.265 379.591 369.435 384.308 366.494 383.524C363.553 382.739 362.169 375.066 362.373 373.1C362.566 371.133 359.035 365.233 359.035 365.233" stroke="#0F0F0F" stroke-width="1.36211" stroke-linecap="round" stroke-linejoin="round"/>
<path d="M309.116 318.851C306.368 313.586 285.965 241.165 285.965 241.165C282.123 251.708 279.665 303.688 279.665 303.688L281.897 331.253L281.5 336.422C286.835 332.768 299.897 325.536 308.579 335.164C308.719 334.659 308.816 334.23 308.869 333.896C309.996 326.954 311.864 324.139 309.116 318.862V318.851Z" fill="#ED1C24" stroke="#0F0F0F" stroke-width="1.36211" stroke-linecap="round" stroke-linejoin="round"/>
<path d="M302.537 325.826C303.921 326.062 305.263 326.438 306.529 326.997" stroke="#0F0F0F" stroke-width="1.36211" stroke-linecap="round" stroke-linejoin="round"/>
<path d="M283.4 328.373C283.4 328.373 290.258 325.675 297.546 325.492" stroke="#0F0F0F" stroke-width="1.36211" stroke-linecap="round" stroke-linejoin="round"/>
<path d="M305.188 322.924C305.188 322.924 299.167 319.27 294.348 320.71" stroke="#0F0F0F" stroke-width="1.36211" stroke-linecap="round" stroke-linejoin="round"/>
<path d="M183.316 468.721L184.593 413.506L188.511 383.212L279.729 380.095L287.865 401.814L292.867 469.441H246.704L237.979 424.65L235.478 428.96L234.523 468.485L183.316 468.721Z" fill="#0F0F0F" stroke="#0F0F0F" stroke-width="1.36211" stroke-linecap="round" stroke-linejoin="round"/>
<path d="M212.048 230.87C212.048 230.87 172.315 241.412 169.9 242.605C167.474 243.798 172.819 279.97 176.565 293.146C180.311 306.321 189.423 354.701 189.423 354.701L188.811 389.67C188.811 389.67 227.782 390.627 243.377 388.714C258.972 386.801 276.059 382.481 276.059 382.481C276.059 382.481 281.597 351.585 279.697 331.22C277.798 310.856 283.325 260.315 283.411 256.962C283.497 253.609 285.944 241.154 285.944 241.154C285.944 241.154 256.257 232.052 248.626 231.096C240.994 230.139 223.06 229.656 212.026 230.859L212.048 230.87Z" fill="#ED1C24" stroke="#0F0F0F" stroke-width="1.36211" stroke-linecap="round" stroke-linejoin="round"/>
<path d="M204.567 239.79C204.567 239.79 209.515 253.448 221.203 261.605" stroke="#0F0F0F" stroke-width="1.36211" stroke-linecap="round" stroke-linejoin="round"/>
<path d="M245.556 237.372C245.556 237.372 243.452 242.659 240.007 248.387" stroke="#0F0F0F" stroke-width="1.36211" stroke-linecap="round" stroke-linejoin="round"/>
<path d="M239.277 251.245L237.227 254.115" stroke="#0F0F0F" stroke-width="1.36211" stroke-linecap="round" stroke-linejoin="round"/>
<path d="M224.97 385.78C234.201 385.232 251.126 383.749 262.117 379.912" stroke="#0F0F0F" stroke-width="1.36211" stroke-linecap="round" stroke-linejoin="round"/>
<path d="M218.402 386.07C218.402 386.07 219.454 386.049 221.257 385.963" stroke="#0F0F0F" stroke-width="1.36211" stroke-linecap="round" stroke-linejoin="round"/>
<path d="M256.418 375.807C244.3 377.387 225.926 378.816 211.608 375.721" stroke="#0F0F0F" stroke-width="1.36211" stroke-linecap="round" stroke-linejoin="round"/>
<path d="M269.308 373.733C269.308 373.733 266.249 374.367 261.333 375.109" stroke="#0F0F0F" stroke-width="1.36211" stroke-linecap="round" stroke-linejoin="round"/>
<path d="M268.299 356.905C260.968 361.149 246.962 368.371 233.074 370.66" stroke="#0F0F0F" stroke-width="1.36211" stroke-linecap="round" stroke-linejoin="round"/>
<path d="M273.537 353.691C273.537 353.691 272.549 354.357 270.789 355.432" stroke="#0F0F0F" stroke-width="1.36211" stroke-linecap="round" stroke-linejoin="round"/>
<path d="M206.435 217.104L208.098 236.34C208.098 236.34 213.969 250.278 227.632 249.376C241.027 248.494 243.002 231.429 243.002 231.429L240.297 211.129C240.297 211.129 228.534 220.962 221.944 220.102C215.354 219.242 206.435 217.115 206.435 217.115V217.104Z" fill="white" stroke="#0F0F0F" stroke-width="1.36211" stroke-linecap="round" stroke-linejoin="round"/>
<path d="M192.825 194.332C192.825 194.332 190.389 191.227 188.554 194.031C186.718 196.836 188.897 204.38 192.246 206.014C195.605 207.636 196.485 207.636 196.485 207.636C196.485 207.636 200.295 215.18 202.303 217.394C204.32 219.608 218.981 230.107 222.513 230.698C226.044 231.289 231.088 230.258 233.063 228.184C235.038 226.11 241.284 211.913 242.25 208.518C243.216 205.122 243.388 204.38 243.431 202.306C243.485 200.232 243.377 198.459 243.377 198.459C243.377 198.459 246.898 193.279 247.295 189.142C247.692 185.004 246.737 181.899 244.526 181.308C242.325 180.717 239.857 185.155 239.857 185.155L232.43 162.383C232.43 162.383 229.918 156.172 227.729 155.43C225.528 154.689 209.687 156.612 202.968 159.428C196.249 162.233 189.681 165.199 189.165 168.304C188.65 171.41 192.815 194.332 192.815 194.332H192.825Z" fill="white" stroke="#0F0F0F" stroke-width="1.36211" stroke-linecap="round" stroke-linejoin="round"/>
<path d="M204.975 162.458C204.975 162.458 192.299 164.984 191.559 167.047C190.818 169.11 189.809 173.022 191.108 176.009C192.418 178.997 193.877 194.386 193.877 194.386C193.877 194.386 195.82 199.211 194.467 198.523C193.104 197.835 192.096 192.097 191.655 191.398C191.215 190.711 185.516 179.685 183.778 175.547C182.039 171.41 185.806 167.509 186.751 166.585C187.695 165.661 188.64 164.285 188.64 164.285C188.64 164.285 187.652 157.622 190.711 154.635C193.77 151.647 215.901 147.058 217.747 146.371C219.604 145.683 221.525 141.782 223.156 140.858C224.788 139.944 229.543 142.233 232.387 147.983C235.231 153.721 234.963 155.333 234.018 156.483L233.074 157.633C233.074 157.633 236.272 158.095 237.549 162.458C238.816 166.821 240.554 170.959 240.469 174.397C240.383 177.847 239.878 184.467 239.857 185.155C239.835 185.842 239.052 185.187 238.419 182.898C237.785 180.598 232 163.834 231.12 161.996C230.251 160.158 229.145 158.321 228.705 157.633C228.265 156.945 209.44 157.633 204.964 162.458H204.975Z" fill="#0F0F0F" stroke="#0F0F0F" stroke-width="1.36211" stroke-linecap="round" stroke-linejoin="round"/>
<path d="M222.513 230.709C226.044 231.3 231.088 230.268 233.063 228.194C235.038 226.12 241.284 211.924 242.25 208.528C243.216 205.132 243.388 204.391 243.431 202.317C243.485 200.243 243.377 198.469 243.377 198.469L240.265 184.51C240.157 184.682 240.061 184.821 239.996 184.929C240.351 189.238 240.995 197.567 240.866 198.76C240.683 200.382 238.859 202.155 237.088 202.456C235.306 202.757 226.924 201.425 223.221 201.715C219.518 202.016 218.305 203.338 215.461 204.821C212.617 206.304 206.778 209.85 205.286 210.29C203.794 210.731 201.015 209.699 199.877 208.216C198.728 206.733 193.877 194.375 193.877 194.375C193.877 195.17 193.061 196.685 193.061 196.685L196.485 207.625C196.485 207.625 200.295 215.169 202.303 217.383C204.32 219.597 218.981 230.096 222.513 230.687V230.709Z" fill="#0F0F0F" stroke="#0F0F0F" stroke-width="1.36211" stroke-linecap="round" stroke-linejoin="round"/>
<path d="M220.763 180.878C220.763 180.878 218.327 183.683 218.756 184.574C219.175 185.466 224.691 201.726 224.498 203.499C224.305 205.272 221.922 206.164 220.022 205.573C218.112 204.982 216.921 199.662 216.921 199.662" fill="white"/>
<path d="M220.763 180.878C220.763 180.878 218.327 183.683 218.756 184.574C219.175 185.466 224.691 201.726 224.498 203.499C224.305 205.272 221.922 206.164 220.022 205.573C218.112 204.982 216.921 199.662 216.921 199.662" stroke="#0F0F0F" stroke-width="1.36211" stroke-linecap="round" stroke-linejoin="round"/>
<path d="M223.317 179.395C223.317 179.395 228.577 175.698 233.245 178.213" stroke="#0F0F0F" stroke-width="4.08634" stroke-linecap="round" stroke-linejoin="round"/>
<path d="M209.494 182.651C209.494 182.651 201.412 180.878 197.87 187.089" stroke="#0F0F0F" stroke-width="4.08634" stroke-linecap="round" stroke-linejoin="round"/>
<path d="M208.678 190.206C208.968 191.431 208.592 192.581 207.841 192.785C207.089 192.978 206.241 192.151 205.941 190.926C205.651 189.7 206.027 188.551 206.778 188.346C207.529 188.153 208.377 188.98 208.678 190.206Z" fill="#0F0F0F" stroke="#0F0F0F" stroke-width="1.36211" stroke-linecap="round" stroke-linejoin="round"/>
<path d="M228.083 185.101C228.373 186.326 227.997 187.476 227.246 187.68C226.494 187.874 225.647 187.046 225.346 185.821C225.056 184.596 225.432 183.446 226.183 183.242C226.934 183.038 227.782 183.876 228.083 185.101Z" fill="#0F0F0F" stroke="#0F0F0F" stroke-width="1.36211" stroke-linecap="round" stroke-linejoin="round"/>
<path d="M214.388 212.666C214.388 212.666 224.681 214.589 230.755 207.787" stroke="#858585" stroke-width="1.36211" stroke-linecap="round" stroke-linejoin="round"/>
<path d="M308.869 333.885C308.848 334.036 308.805 334.219 308.762 334.401C308.805 334.208 308.837 334.036 308.869 333.885Z" stroke="#0F0F0F" stroke-width="1.36211" stroke-linecap="round" stroke-linejoin="round"/>
<path d="M308.579 335.154C299.897 325.525 286.835 332.757 281.5 336.411L278.731 361.88L277.422 366.673C277.422 366.673 267.601 377.215 266.346 379.365C265.101 381.525 263.147 383.201 261.677 384.394C260.217 385.587 257.083 386.554 256.804 387.983C256.525 389.423 261.301 390.143 262.75 389.423C264.199 388.703 267.88 384.867 267.88 384.867L265.573 391.1L284.269 399.245C284.269 399.245 285.364 393.733 285.922 390.38C286.48 387.027 287.393 379.117 287.661 377.688C287.929 376.291 306.701 343.16 308.719 334.498C308.676 334.692 308.622 334.906 308.558 335.143L308.579 335.154Z" fill="white" stroke="#0F0F0F" stroke-width="1.36211" stroke-linecap="round" stroke-linejoin="round"/>
<path d="M169.9 242.605C169.9 242.605 165.006 247.151 163.943 251.707C162.881 256.264 146.653 313.231 142.853 321.85C139.054 330.468 138.41 337.421 140.481 340.774C142.553 344.127 179.957 370.757 179.957 370.757C179.957 370.757 183.939 384.168 185.055 387.521C186.171 390.874 188.178 396.623 188.178 396.623L203.183 389.681C203.183 389.681 205.973 392.798 207.862 394.238C209.74 395.678 212.112 396.398 212.628 394.958C213.143 393.518 210.374 389.445 210.374 389.445C210.374 389.445 209.011 386.575 208.828 384.179C208.646 381.783 205.168 377.473 203.784 375.313C202.399 373.153 190.872 365.254 190.872 365.254L167.356 328.33L176.597 293.157C176.597 293.157 168.258 252.438 169.932 242.616L169.9 242.605Z" fill="white" stroke="#0F0F0F" stroke-width="1.36211" stroke-linecap="round" stroke-linejoin="round"/>
<path d="M167.335 328.319L177.982 298.476C177.982 298.476 168.226 252.427 169.9 242.605C169.9 242.605 165.006 247.151 163.943 251.707C162.881 256.264 146.653 313.231 142.853 321.85C139.054 330.468 138.41 337.421 140.481 340.774C141.071 341.73 144.302 345.943 150.688 349.446C152.867 345.277 158.523 335.584 170.802 334.745L167.335 328.319Z" fill="#ED1C24" stroke="#0F0F0F" stroke-width="1.36211" stroke-linecap="round" stroke-linejoin="round"/>
<path d="M149.668 326.643C149.668 326.643 156.87 325.686 163.503 328.319" stroke="#0F0F0F" stroke-width="1.36211" stroke-linecap="round" stroke-linejoin="round"/>
<path d="M159.296 324.482C159.296 324.482 165.231 326.159 167.335 328.319" stroke="#0F0F0F" stroke-width="1.36211" stroke-linecap="round" stroke-linejoin="round"/>
<path d="M286.459 365.835C286.459 365.835 272.925 403.738 277.969 424.188C283.014 444.639 287.607 469.441 287.607 469.441H357.124C357.124 469.441 364.927 444.176 364.004 429.013C363.081 413.85 361.246 396.849 361.246 396.849L357.575 353.197H288.284L286.448 365.835H286.459Z" fill="#0F0F0F" stroke="#0F0F0F" stroke-width="1.36211" stroke-linecap="round" stroke-linejoin="round"/>
<path d="M319.269 403.286C319.269 403.286 330.743 427.638 335.787 446.702C340.832 465.766 340.606 469.216 340.606 469.216" stroke="#858585" stroke-width="1.36211" stroke-linecap="round" stroke-linejoin="round"/>
<path d="M332.117 423.726C332.117 423.726 344.277 413.162 347.948 400.524" stroke="#858585" stroke-width="1.36211" stroke-linecap="round" stroke-linejoin="round"/>
<path d="M326.836 250.977L294.262 261.777C294.262 261.777 305.961 280.39 309.867 307.03C313.774 333.671 312.164 360.784 312.164 360.784C312.164 360.784 320.654 365.835 336.71 363.997C352.767 362.16 357.586 353.197 357.586 353.197C357.586 353.197 356.437 308.632 350.47 290.943C344.502 273.254 326.836 250.966 326.836 250.966V250.977Z" fill="#BE1E2D" stroke="#0F0F0F" stroke-width="1.36211" stroke-linecap="round" stroke-linejoin="round"/>
<path d="M278.366 171.829C278.366 171.829 270.51 171.206 267.193 180.115C263.888 189.024 254.582 220.081 256.439 226.916C258.296 233.75 262.439 236.028 264.092 243.487C265.745 250.945 262.02 255.501 262.02 255.501C262.02 255.501 264.918 259.638 271.948 259.853C278.978 260.058 289.529 254.469 296.559 252.814C303.589 251.16 319.098 249.709 328.822 248.258C338.546 246.807 340.606 239.564 340.606 239.564C340.606 239.564 333.984 240.187 333.576 236.039C333.158 231.902 338.535 216.362 336.26 205.595C333.984 194.827 318.475 184.059 311.649 178.675C304.823 173.291 298.415 168.938 291.171 168.734C283.926 168.53 279.59 169.153 278.345 171.84L278.366 171.829Z" fill="#0F0F0F" stroke="#0F0F0F" stroke-width="1.36211" stroke-linecap="round" stroke-linejoin="round"/>
<path d="M274.846 210.753C274.846 210.753 268.642 221.521 269.469 231.042C270.295 240.563 277.529 241.187 278.978 239.951" stroke="#858585" stroke-width="1.36211" stroke-linecap="round" stroke-linejoin="round"/>
<path d="M314.558 195.02C314.558 195.02 329.444 208.894 331.72 223.595" stroke="#858585" stroke-width="1.36211" stroke-linecap="round" stroke-linejoin="round"/>
<path d="M292.351 234.513L299.317 253.621C299.317 253.621 313.914 270.632 320.235 268.225C326.557 265.829 320.45 248.806 320.235 246.41C320.021 244.013 318.057 232.224 318.057 232.224C318.057 232.224 313.699 239.21 310.866 239.21C308.032 239.21 292.362 234.513 292.362 234.513H292.351Z" fill="white" stroke="#0F0F0F" stroke-width="1.36211" stroke-linecap="round" stroke-linejoin="round"/>
<path d="M286.899 184.306C286.899 184.306 275.522 205.122 275.522 207.97C275.522 210.817 284.28 228.356 286.684 231.859C289.089 235.362 305.725 243.035 309.449 243.25C313.173 243.465 316.887 239.306 317.767 236.018C318.647 232.729 322.35 223.735 322.103 218.738C322.006 216.868 315.266 195.858 313.291 194.762C311.316 193.666 286.899 184.306 286.899 184.306Z" fill="white" stroke="#0F0F0F" stroke-width="1.36211" stroke-linecap="round" stroke-linejoin="round"/>
<path d="M294.348 213.407C294.348 213.407 290.173 211.677 287.736 215.428" stroke="#0F0F0F" stroke-width="1.36211" stroke-linecap="round" stroke-linejoin="round"/>
<path d="M305.413 209.377C305.413 209.377 306.272 204.918 311.456 206.207" stroke="#0F0F0F" stroke-width="1.36211" stroke-linecap="round" stroke-linejoin="round"/>
<path d="M291.75 207.507C291.75 207.507 285.139 207.078 283.121 211.688" stroke="#0F0F0F" stroke-width="1.36211" stroke-linecap="round" stroke-linejoin="round"/>
<path d="M300.669 203.327C300.669 203.327 304.265 198.427 309.299 200.157" stroke="#0F0F0F" stroke-width="1.36211" stroke-linecap="round" stroke-linejoin="round"/>
<path d="M306.712 218.877C306.712 218.877 304.555 222.047 301.388 221.177" stroke="#0F0F0F" stroke-width="1.36211" stroke-linecap="round" stroke-linejoin="round"/>
<path d="M312.894 220.898C312.894 220.898 308.719 227.088 297.213 227.958C297.213 227.958 304.834 233.428 309.299 231.988C313.753 230.548 312.894 220.898 312.894 220.898Z" fill="white" stroke="#0F0F0F" stroke-width="1.36211" stroke-linecap="round" stroke-linejoin="round"/>
<path d="M279.676 219.028C279.676 219.028 275.941 217.298 275.361 221.908C274.782 226.518 284.42 228.098 284.42 228.098L279.676 219.028Z" fill="white" stroke="#0F0F0F" stroke-width="1.36211" stroke-linecap="round" stroke-linejoin="round"/>
<path d="M316.897 202.424C316.897 202.424 316.94 200.544 318.765 201.016C320.6 201.489 323.67 207.002 323.348 210.291C323.026 213.59 320.847 213.665 320.847 213.665L316.887 202.424H316.897Z" fill="white" stroke="#0F0F0F" stroke-width="1.36211" stroke-linecap="round" stroke-linejoin="round"/>
<path d="M287.758 253.395C287.758 253.395 262.267 270.417 261.172 273.469C260.078 276.521 278.603 367.071 278.603 367.071C278.603 367.071 253.981 422.49 260.078 432.087C266.174 441.684 293.854 450.85 295.163 452.591C296.473 454.332 307.581 406.553 312.379 388.446C317.176 370.338 325.022 337.615 325.452 322.119C325.892 306.633 319.57 286.118 317.391 279.358C315.212 272.599 311.295 260.81 311.295 260.81L287.758 253.395Z" fill="#A3A3A3" stroke="#0F0F0F" stroke-width="1.36211" stroke-linecap="round" stroke-linejoin="round"/>
<path d="M294.23 242.605C294.23 242.605 312.164 259.939 311.295 260.81C310.426 261.68 300.186 276.951 300.186 276.951L284.495 254.039L294.23 242.594V242.605Z" fill="#A3A3A3" stroke="#0F0F0F" stroke-width="1.36211" stroke-linecap="round" stroke-linejoin="round"/>
<path d="M323.273 259.939C323.273 259.939 338.964 279.143 345.501 292.888C352.037 306.633 355.085 331.07 355.085 340.667V358.775C355.085 358.775 361.836 404.587 364.015 412.227C366.194 419.868 369.682 434.043 369.682 434.043C369.682 434.043 372.301 433.172 372.075 423.565C371.861 413.968 368.372 374.916 365.324 359.419C362.276 343.934 361.01 318.25 359.045 313.661L357.081 309.083L380.361 302.313C380.361 302.313 365.839 289.148 361.128 268.988C358.981 259.821 354.216 254.91 351.382 252.943C348.549 250.977 327.845 248.795 324.368 249.021C320.879 249.236 323.273 259.929 323.273 259.929V259.939Z" fill="#A3A3A3" stroke="#0F0F0F" stroke-width="1.36211" stroke-linecap="round" stroke-linejoin="round"/>
<path d="M323.273 259.94C323.273 259.94 323.927 257.103 325.237 257.543C326.546 257.984 337.655 264.303 338.75 263.647C339.844 262.992 327.416 247.936 325.022 245.754C322.629 243.573 320.225 242.262 320.225 242.262V246.41L323.273 259.94Z" fill="#A3A3A3" stroke="#0F0F0F" stroke-width="1.36211" stroke-linecap="round" stroke-linejoin="round"/>
<path d="M344.417 260.154C344.417 260.154 352.048 284.807 352.917 295.499L344.417 260.154Z" fill="white"/>
<path d="M344.417 260.154C344.417 260.154 352.048 284.807 352.917 295.499" stroke="#0F0F0F" stroke-width="1.36211" stroke-linecap="round" stroke-linejoin="round"/>
<path d="M348.763 309.491C348.763 309.491 353.196 291.727 354.259 290.663C355.321 289.599 364.015 285.871 364.723 285.688C365.432 285.505 371.109 289.6 372 290.481C372.891 291.373 376.787 293.855 376.079 295.274C375.37 296.692 373.063 295.628 371.818 295.628C370.573 295.628 364.723 299.357 364.369 299.895C364.015 300.432 362.061 304.87 361.353 306.117C360.645 307.363 348.753 309.491 348.753 309.491H348.763Z" fill="white" stroke="#0F0F0F" stroke-width="1.36211" stroke-linecap="round" stroke-linejoin="round"/>
<path d="M373.621 291.921C373.621 291.921 371.281 290.986 370.583 291.34C369.886 291.695 361.6 295.553 361.128 296.133C360.655 296.714 360.076 297.648 360.076 297.648" stroke="#0F0F0F" stroke-width="1.36211" stroke-linecap="round" stroke-linejoin="round"/>
<path d="M357.865 294.962C357.865 294.962 359.26 293.092 360.666 292.275C362.072 291.458 366.966 289.589 367.557 289.352C368.136 289.116 370.358 289.352 370.358 289.352" stroke="#0F0F0F" stroke-width="1.36211" stroke-linecap="round" stroke-linejoin="round"/>
<path d="M366.741 287.246C366.741 287.246 357.403 290.631 356.824 291.459L356.244 292.276" stroke="#0F0F0F" stroke-width="1.36211" stroke-linecap="round" stroke-linejoin="round"/>
<path d="M357.704 306.622C357.704 306.622 366.634 300.292 370.562 298.551C374.49 296.811 382.55 300.077 384.075 302.044C385.599 304.011 387.563 313.392 387.348 320.367C387.133 327.352 386.908 330.404 382.121 331.93C377.324 333.456 370.787 334.326 370.133 334.552C369.478 334.767 368.823 321.463 364.68 314.263C360.537 307.063 357.704 306.622 357.704 306.622Z" fill="#A3A3A3" stroke="#0F0F0F" stroke-width="1.36211" stroke-linecap="round" stroke-linejoin="round"/>
<path d="M346.37 310.985C346.37 310.985 348.549 335.853 350.287 338.915C352.026 341.967 356.384 341.312 360.967 340.226C365.55 339.141 372.301 337.604 372.515 336.078C372.73 334.552 372.515 319.937 370.122 313.822C367.728 307.718 363.585 303.345 360.312 304.226C357.038 305.096 346.37 307.278 346.37 310.985Z" fill="#A3A3A3" stroke="#0F0F0F" stroke-width="1.36211" stroke-linecap="round" stroke-linejoin="round"/>
<path d="M326.224 351.951L352.842 329.028L341.669 321.57L320.375 330.984C320.375 330.984 326.053 346.083 326.235 351.951H326.224Z" fill="white" stroke="#0F0F0F" stroke-width="1.36211" stroke-linecap="round" stroke-linejoin="round"/>
<path d="M313.28 364.567C313.28 364.567 316.114 364.567 320.021 361.365C323.927 358.162 327.469 356.034 326.407 346.975C325.344 337.916 320.912 324.053 318.776 322.28C316.651 320.507 302.988 322.634 302.633 323.526C302.279 324.418 313.452 340.581 314.343 349.995C315.234 359.409 313.28 364.567 313.28 364.567Z" fill="#A3A3A3" stroke="#0F0F0F" stroke-width="1.36211" stroke-linecap="round" stroke-linejoin="round"/>
<path d="M266.431 273.964C266.431 273.964 264.435 270.127 261.172 273.469C257.91 276.811 256.139 286.225 258.446 297.595C260.754 308.965 267.14 356.572 269.619 362.439C272.098 368.307 274.406 373.809 278.849 373.992C283.282 374.174 297.836 372.218 307.774 368.307C317.713 364.395 317.176 352.671 313.806 342.547C310.436 332.424 304.222 324.074 300.498 321.581C296.773 319.099 294.82 315.896 290.913 308.61C287.006 301.324 278.141 282.851 275.651 280.186" fill="#A3A3A3"/>
<path d="M266.431 273.964C266.431 273.964 264.435 270.127 261.172 273.469C257.91 276.811 256.139 286.225 258.446 297.595C260.754 308.965 267.14 356.572 269.619 362.439C272.098 368.307 274.406 373.809 278.849 373.992C283.282 374.174 297.836 372.218 307.774 368.307C317.713 364.395 317.176 352.671 313.806 342.547C310.436 332.424 304.222 324.074 300.498 321.581C296.773 319.099 294.82 315.896 290.913 308.61C287.006 301.324 278.141 282.851 275.651 280.186" stroke="#0F0F0F" stroke-width="1.36211" stroke-linecap="round" stroke-linejoin="round"/>
<path d="M283.765 340.312C282.874 341.129 281.951 341.87 281.007 342.483" stroke="#0F0F0F" stroke-width="1.36211" stroke-linecap="round" stroke-linejoin="round"/>
<path d="M294.702 324.988C294.702 324.988 291.128 332.317 286.062 337.98" stroke="#0F0F0F" stroke-width="1.36211" stroke-linecap="round" stroke-linejoin="round"/>
<path d="M351.243 313.758C351.243 313.758 325.162 316.24 318.421 316.068C311.681 315.886 302.097 312.339 302.097 312.339C302.097 312.339 290.559 307.546 288.08 306.3C285.6 305.053 279.74 305.053 278.141 305.762C276.542 306.472 273 309.32 273.526 311.093C274.063 312.866 276.188 311.63 277.25 310.738C278.313 309.846 280.084 309.137 280.084 309.137L285.761 310.383L286.824 311.802C286.824 311.802 279.021 313.221 277.948 313.758C276.885 314.295 273.869 321.044 273.333 322.462C272.796 323.881 273.333 323.709 274.395 323.709H275.458C275.458 323.709 274.921 326.557 275.994 326.912C277.068 327.266 278.474 326.557 278.474 326.557C278.474 326.557 279.719 327.803 280.245 327.803C280.771 327.803 286.277 324.784 287.167 324.246C288.058 323.709 295.689 325.31 297.632 325.31C299.575 325.31 307.034 325.128 307.034 325.128C307.034 325.128 342.871 335.433 347.669 336.143C352.455 336.852 355.654 336.68 357.425 331.35C359.196 326.02 355.3 314.478 351.21 313.758H351.243Z" fill="white" stroke="#0F0F0F" stroke-width="1.36211" stroke-linecap="round" stroke-linejoin="round"/>
<path d="M278.495 326.546C278.495 326.546 283.282 321.216 284.527 320.507C285.772 319.797 288.251 318.905 288.251 318.905" stroke="#0F0F0F" stroke-width="1.36211" stroke-linecap="round" stroke-linejoin="round"/>
<path d="M275.479 323.698L280.449 317.841L285.772 315.714" stroke="#0F0F0F" stroke-width="1.36211" stroke-linecap="round" stroke-linejoin="round"/>
<path d="M148.477 170.647C148.477 170.647 149.937 171.518 152.266 172.399C154.595 173.28 160.423 175.311 163.052 178.234C165.671 181.157 164.802 188.153 164.802 188.153" stroke="#0F0F0F" stroke-width="1.36211" stroke-linecap="round" stroke-linejoin="round"/>
<path d="M115.205 194.924L112.93 199.824" stroke="#0F0F0F" stroke-width="1.36211" stroke-linecap="round" stroke-linejoin="round"/>
<path d="M96.809 179.513C96.809 179.513 95.2206 187.025 93.6106 188.755C92.0007 190.474 89.457 192.516 90.3049 196.267C91.1528 200.028 96.1007 202.371 96.0792 203.005C96.0685 203.628 87.1065 205.358 87.3534 208.174C87.6002 210.989 90.0151 214.439 90.0151 214.439C90.0151 214.439 83.3929 216.631 82.8348 220.393C82.2767 224.154 84.5306 227.904 84.4984 229.323C84.4662 230.731 80.4736 233.869 81.6649 236.373C82.8563 238.876 85.679 238.565 85.8186 239.038C85.9688 239.51 84.1979 241.542 84.1657 242.799C84.1335 244.056 85.0458 245.152 85.0458 245.152H137.905L122.911 166.865L103.023 174.537L96.7983 179.545L96.809 179.513Z" fill="#0F0F0F" stroke="#0F0F0F" stroke-width="1.36211" stroke-linecap="round" stroke-linejoin="round"/>
<path d="M168.419 357.195C168.419 357.195 179.323 382.041 180.751 388.134C182.178 394.227 182.865 421.373 180.59 431.947C176.458 451.194 164.609 469.442 164.609 469.442H104.569L92.1832 411.55L110.268 355.153L168.419 357.184V357.195Z" fill="white" stroke="#0F0F0F" stroke-width="1.36211" stroke-linecap="round" stroke-linejoin="round"/>
<path d="M158.459 405.07L153.404 418.17L155.808 469.162" stroke="#0F0F0F" stroke-width="1.36211" stroke-linecap="round" stroke-linejoin="round"/>
<path d="M167.464 340.71C167.464 340.71 178.068 349.747 179.345 353.133C180.611 356.518 181.427 378.881 182.007 382.718C182.586 386.554 180.021 390.176 180.021 390.176L170.877 367.361C170.877 367.361 169.997 357.195 169.782 356.518C169.578 355.841 167.904 350.425 167.904 350.425L167.464 340.71Z" fill="white" stroke="#0F0F0F" stroke-width="1.36211" stroke-linecap="round" stroke-linejoin="round"/>
<path d="M176.2 361.483C176.2 361.483 176.329 365.545 176.705 368.489C177.08 371.423 178.304 376.85 175.792 378.204" fill="white"/>
<path d="M176.2 361.483C176.2 361.483 176.329 365.545 176.705 368.489C177.08 371.423 178.304 376.85 175.792 378.204" stroke="#0F0F0F" stroke-width="1.36211" stroke-linecap="round" stroke-linejoin="round"/>
<path d="M128.965 244.497L143.39 244.948L153.704 245.292L165.693 255.34C165.693 255.34 175.76 305.483 176.587 308.642C177.413 311.802 168.043 335.519 167.313 337.776C166.583 340.033 168.419 357.195 168.419 357.195C168.419 357.195 163.804 361.482 148.863 363.514C133.923 365.545 116.708 359.226 116.708 359.226C116.708 359.226 128.031 329.415 130.446 313.381C130.446 313.381 132.55 282.442 131.863 273.63C131.176 264.818 128.965 244.497 128.965 244.497Z" fill="#BE1E2D" stroke="#0F0F0F" stroke-width="1.36211" stroke-linecap="round" stroke-linejoin="round"/>
<path d="M164.952 318.701L141.597 330.565" stroke="#0F0F0F" stroke-width="1.36211" stroke-linecap="round" stroke-linejoin="round"/>
<path d="M163.589 322.774L152.76 328.19" stroke="#0F0F0F" stroke-width="1.36211" stroke-linecap="round" stroke-linejoin="round"/>
<path d="M125.015 227.893C125.015 227.893 133.687 257.973 134.814 263.292C135.941 268.612 147.05 274.877 153.854 271.438C160.659 267.988 158.48 261.412 157.321 257.349C156.173 253.277 153.704 245.292 153.704 245.292L156.334 220.865C156.334 220.865 148.091 231.827 145.086 233.084C142.08 234.341 125.015 227.904 125.015 227.904V227.893Z" fill="white" stroke="#0F0F0F" stroke-width="1.36211" stroke-linecap="round" stroke-linejoin="round"/>
<path d="M141.243 235.803L152.62 246.785L155.411 223.219L141.243 235.803Z" fill="#0F0F0F" stroke="#0F0F0F" stroke-width="1.36211" stroke-linecap="round" stroke-linejoin="round"/>
<path d="M153.017 245.593L152.416 256.371" stroke="#0F0F0F" stroke-width="1.36211" stroke-linecap="round" stroke-linejoin="round"/>
<path d="M153.779 242.799C153.779 242.799 169.846 288.761 171.628 299.153C173.41 309.545 173.807 311.802 173.935 315.412C174.075 319.023 171.177 326.933 171.177 326.933C171.177 326.933 182.565 312.93 182.64 300.733C182.715 288.536 174.44 251.697 170.576 249.461C155.228 240.585 153.779 242.799 153.779 242.799Z" fill="#0F0F0F" stroke="#0F0F0F" stroke-width="1.36211" stroke-linecap="round" stroke-linejoin="round"/>
<path d="M168.698 265.485C168.698 265.485 175.749 286.086 174.622 301.55" stroke="#A3A3A3" stroke-width="1.36211" stroke-linecap="round" stroke-linejoin="round"/>
<path d="M114.175 191.893L121.462 181.555L155.196 215.847C155.196 215.847 153.146 235.889 153.135 236.512C153.124 237.135 155.228 240.585 155.228 240.585C155.228 240.585 156.151 241.37 156.902 242.466C157.654 243.562 156.881 243.562 156.677 245.131C156.484 246.7 157.557 247.484 158.319 248.258C159.081 249.043 160.938 249.827 162.022 250.45C163.106 251.074 162.129 252.481 161.314 253.9C160.498 255.308 159.339 257.973 160.68 260.788C162.022 263.604 162.816 263.142 165.102 265.334C167.399 267.526 164.061 269.558 164.061 269.558C164.061 269.558 165.789 269.085 167.217 268.623C168.633 268.15 169.299 266.591 168.698 265.495C168.097 264.399 166.938 260.799 167.421 260.176C167.904 259.553 172.336 257.36 173.635 255.63C174.923 253.911 173.528 253.599 174.633 252.965C175.739 252.342 177.971 250.934 178.486 248.742C179.012 246.549 176.415 243.884 177.22 243.1C178.025 242.315 181.03 237.49 181.062 236.082C181.094 234.675 179.313 232.289 179.313 232.289C179.313 232.289 180.472 231.354 181.212 226.808C181.953 222.262 178.39 220.855 178.132 218.351C177.885 215.847 181.556 212.397 181.62 203.628C181.674 194.859 167.195 192.194 166.755 191.098C166.315 190.002 166.82 188.282 166.573 185.929C166.315 183.575 160.627 179.513 160.627 179.513C160.627 179.513 161.314 177.16 161.818 175.601C162.323 174.032 161.582 172.625 158.824 170.121C156.065 167.617 142.746 155.871 137.154 154.613C131.551 153.356 122.182 159.471 121.065 160.094C119.96 160.717 111.095 158.525 108.379 160.717C105.664 162.91 104.794 166.671 104.129 168.229C103.463 169.787 101.124 169.798 99.6747 171.356C98.2258 172.925 95.8646 186.541 95.8646 186.541" fill="#0F0F0F"/>
<path d="M114.175 191.893L121.462 181.555L155.196 215.847C155.196 215.847 153.146 235.889 153.135 236.512C153.124 237.135 155.228 240.585 155.228 240.585C155.228 240.585 156.151 241.37 156.902 242.466C157.654 243.562 156.881 243.562 156.677 245.131C156.484 246.7 157.557 247.484 158.319 248.258C159.081 249.043 160.938 249.827 162.022 250.45C163.106 251.074 162.129 252.481 161.314 253.9C160.498 255.308 159.339 257.973 160.68 260.788C162.022 263.604 162.816 263.142 165.102 265.334C167.399 267.526 164.061 269.558 164.061 269.558C164.061 269.558 165.789 269.085 167.217 268.623C168.633 268.15 169.299 266.592 168.698 265.495C168.097 264.399 166.938 260.799 167.421 260.176C167.904 259.553 172.336 257.36 173.635 255.63C174.923 253.911 173.528 253.599 174.633 252.965C175.739 252.342 177.971 250.934 178.486 248.742C179.012 246.549 176.415 243.884 177.22 243.1C178.025 242.315 181.03 237.49 181.062 236.082C181.094 234.675 179.313 232.289 179.313 232.289C179.313 232.289 180.472 231.354 181.212 226.808C181.953 222.262 178.39 220.855 178.132 218.351C177.885 215.847 181.556 212.397 181.62 203.628C181.674 194.859 167.195 192.194 166.755 191.098C166.315 190.002 166.82 188.282 166.573 185.929C166.315 183.575 160.627 179.513 160.627 179.513C160.627 179.513 161.314 177.16 161.818 175.601C162.323 174.032 161.582 172.625 158.824 170.121C156.065 167.617 142.746 155.871 137.154 154.613C131.551 153.356 122.182 159.471 121.065 160.094C119.96 160.717 111.095 158.525 108.379 160.717C105.664 162.91 104.794 166.671 104.129 168.229C103.463 169.787 101.124 169.798 99.6747 171.356C98.2258 172.925 95.8646 186.541 95.8646 186.541" stroke="#0F0F0F" stroke-width="1.36211" stroke-linecap="round" stroke-linejoin="round"/>
<path d="M128.063 239.414C128.063 239.414 144.388 296.896 145.118 304.344C145.848 311.791 120.293 360.58 115.087 370.746C109.882 380.912 98.5263 411.851 96.691 422.469C94.8557 433.086 93.4175 445.735 93.4175 445.735C93.4175 445.735 79.8189 439.19 70.9321 433.537C62.0453 427.885 60.5427 424.725 61.251 423.597C61.9594 422.469 65.673 408.466 65.673 408.466C65.673 408.466 57.9882 399.88 58.4605 398.977C58.9327 398.074 76.4059 338.002 76.4059 338.002C76.4059 338.002 80.9995 241.337 82.8134 241.337C84.6272 241.337 128.074 239.414 128.074 239.414H128.063Z" fill="#0F0F0F" stroke="#0F0F0F" stroke-width="1.36211" stroke-linecap="round" stroke-linejoin="round"/>
<path d="M126.41 266.86L145.107 304.344" stroke="#A3A3A3" stroke-width="1.36211" stroke-linecap="round" stroke-linejoin="round"/>
<path d="M93.6106 242.003C93.6106 242.003 80.1409 239.295 77.8011 242.906C75.4614 246.517 54.8006 307.729 53.5341 313.371C52.2676 319.013 90.9596 360.795 90.9596 360.795L110.912 347.469L87.3534 314.273L100.233 266.849" fill="#0F0F0F"/>
<path d="M93.6107 242.003C93.6107 242.003 80.1409 239.295 77.8011 242.906C75.4614 246.517 54.8006 307.729 53.5341 313.371C52.2676 319.013 90.9596 360.795 90.9596 360.795L110.912 347.469L87.3534 314.273L100.233 266.849" stroke="#0F0F0F" stroke-width="1.36211" stroke-linecap="round" stroke-linejoin="round"/>
<path d="M96.8413 281.594L87.2246 311.35L108.744 343.644" stroke="#A3A3A3" stroke-width="1.36211" stroke-linecap="round" stroke-linejoin="round"/>
<path d="M99.4708 272.255L98.0863 276.661" stroke="#A3A3A3" stroke-width="1.36211" stroke-linecap="round" stroke-linejoin="round"/>
<path d="M108.744 343.644L87.0958 361.708L94.3298 370.52L117.094 352.896L108.744 343.644Z" fill="white" stroke="#0F0F0F" stroke-width="1.36211" stroke-linecap="round" stroke-linejoin="round"/>
<path d="M115.484 353.81C115.484 353.81 133.494 373.68 135.512 374.593C137.519 375.496 141.479 379.784 142.553 381.826C143.626 383.857 145.139 386.565 146.695 387.693C148.252 388.822 148.445 390.176 145.719 390.853C142.993 391.53 140.513 391.755 139.011 388.596C137.508 385.436 135.093 382.503 135.093 382.503L119.702 394.023C119.702 394.023 116.386 381.826 115.999 379.343C115.613 376.861 114.808 372.799 114.808 372.799L104.451 362.858L115.495 353.82L115.484 353.81Z" fill="white" stroke="#0F0F0F" stroke-width="1.36211" stroke-linecap="round" stroke-linejoin="round"/>
<path d="M90.2512 225.551C90.2512 225.551 88.7594 235.567 89.6073 239.016C90.5088 242.659 97.8394 242.014 96.3368 246.85C95.8538 248.409 93.9541 250.074 94.5551 251.847C95.1669 253.664 97.5496 253.771 98.8698 254.792C101.306 256.683 100.437 258.714 101.263 261.401C101.864 263.335 103.925 264.012 104.483 265.549C105.148 267.365 103.871 268.504 105.889 270.482C109.399 273.931 112.05 274.555 112.522 274.243C112.994 273.931 112.082 273.147 114.293 272.051C116.504 270.955 120.776 268.923 120.046 267.193C119.316 265.495 118.586 263.797 118.575 263.765C119.606 266.14 122.815 263.744 123.684 262.486C125.68 259.628 122.622 256.554 122.987 253.459C123.384 250.042 127.226 248.28 127.655 244.83C128.074 241.456 124.575 239.124 125.337 236.029C125.68 234.621 125.874 233.052 125.874 233.052C125.874 233.052 124.854 229.925 123.319 228.828C121.784 227.732 121.259 223.348 121.14 221.779" fill="#0F0F0F"/>
<path d="M90.2512 225.551C90.2512 225.551 88.7594 235.567 89.6073 239.016C90.5088 242.659 97.8394 242.014 96.3368 246.85C95.8538 248.409 93.9541 250.074 94.5551 251.847C95.1669 253.664 97.5496 253.771 98.8698 254.792C101.306 256.683 100.437 258.714 101.263 261.401C101.864 263.335 103.925 264.012 104.483 265.549C105.148 267.365 103.871 268.504 105.889 270.482C109.399 273.931 112.05 274.555 112.522 274.243C112.994 273.931 112.082 273.147 114.293 272.051C116.504 270.955 120.776 268.923 120.046 267.193C119.316 265.495 118.586 263.797 118.575 263.765C119.606 266.14 122.815 263.744 123.684 262.486C125.68 259.628 122.622 256.554 122.987 253.459C123.384 250.042 127.226 248.28 127.655 244.83C128.074 241.456 124.575 239.124 125.337 236.029C125.68 234.621 125.874 233.052 125.874 233.052C125.874 233.052 124.854 229.925 123.319 228.828C121.784 227.732 121.259 223.348 121.14 221.779" stroke="#0F0F0F" stroke-width="1.36211" stroke-linecap="round" stroke-linejoin="round"/>
<path d="M118.382 175.902C118.382 175.902 105.739 194.311 106.705 198.201C107.671 202.091 117.32 227.055 120.615 229.527C123.91 232.009 137.208 237.845 141.619 238.027C146.03 238.199 149.261 236.437 151.096 233.428C152.931 230.419 159.951 218.211 160.015 215.557C160.079 212.902 154.423 187.422 153.371 187.068C152.319 186.713 118.382 175.913 118.382 175.913V175.902Z" fill="white" stroke="#0F0F0F" stroke-width="1.36211" stroke-linecap="round" stroke-linejoin="round"/>
<path d="M137.701 195.461C137.701 195.461 137.336 200.372 137.787 201.973C138.238 203.574 142.392 209.345 142.488 210.323C142.585 211.301 140.964 212.29 138.742 213.149" stroke="#0F0F0F" stroke-width="1.36211" stroke-linecap="round" stroke-linejoin="round"/>
<path d="M109.173 205.821C109.173 205.821 106.404 203.338 104.923 206.347C103.431 209.356 104.58 213.429 109.27 216.793C113.96 220.156 115.023 220.156 115.023 220.156L109.184 205.821H109.173Z" fill="white" stroke="#0F0F0F" stroke-width="1.36211" stroke-linecap="round" stroke-linejoin="round"/>
<path d="M155.432 193.43C155.432 193.43 157.933 192.194 159.092 195.375C160.251 198.556 158.459 206.702 158.459 206.702L155.421 193.43H155.432Z" fill="white" stroke="#0F0F0F" stroke-width="1.36211" stroke-linecap="round" stroke-linejoin="round"/>
<path d="M131.455 219.576C131.455 219.576 139.622 218.953 141.619 217.964C143.615 216.975 147.103 212.945 147.103 212.945C147.103 212.945 147.103 221.8 142.789 223.326C139.762 224.39 131.455 219.576 131.455 219.576Z" fill="white" stroke="#0F0F0F" stroke-width="1.36211" stroke-linecap="round" stroke-linejoin="round"/>
<path d="M118.082 200.254C118.082 200.254 118.683 195.59 126.797 194.73L118.082 200.254Z" fill="white"/>
<path d="M118.082 200.254C118.082 200.254 118.683 195.59 126.797 194.73" stroke="#0F0F0F" stroke-width="1.36211" stroke-linecap="round" stroke-linejoin="round"/>
<path d="M137.583 191.442C137.583 191.442 142.563 187.111 147.962 192.387L137.583 191.442Z" fill="white"/>
<path d="M137.583 191.442C137.583 191.442 142.563 187.111 147.962 192.387" stroke="#0F0F0F" stroke-width="1.36211" stroke-linecap="round" stroke-linejoin="round"/>
<path d="M128.149 202.629C128.578 204.069 128.117 205.498 127.119 205.81C126.121 206.132 124.972 205.219 124.543 203.779C124.113 202.339 124.575 200.909 125.573 200.598C126.571 200.275 127.72 201.189 128.149 202.629Z" fill="#0F0F0F"/>
<path d="M144.839 197.997C145.268 199.437 144.806 200.866 143.808 201.178C142.81 201.5 141.662 200.587 141.232 199.147C140.803 197.707 141.265 196.278 142.263 195.966C143.261 195.643 144.409 196.557 144.839 197.997Z" fill="#0F0F0F"/>
<path d="M489.396 469.441H8.82089" stroke="#0F0F0F" stroke-width="1.36211" stroke-linecap="round" stroke-linejoin="round"/>
<path d="M514.919 469.441H497.049" stroke="#0F0F0F" stroke-width="1.36211" stroke-linecap="round" stroke-linejoin="round"/>
</svg>
