<svg width="30" height="30" viewBox="0 0 30 30" fill="none" xmlns="http://www.w3.org/2000/svg">
<path d="M8.30762 3.75C9.32976 3.75008 10.2492 4.37226 10.6289 5.32129L11.6455 7.86426C12.1284 9.07146 11.6053 10.4468 10.4424 11.0283L10 11.25C10 11.25 10.625 14.375 13.125 16.875C15.625 19.375 18.75 20 18.75 20L18.9717 19.5576C19.5532 18.3947 20.9285 17.8716 22.1357 18.3545L24.6787 19.3711C25.6277 19.7508 26.2499 20.6702 26.25 21.6924V23.75C26.25 25.1307 25.1307 26.25 23.75 26.25C12.7043 26.25 3.75 17.2957 3.75 6.25C3.75 4.86929 4.86929 3.75 6.25 3.75H8.30762ZM16.25 7.8125C17.0297 7.8125 17.8021 7.96626 18.5225 8.26465C19.2427 8.56303 19.897 9.00049 20.4482 9.55176C20.9995 10.103 21.437 10.7573 21.7354 11.4775C22.0337 12.1979 22.1875 12.9703 22.1875 13.75C22.1875 14.2678 21.7678 14.6875 21.25 14.6875C20.7322 14.6875 20.3125 14.2678 20.3125 13.75C20.3125 13.2165 20.2071 12.6882 20.0029 12.1953C19.7988 11.7025 19.5002 11.2542 19.123 10.877C18.7458 10.4998 18.2975 10.2012 17.8047 9.99707C17.3118 9.79291 16.7835 9.6875 16.25 9.6875C15.7322 9.6875 15.3125 9.26777 15.3125 8.75C15.3125 8.23223 15.7322 7.8125 16.25 7.8125ZM16.25 2.8125C17.6863 2.8125 19.1085 3.09585 20.4355 3.64551C21.7625 4.19517 22.9688 5.00001 23.9844 6.01562C25 7.03124 25.8048 8.2375 26.3545 9.56445C26.9042 10.8915 27.1875 12.3137 27.1875 13.75C27.1875 14.2678 26.7678 14.6875 26.25 14.6875C25.7322 14.6875 25.3125 14.2678 25.3125 13.75C25.3125 12.56 25.0784 11.3816 24.623 10.2822C24.1676 9.18271 23.4997 8.18333 22.6582 7.3418C21.8167 6.50027 20.8173 5.83239 19.7178 5.37695C18.6184 4.92163 17.44 4.6875 16.25 4.6875C15.7322 4.6875 15.3125 4.26777 15.3125 3.75C15.3125 3.23223 15.7322 2.8125 16.25 2.8125Z" fill="#ED1C24"/>
</svg>
