<svg width="45" height="45" viewBox="0 0 45 45" fill="none" xmlns="http://www.w3.org/2000/svg">
<path d="M11.5096 35.3163L14.7548 33.0057C14.8933 32.8327 15.101 32.7288 15.3173 32.7029L11.6827 30.1586C10.6702 29.449 9.44134 29.0769 8.2298 29.0769L11.5096 35.3163ZM15.6375 32.7202C15.7933 32.7461 15.949 32.8154 16.0702 32.9279L19.4279 35.3163L22.6904 29.0856C21.4529 29.0769 20.1981 29.4577 19.1683 30.1933L15.6375 32.7202Z" fill="white"/>
<path d="M25.174 29.6568C24.949 29.5443 24.7154 29.4491 24.4817 29.3798C24.4731 29.4231 24.4558 29.4577 24.4385 29.4923L20.501 37.0039C20.3798 37.2202 20.1721 37.3847 19.9298 37.4452C19.8692 37.4539 19.8 37.4625 19.7308 37.4625C19.549 37.4625 19.376 37.4106 19.2288 37.3068L15.4644 34.6241L11.7 37.3068C11.501 37.4539 11.2413 37.4972 10.999 37.4452C10.7567 37.3847 10.549 37.2202 10.4365 37.0039L6.49903 29.4923C6.47307 29.4491 6.45576 29.4058 6.44711 29.3539C6.19615 29.4318 5.95384 29.5356 5.72019 29.6481C2.78653 31.0847 0.960571 34.0097 0.960571 37.2722V43.2693C0.960571 43.7452 1.34999 44.1347 1.82596 44.1347H29.051C29.5356 44.1347 29.9163 43.7452 29.9163 43.2693V37.2722C29.9163 34.0183 28.099 31.0933 25.174 29.6568Z" fill="white"/>
<path d="M23.9452 17.7577C22.0154 18.8827 19.3154 19.5404 16.5375 19.5404C15.2481 19.5404 13.9846 19.4019 12.7991 19.1423C12.1067 21.6 10.6183 23.2442 8.7404 23.5125C8.60194 23.5298 8.46347 23.5471 8.32501 23.5558C9.81347 27.0606 12.4529 30.0635 15.4991 30.0635C20.1721 30.0635 23.9539 22.7683 23.9539 18.0087C23.9539 17.9221 23.9539 17.8356 23.9452 17.7577Z" fill="white"/>
<path d="M8.04807 21.8163C8.08269 21.825 8.16923 21.825 8.19519 21.825C8.29038 21.825 8.37692 21.8163 8.47211 21.799C9.99519 21.6 11.1981 19.6355 11.449 16.9529C12.9288 17.5067 14.6856 17.8096 16.5375 17.8096C19.0298 17.8096 21.4183 17.2384 23.0885 16.2519C24.6462 15.3432 25.5115 14.1057 25.5115 12.773C25.5115 9.95189 21.5654 7.73651 16.5375 7.73651C12.6519 7.73651 9.35481 9.04324 8.10865 11.0163C6.66346 11.4404 5.56442 13.4827 5.39134 16.1827C5.19231 19.2807 6.35192 21.7038 8.04807 21.8163ZM43.174 0.865356H27.8048C27.3288 0.865356 26.9394 1.25478 26.9394 1.73074V13.3875C26.9394 13.8634 27.3288 14.2529 27.8048 14.2529H28.6962L28.9817 18.199C29.0077 18.5279 29.2154 18.8134 29.5096 18.9346C29.6221 18.9779 29.7346 19.0038 29.8471 19.0038C30.0462 19.0038 30.2452 18.9346 30.4096 18.7961L35.7923 14.2529H43.174C43.65 14.2529 44.0394 13.8634 44.0394 13.3875V1.73074C44.0394 1.25478 43.65 0.865356 43.174 0.865356ZM39.674 10.4733H31.3033C30.8249 10.4733 30.4379 10.0859 30.4379 9.6079C30.4379 9.13004 30.8249 8.74252 31.3033 8.74252H39.674C40.1523 8.74252 40.5394 9.13004 40.5394 9.6079C40.5394 10.0859 40.1523 10.4733 39.674 10.4733ZM39.674 6.37751H31.3033C30.8249 6.37751 30.4379 5.99008 30.4379 5.51212C30.4379 5.03426 30.8249 4.64674 31.3033 4.64674H39.674C40.1523 4.64674 40.5394 5.03426 40.5394 5.51212C40.5394 5.99008 40.1523 6.37751 39.674 6.37751Z" fill="white"/>
</svg>
