<svg width="26" height="26" viewBox="0 0 26 26" fill="none" xmlns="http://www.w3.org/2000/svg">
<path d="M12.7746 2.12901C10.6691 2.12901 8.61101 2.75334 6.86043 3.92305C5.10984 5.09275 3.74542 6.7553 2.93971 8.70045C2.13401 10.6456 1.9232 12.786 2.33394 14.8509C2.74469 16.9159 3.75854 18.8127 5.2473 20.3014C6.73605 21.7902 8.63283 22.804 10.6978 23.2148C12.7628 23.6255 14.9031 23.4147 16.8483 22.609C18.7934 21.8033 20.456 20.4389 21.6257 18.6883C22.7954 16.9377 23.4197 14.8796 23.4197 12.7742C22.6799 13.002 21.892 13.0238 21.1407 12.8373C20.3894 12.6507 19.7031 12.2629 19.1557 11.7156C18.6084 11.1682 18.2206 10.482 18.034 9.73065C17.8475 8.97936 17.8693 8.19142 18.0971 7.45159C17.3573 7.6794 16.5694 7.70121 15.8181 7.51469C15.0668 7.32817 14.3805 6.94036 13.8332 6.39299C13.2858 5.84561 12.898 5.15937 12.7115 4.40807C12.5249 3.65677 12.5468 2.86884 12.7746 2.12901Z" stroke="white" stroke-width="1.77419" stroke-linecap="round" stroke-linejoin="round"/>
<path d="M9.04883 9.04837V9.05902" stroke="white" stroke-width="1.77419" stroke-linecap="round" stroke-linejoin="round"/>
<path d="M17.0327 16.5V16.5106" stroke="white" stroke-width="1.77419" stroke-linecap="round" stroke-linejoin="round"/>
<path d="M12.7744 12.7742V12.7848" stroke="white" stroke-width="1.77419" stroke-linecap="round" stroke-linejoin="round"/>
<path d="M11.71 18.0968V18.1074" stroke="white" stroke-width="1.77419" stroke-linecap="round" stroke-linejoin="round"/>
<path d="M7.45166 14.9032V14.9138" stroke="white" stroke-width="1.77419" stroke-linecap="round" stroke-linejoin="round"/>
</svg>
