<svg width="45" height="45" viewBox="0 0 45 45" fill="none" xmlns="http://www.w3.org/2000/svg">
<path fill-rule="evenodd" clip-rule="evenodd" d="M18.0883 8.20233C17.3446 10.0768 16.7393 12.3538 16.3303 14.91C18.3093 14.7288 20.4002 14.6323 22.5577 14.6323C24.7152 14.6323 26.8061 14.7288 28.7851 14.91C28.376 12.3538 27.7707 10.0768 27.027 8.20233C26.3121 6.40064 25.5003 5.04898 24.6792 4.17366C23.8612 3.30169 23.1438 3.00882 22.5577 3.00882C21.9715 3.00882 21.2541 3.30169 20.4361 4.17366C19.615 5.04898 18.8032 6.40064 18.0883 8.20233ZM15.1689 7.02502C14.2409 9.36393 13.5288 12.1814 13.0924 15.2962C10.9441 15.6156 8.98364 16.0418 7.28327 16.5561C5.30479 17.1545 3.58917 17.8985 2.33307 18.7967C2.17438 18.9101 2.01774 19.0301 1.86533 19.1565C3.25182 10.5164 9.83416 3.63153 18.2762 1.86524C18.2343 1.90819 18.1928 1.95163 18.1516 1.99551C16.9664 3.25902 15.9714 5.00229 15.1689 7.02502ZM26.8392 1.86523C26.881 1.90819 26.9226 1.95163 26.9637 1.99551C28.149 3.25902 29.1439 5.00229 29.9464 7.02502C30.8744 9.36393 31.5865 12.1814 32.0229 15.2962C34.1712 15.6156 36.1317 16.0418 37.8321 16.5561C39.8105 17.1545 41.5261 17.8985 42.7822 18.7967C42.9409 18.9101 43.0976 19.0301 43.25 19.1565C41.8635 10.5164 35.2812 3.63152 26.8392 1.86523ZM43.2501 25.9581C43.0976 26.0845 42.941 26.2045 42.7822 26.318C41.5261 27.2162 39.8105 27.9602 37.8321 28.5586C36.1317 29.0729 34.1712 29.4991 32.0229 29.8185C31.5865 32.9332 30.8744 35.7507 29.9464 38.0896C29.1439 40.1124 28.149 41.8556 26.9637 43.1192C26.9224 43.1633 26.8806 43.2069 26.8385 43.2501C35.281 41.4839 41.8638 34.5986 43.2501 25.9581ZM18.2768 43.2501C18.2347 43.2069 18.193 43.1632 18.1516 43.1192C16.9664 41.8556 15.9714 40.1124 15.1689 38.0896C14.2409 35.7507 13.5288 32.9332 13.0924 29.8185C10.9441 29.4991 8.98364 29.0729 7.28327 28.5586C5.30479 27.9602 3.58917 27.2162 2.33307 26.318C2.17434 26.2045 2.01768 26.0845 1.86523 25.9581C3.25155 34.5986 9.83429 41.4839 18.2768 43.2501ZM8.18679 25.5223C9.52038 25.9256 11.0548 26.2752 12.746 26.5558C12.6502 25.256 12.6005 23.9194 12.6005 22.5573C12.6005 21.1952 12.6502 19.8587 12.746 18.5589C11.0548 18.8394 9.52038 19.1891 8.18679 19.5924C6.37182 20.1413 5.01758 20.7635 4.15217 21.3823C3.24593 22.0304 3.16747 22.4504 3.16747 22.5573C3.16747 22.6643 3.24593 23.0843 4.15217 23.7323C5.01758 24.3512 6.37182 24.9733 8.18679 25.5223ZM15.7449 22.5573C15.7449 24.0815 15.8108 25.5618 15.9348 26.9813C18.0018 27.195 20.2294 27.3124 22.5577 27.3124C24.8859 27.3124 27.1136 27.195 29.1806 26.9813C29.3045 25.5618 29.3704 24.0815 29.3704 22.5573C29.3704 21.0332 29.3045 19.5529 29.1806 18.1333C27.1136 17.9196 24.8859 17.8023 22.5577 17.8023C20.2294 17.8023 18.0018 17.9196 15.9348 18.1333C15.8108 19.5529 15.7449 21.0332 15.7449 22.5573ZM18.0883 36.9123C17.3446 35.0378 16.7393 32.7609 16.3303 30.2046C18.3093 30.3859 20.4002 30.4824 22.5577 30.4824C24.7152 30.4824 26.8061 30.3859 28.7851 30.2046C28.376 32.7609 27.7707 35.0378 27.027 36.9123C26.3121 38.714 25.5003 40.0657 24.6792 40.941C23.8612 41.813 23.1438 42.1058 22.5577 42.1058C21.9715 42.1058 21.2541 41.813 20.4361 40.941C19.615 40.0657 18.8032 38.714 18.0883 36.9123ZM36.9285 25.5223C35.5949 25.9256 34.0605 26.2752 32.3694 26.5558C32.4651 25.256 32.5148 23.9194 32.5148 22.5573C32.5148 21.1952 32.4651 19.8587 32.3694 18.5589C34.0605 18.8394 35.5949 19.1891 36.9285 19.5924C38.7435 20.1413 40.0977 20.7635 40.9631 21.3823C41.8694 22.0304 41.9478 22.4504 41.9478 22.5573C41.9478 22.6643 41.8694 23.0843 40.9631 23.7323C40.0977 24.3512 38.7435 24.9733 36.9285 25.5223Z" fill="white"/>
</svg>
