<svg width="29" height="20" viewBox="0 0 29 20" fill="none" xmlns="http://www.w3.org/2000/svg">
<path d="M28.5714 17.1429V4.28571C28.5714 4.28571 15.5714 13.3571 14.3071 13.8279C13.0643 13.3786 0 4.28571 0 4.28571V17.1429C0 18.9286 0.378571 19.2857 2.14286 19.2857H26.4286C28.235 19.2857 28.5714 18.9721 28.5714 17.1429ZM28.5507 1.765C28.5507 0.464286 28.1714 0 26.4286 0H2.14286C0.35 0 0 0.557143 0 1.85714L0.0214286 2.05714C0.0214286 2.05714 12.9279 10.9429 14.3071 11.4286C15.7643 10.8643 28.5714 1.85714 28.5714 1.85714L28.5507 1.765Z" fill="#ED1C24"/>
</svg>
