<svg width="19" height="14" viewBox="0 0 19 14" fill="none" xmlns="http://www.w3.org/2000/svg">
<path d="M17.3666 2.78369V11.117C17.3666 11.6696 17.1471 12.1995 16.7564 12.5902C16.3657 12.9809 15.8358 13.2004 15.2833 13.2004H2.78328C2.23075 13.2004 1.70085 12.9809 1.31015 12.5902C0.919444 12.1995 0.699951 11.6696 0.699951 11.117V2.78369" stroke="#ED1C24" stroke-width="1.4" stroke-linecap="round" stroke-linejoin="round"/>
<path d="M17.3666 2.78353C17.3666 2.23099 17.1471 1.70109 16.7564 1.31039C16.3657 0.919689 15.8358 0.700195 15.2833 0.700195H2.78328C2.23075 0.700195 1.70085 0.919689 1.31015 1.31039C0.919444 1.70109 0.699951 2.23099 0.699951 2.78353L7.92912 7.29742C8.26023 7.50436 8.64283 7.61409 9.03328 7.61409C9.42374 7.61409 9.80634 7.50436 10.1375 7.29742L17.3666 2.78353Z" stroke="#ED1C24" stroke-width="1.4" stroke-linecap="round" stroke-linejoin="round"/>
</svg>
