<svg width="25" height="25" viewBox="0 0 25 25" fill="none" xmlns="http://www.w3.org/2000/svg">
<path fill-rule="evenodd" clip-rule="evenodd" d="M9.80017 3.82816C9.35089 4.96052 8.98522 6.336 8.73814 7.88019C9.93362 7.77068 11.1967 7.7124 12.5 7.7124C13.8033 7.7124 15.0664 7.77068 16.2619 7.88019C16.0148 6.336 15.6492 4.96052 15.1999 3.82816C14.7681 2.73978 14.2776 1.92326 13.7816 1.39449C13.2875 0.867746 12.8541 0.690828 12.5 0.690828C12.146 0.690828 11.7126 0.867746 11.2184 1.39449C10.7224 1.92326 10.232 2.73978 9.80017 3.82816ZM8.03656 3.11696C7.47597 4.52986 7.04583 6.23187 6.78219 8.11346C5.48444 8.30642 4.30014 8.56387 3.27296 8.87454C2.07779 9.23602 1.04141 9.68546 0.282613 10.2281C0.186749 10.2966 0.0921269 10.3691 5.73052e-05 10.4454C0.837617 5.22608 4.81393 1.067 9.91363 1.58051e-06C9.88833 0.025952 9.86324 0.0521885 9.83838 0.0786983C9.12239 0.84197 8.52136 1.89506 8.03656 3.11696ZM15.0864 0C15.1117 0.0259509 15.1368 0.0521879 15.1617 0.0786983C15.8777 0.84197 16.4787 1.89506 16.9635 3.11696C17.5241 4.52986 17.9542 6.23187 18.2179 8.11346C19.5156 8.30642 20.6999 8.56387 21.7271 8.87454C22.9223 9.23602 23.9586 9.68546 24.7174 10.2281C24.8133 10.2966 24.9079 10.3691 25 10.4454C24.1624 5.22608 20.1861 1.06699 15.0864 0ZM25.0001 14.5542C24.908 14.6306 24.8133 14.703 24.7174 14.7716C23.9586 15.3142 22.9223 15.7636 21.7271 16.1251C20.6999 16.4358 19.5156 16.6932 18.2179 16.8862C17.9542 18.7678 17.5241 20.4698 16.9635 21.8827C16.4787 23.1046 15.8777 24.1577 15.1617 24.921C15.1367 24.9476 15.1115 24.974 15.086 25C20.1861 23.9332 24.1626 19.7738 25.0001 14.5542ZM9.91401 25C9.88858 24.974 9.86337 24.9476 9.83838 24.921C9.12239 24.1577 8.52136 23.1046 8.03656 21.8827C7.47597 20.4698 7.04583 18.7678 6.78219 16.8862C5.48444 16.6932 4.30014 16.4358 3.27296 16.1251C2.07779 15.7636 1.04141 15.3142 0.282612 14.7716C0.186729 14.703 0.0920876 14.6306 0 14.5542C0.837456 19.7738 4.81401 23.9332 9.91401 25ZM3.81877 14.2909C4.62438 14.5346 5.55128 14.7458 6.57291 14.9153C6.51508 14.13 6.48506 13.3227 6.48506 12.4998C6.48506 11.677 6.51508 10.8696 6.57291 10.0844C5.55128 10.2539 4.62438 10.4651 3.81877 10.7088C2.72237 11.0404 1.90429 11.4162 1.38151 11.79C0.83406 12.1815 0.786665 12.4352 0.786665 12.4998C0.786665 12.5644 0.83406 12.8182 1.38151 13.2096C1.90429 13.5835 2.72237 13.9593 3.81877 14.2909ZM8.38452 12.4998C8.38452 13.4206 8.42434 14.3148 8.49922 15.1723C9.74786 15.3014 11.0936 15.3723 12.5 15.3723C13.9065 15.3723 15.2522 15.3014 16.5008 15.1723C16.5757 14.3148 16.6155 13.4206 16.6155 12.4998C16.6155 11.5791 16.5757 10.6849 16.5008 9.82734C15.2522 9.69825 13.9065 9.62737 12.5 9.62737C11.0936 9.62737 9.74786 9.69825 8.49922 9.82734C8.42434 10.6849 8.38452 11.5791 8.38452 12.4998ZM9.80017 21.1715C9.35089 20.0391 8.98522 18.6637 8.73814 17.1195C9.93362 17.229 11.1967 17.2873 12.5 17.2873C13.8033 17.2873 15.0664 17.229 16.2619 17.1195C16.0148 18.6637 15.6492 20.0391 15.1999 21.1715C14.7681 22.2599 14.2776 23.0764 13.7816 23.6052C13.2875 24.1319 12.8541 24.3088 12.5 24.3088C12.146 24.3088 11.7126 24.1319 11.2184 23.6052C10.7224 23.0764 10.232 22.2599 9.80017 21.1715ZM21.1813 14.2909C20.3757 14.5346 19.4488 14.7458 18.4271 14.9153C18.485 14.13 18.515 13.3227 18.515 12.4998C18.515 11.677 18.485 10.8696 18.4271 10.0844C19.4488 10.2539 20.3757 10.4651 21.1813 10.7088C22.2777 11.0404 23.0958 11.4162 23.6185 11.79C24.166 12.1815 24.2134 12.4352 24.2134 12.4998C24.2134 12.5644 24.166 12.8182 23.6185 13.2096C23.0958 13.5835 22.2777 13.9593 21.1813 14.2909Z" fill="#ED1C24"/>
</svg>
