<svg width="24" height="24" viewBox="0 0 24 24" fill="none" xmlns="http://www.w3.org/2000/svg">
<path d="M11.25 4.5C12.1797 4.5 13.0547 4.67578 13.875 5.02734C14.6953 5.37891 15.4102 5.86328 16.0195 6.48047C16.6289 7.09766 17.1094 7.8125 17.4609 8.625C17.8125 9.4375 17.9922 10.3125 18 11.25C18 11.7422 17.9688 12.2031 17.9062 12.6328C17.8438 13.0625 17.7461 13.4727 17.6133 13.8633C17.4805 14.2539 17.3086 14.6406 17.0977 15.0234C16.8867 15.4062 16.6367 15.7969 16.3477 16.1953C16.1211 16.5078 15.9219 16.7891 15.75 17.0391C15.5781 17.2891 15.4375 17.5391 15.3281 17.7891C15.2188 18.0391 15.1367 18.3125 15.082 18.6094C15.0273 18.9062 15 19.2539 15 19.6523V21.75C15 22.0625 14.9414 22.3555 14.8242 22.6289C14.707 22.9023 14.5469 23.1406 14.3438 23.3438C14.1406 23.5469 13.9023 23.707 13.6289 23.8242C13.3555 23.9414 13.0625 24 12.75 24H9.75C9.4375 24 9.14453 23.9414 8.87109 23.8242C8.59766 23.707 8.35938 23.5469 8.15625 23.3438C7.95312 23.1406 7.79297 22.9023 7.67578 22.6289C7.55859 22.3555 7.5 22.0625 7.5 21.75V19.6406C7.5 19.2422 7.47266 18.8984 7.41797 18.6094C7.36328 18.3203 7.28125 18.0508 7.17188 17.8008C7.0625 17.5508 6.92188 17.2969 6.75 17.0391C6.57812 16.7812 6.37891 16.5 6.15234 16.1953C5.86328 15.7969 5.61719 15.4102 5.41406 15.0352C5.21094 14.6602 5.03906 14.2734 4.89844 13.875C4.75781 13.4766 4.65625 13.0625 4.59375 12.6328C4.53125 12.2031 4.5 11.7422 4.5 11.25C4.5 10.3203 4.67578 9.44531 5.02734 8.625C5.37891 7.80469 5.86328 7.08984 6.48047 6.48047C7.09766 5.87109 7.8125 5.39062 8.625 5.03906C9.4375 4.6875 10.3125 4.50781 11.25 4.5ZM13.5 21.75V21H9V21.75C9 21.9531 9.07422 22.1289 9.22266 22.2773C9.37109 22.4258 9.54688 22.5 9.75 22.5H12.75C12.9531 22.5 13.1289 22.4258 13.2773 22.2773C13.4258 22.1289 13.5 21.9531 13.5 21.75ZM16.5 11.25C16.5 10.5234 16.3633 9.84375 16.0898 9.21094C15.8164 8.57812 15.4414 8.01953 14.9648 7.53516C14.4883 7.05078 13.9336 6.67578 13.3008 6.41016C12.668 6.14453 11.9844 6.00781 11.25 6C10.5234 6 9.84375 6.13672 9.21094 6.41016C8.57812 6.68359 8.01953 7.05859 7.53516 7.53516C7.05078 8.01172 6.67578 8.56641 6.41016 9.19922C6.14453 9.83203 6.00781 10.5156 6 11.25C6 11.9453 6.07031 12.543 6.21094 13.043C6.35156 13.543 6.53516 13.9883 6.76172 14.3789C6.98828 14.7695 7.22656 15.1367 7.47656 15.4805C7.72656 15.8242 7.96484 16.1836 8.19141 16.5586C8.41797 16.9336 8.60547 17.3555 8.75391 17.8242C8.90234 18.293 8.98438 18.8516 9 19.5H13.5C13.5078 18.8516 13.5859 18.2969 13.7344 17.8359C13.8828 17.375 14.0703 16.9531 14.2969 16.5703C14.5234 16.1875 14.7617 15.8281 15.0117 15.4922C15.2617 15.1562 15.5 14.7891 15.7266 14.3906C15.9531 13.9922 16.1367 13.543 16.2773 13.043C16.418 12.543 16.4922 11.9453 16.5 11.25ZM11.25 3C11.0469 3 10.8711 2.92578 10.7227 2.77734C10.5742 2.62891 10.5 2.45312 10.5 2.25V0.75C10.5 0.546875 10.5742 0.371094 10.7227 0.222656C10.8711 0.0742188 11.0469 0 11.25 0C11.4531 0 11.6289 0.0742188 11.7773 0.222656C11.9258 0.371094 12 0.546875 12 0.75V2.25C12 2.45312 11.9258 2.62891 11.7773 2.77734C11.6289 2.92578 11.4531 3 11.25 3ZM2.25 10.875H0.75C0.546875 10.875 0.371094 10.8008 0.222656 10.6523C0.0742188 10.5039 0 10.3281 0 10.125C0 9.92188 0.0742188 9.74609 0.222656 9.59766C0.371094 9.44922 0.546875 9.375 0.75 9.375H2.25C2.45312 9.375 2.62891 9.44922 2.77734 9.59766C2.92578 9.74609 3 9.92188 3 10.125C3 10.3281 2.92578 10.5039 2.77734 10.6523C2.62891 10.8008 2.45312 10.875 2.25 10.875ZM2.87109 13.9336C3.07422 13.9336 3.25 14.0078 3.39844 14.1562C3.54688 14.3047 3.62109 14.4844 3.62109 14.6953C3.62109 14.8516 3.57812 14.9883 3.49219 15.1055C3.40625 15.2227 3.28906 15.3164 3.14062 15.3867C3.05469 15.4258 2.9375 15.4766 2.78906 15.5391C2.64062 15.6016 2.48047 15.668 2.30859 15.7383C2.13672 15.8086 1.98047 15.8672 1.83984 15.9141C1.69922 15.9609 1.57422 15.9883 1.46484 15.9961C1.26172 15.9961 1.08594 15.9219 0.9375 15.7734C0.789062 15.625 0.714844 15.4453 0.714844 15.2344C0.714844 15.0781 0.757812 14.9414 0.84375 14.8242C0.929688 14.707 1.04688 14.6133 1.19531 14.543C1.28125 14.5117 1.39844 14.4609 1.54688 14.3906C1.69531 14.3203 1.85547 14.2539 2.02734 14.1914C2.19922 14.1289 2.35547 14.0703 2.49609 14.0156C2.63672 13.9609 2.76172 13.9336 2.87109 13.9336ZM4.65234 6.375C4.65234 6.57812 4.57812 6.75391 4.42969 6.90234C4.28125 7.05078 4.10547 7.125 3.90234 7.125C3.76172 7.125 3.63281 7.08984 3.51562 7.01953L2.23828 6.23438C2.12891 6.16406 2.04297 6.07422 1.98047 5.96484C1.91797 5.85547 1.88281 5.73047 1.875 5.58984C1.875 5.38672 1.94922 5.21094 2.09766 5.0625C2.24609 4.91406 2.42188 4.83984 2.625 4.83984C2.75 4.83984 2.87891 4.87891 3.01172 4.95703L4.30078 5.73047C4.41016 5.79297 4.49609 5.88281 4.55859 6C4.62109 6.11719 4.65234 6.24219 4.65234 6.375ZM5.625 2.0625C5.625 1.85938 5.69922 1.68359 5.84766 1.53516C5.99609 1.38672 6.17188 1.3125 6.375 1.3125C6.50781 1.3125 6.63281 1.34766 6.75 1.41797C6.86719 1.48828 6.96094 1.58203 7.03125 1.69922L7.75781 3.01172C7.82031 3.12109 7.85156 3.23828 7.85156 3.36328C7.85156 3.57422 7.77734 3.75391 7.62891 3.90234C7.48047 4.05078 7.30469 4.125 7.10156 4.125C6.96875 4.125 6.84375 4.08984 6.72656 4.01953C6.60938 3.94922 6.51562 3.85547 6.44531 3.73828L5.71875 2.42578C5.65625 2.31641 5.625 2.19531 5.625 2.0625ZM21.75 9.375C21.9531 9.375 22.1289 9.44922 22.2773 9.59766C22.4258 9.74609 22.5 9.92188 22.5 10.125C22.5 10.3281 22.4258 10.5039 22.2773 10.6523C22.1289 10.8008 21.9531 10.875 21.75 10.875H20.25C20.0469 10.875 19.8711 10.8008 19.7227 10.6523C19.5742 10.5039 19.5 10.3281 19.5 10.125C19.5 9.92188 19.5742 9.74609 19.7227 9.59766C19.8711 9.44922 20.0469 9.375 20.25 9.375H21.75ZM21.7734 15.2461C21.7734 15.4492 21.6992 15.625 21.5508 15.7734C21.4023 15.9219 21.2266 15.9961 21.0234 15.9961C20.9375 15.9961 20.8203 15.9727 20.6719 15.9258C20.5234 15.8789 20.3633 15.8164 20.1914 15.7383C20.0195 15.6602 19.8633 15.5938 19.7227 15.5391C19.582 15.4844 19.4609 15.4297 19.3594 15.375C19.2188 15.3125 19.1055 15.2188 19.0195 15.0938C18.9336 14.9688 18.8867 14.8281 18.8789 14.6719C18.8789 14.4609 18.9531 14.2852 19.1016 14.1445C19.25 14.0039 19.4297 13.9297 19.6406 13.9219C19.7344 13.9219 19.8555 13.9492 20.0039 14.0039C20.1523 14.0586 20.3086 14.1211 20.4727 14.1914C20.6367 14.2617 20.793 14.332 20.9414 14.4023C21.0898 14.4727 21.2109 14.5234 21.3047 14.5547C21.4453 14.6172 21.5586 14.707 21.6445 14.8242C21.7305 14.9414 21.7734 15.082 21.7734 15.2461ZM18.5977 7.125C18.3945 7.125 18.2188 7.05078 18.0703 6.90234C17.9219 6.75391 17.8477 6.57812 17.8477 6.375C17.8477 6.24219 17.8789 6.11719 17.9414 6C18.0039 5.88281 18.0898 5.79297 18.1992 5.73047L19.4883 4.95703C19.6211 4.87891 19.75 4.83984 19.875 4.83984C20.0781 4.83984 20.2539 4.91406 20.4023 5.0625C20.5508 5.21094 20.625 5.38672 20.625 5.58984C20.625 5.72266 20.5938 5.84375 20.5312 5.95312C20.4688 6.0625 20.3789 6.15625 20.2617 6.23438L18.9844 7.01953C18.8672 7.08984 18.7383 7.125 18.5977 7.125ZM14.6484 3.36328C14.6484 3.23828 14.6797 3.12109 14.7422 3.01172L15.4688 1.69922C15.5312 1.58203 15.6211 1.48828 15.7383 1.41797C15.8555 1.34766 15.9844 1.3125 16.125 1.3125C16.3281 1.3125 16.5039 1.38672 16.6523 1.53516C16.8008 1.68359 16.875 1.85938 16.875 2.0625C16.875 2.19531 16.8438 2.31641 16.7812 2.42578L16.0547 3.73828C15.9922 3.85547 15.9023 3.94922 15.7852 4.01953C15.668 4.08984 15.5391 4.125 15.3984 4.125C15.1953 4.125 15.0195 4.05078 14.8711 3.90234C14.7227 3.75391 14.6484 3.57422 14.6484 3.36328Z" fill="#ED1C24"/>
</svg>
