<svg width="19" height="19" viewBox="0 0 19 19" fill="none" xmlns="http://www.w3.org/2000/svg">
<path d="M9.84961 0.39502C13.4447 0.39502 15.2424 0.394824 16.5371 1.25146C17.1153 1.63402 17.6106 2.12936 17.9932 2.70752C18.8498 4.00225 18.8496 5.79995 18.8496 9.39502C18.8496 12.9901 18.8498 14.7878 17.9932 16.0825C17.6106 16.6607 17.1153 17.156 16.5371 17.5386C15.2424 18.3952 13.4447 18.395 9.84961 18.395C6.25454 18.395 4.45684 18.3952 3.16211 17.5386C2.58395 17.156 2.08861 16.6607 1.70605 16.0825C0.849414 14.7878 0.849609 12.9901 0.849609 9.39502C0.849609 5.79995 0.849414 4.00225 1.70605 2.70752C2.08861 2.12936 2.58395 1.63402 3.16211 1.25146C4.45684 0.394824 6.25454 0.39502 9.84961 0.39502ZM9.84961 4.73584C7.27636 4.73584 5.19055 6.8218 5.19043 9.39502C5.19043 11.9683 7.27629 14.0542 9.84961 14.0542C12.4229 14.0541 14.5088 11.9683 14.5088 9.39502C14.5087 6.82186 12.4228 4.73593 9.84961 4.73584ZM9.84961 6.31201C11.5522 6.3121 12.9325 7.69248 12.9326 9.39502C12.9326 11.0977 11.5522 12.4779 9.84961 12.478C8.14691 12.478 6.7666 11.0977 6.7666 9.39502C6.76672 7.69243 8.14699 6.31201 9.84961 6.31201ZM14.6934 3.40674C14.0888 3.40674 13.5978 3.89694 13.5977 4.50146C13.5977 5.10612 14.0887 5.59619 14.6934 5.59619C15.2978 5.59593 15.7881 5.10596 15.7881 4.50146C15.7879 3.8971 15.2977 3.40699 14.6934 3.40674Z" fill="#ED1C24"/>
</svg>
