<svg width="19" height="18" viewBox="0 0 19 18" fill="none" xmlns="http://www.w3.org/2000/svg">
<path d="M0.84964 2.81507C0.84964 2.23786 1.05235 1.76167 1.45775 1.3865C1.86315 1.01131 2.39019 0.82373 3.03883 0.82373C3.6759 0.82373 4.19133 1.00842 4.58516 1.37784C4.99056 1.7588 5.19327 2.25518 5.19327 2.86702C5.19327 3.42113 4.99636 3.88288 4.60254 4.2523C4.19714 4.63325 3.66431 4.82373 3.00408 4.82373H2.98671C2.34963 4.82373 1.8342 4.63325 1.44037 4.2523C1.04655 3.87135 0.84964 3.39227 0.84964 2.81507ZM1.07551 17.9666V6.39949H4.93265V17.9666H1.07551ZM7.06972 17.9666H10.9269V11.5077C10.9269 11.1037 10.9732 10.792 11.0659 10.5726C11.228 10.1801 11.4742 9.84825 11.8043 9.57697C12.1344 9.30568 12.5485 9.17005 13.0466 9.17005C14.3439 9.17005 14.9925 10.0416 14.9925 11.7848V17.9666H18.8496V11.3345C18.8496 9.62603 18.4442 8.33022 17.6334 7.4471C16.8226 6.56399 15.7512 6.12243 14.4191 6.12243C12.9249 6.12243 11.7608 6.76312 10.9269 8.04451V8.07914H10.9095L10.9269 8.04451V6.39949H7.06972C7.09288 6.76889 7.10447 7.91751 7.10447 9.84537C7.10447 11.7732 7.09288 14.4803 7.06972 17.9666Z" fill="#ED1C24"/>
</svg>
