<svg width="45" height="45" viewBox="0 0 45 45" fill="none" xmlns="http://www.w3.org/2000/svg">
<path fill-rule="evenodd" clip-rule="evenodd" d="M18.75 2.34375C19.5266 2.34375 20.1562 2.97335 20.1562 3.75V7.5H24.8438V3.75C24.8438 2.97335 25.4734 2.34375 26.25 2.34375C27.0266 2.34375 27.6562 2.97335 27.6562 3.75V7.5H30C34.1421 7.5 37.5 10.8579 37.5 15V17.3438H41.25C42.0266 17.3438 42.6562 17.9734 42.6562 18.75C42.6562 19.5266 42.0266 20.1562 41.25 20.1562H37.5V24.8438H41.25C42.0266 24.8438 42.6562 25.4734 42.6562 26.25C42.6562 27.0266 42.0266 27.6562 41.25 27.6562H37.5V30C37.5 34.1421 34.1421 37.5 30 37.5H27.6562V41.25C27.6562 42.0266 27.0266 42.6562 26.25 42.6562C25.4734 42.6562 24.8438 42.0266 24.8438 41.25V37.5H20.1562V41.25C20.1562 42.0266 19.5266 42.6562 18.75 42.6562C17.9734 42.6562 17.3438 42.0266 17.3438 41.25V37.5H15C10.8579 37.5 7.5 34.1421 7.5 30V27.6562H3.75C2.97335 27.6562 2.34375 27.0266 2.34375 26.25C2.34375 25.4734 2.97335 24.8438 3.75 24.8438H7.5V20.1562H3.75C2.97335 20.1562 2.34375 19.5266 2.34375 18.75C2.34375 17.9734 2.97335 17.3438 3.75 17.3438H7.5V15C7.5 10.8579 10.8579 7.5 15 7.5H17.3438V3.75C17.3438 2.97335 17.9734 2.34375 18.75 2.34375ZM20.625 16.875C18.5539 16.875 16.875 18.5539 16.875 20.625V24.375C16.875 26.4461 18.5539 28.125 20.625 28.125H24.375C26.4461 28.125 28.125 26.4461 28.125 24.375V20.625C28.125 18.5539 26.4461 16.875 24.375 16.875H20.625Z" fill="white"/>
</svg>
