<svg width="45" height="45" viewBox="0 0 45 45" fill="none" xmlns="http://www.w3.org/2000/svg">
<path d="M31.3229 10.9125L32.7854 10.0687C33.376 9.73125 34.0932 10.2375 33.9525 10.8844L32.026 19.8703C31.9275 20.3203 31.4635 20.5875 31.0275 20.4469L22.2666 17.6766C22.1222 17.6309 21.9942 17.5443 21.8982 17.4271C21.8022 17.31 21.7423 17.1674 21.7259 17.0169C21.7095 16.8663 21.7373 16.7142 21.8058 16.5792C21.8744 16.4441 21.9807 16.3319 22.1119 16.2563L23.8697 15.2297L22.3735 12.6548L18.4965 18.8016C18.0324 19.5328 17.0761 19.7578 16.3449 19.2938L11.6761 16.3547C10.9449 15.8906 10.7199 14.9344 11.184 14.2031L16.4265 5.89078L16.3885 5.94844C16.4091 5.91375 16.4311 5.87953 16.4546 5.84578L16.5136 5.75156L16.5305 5.7375C16.875 5.26716 17.3255 4.88456 17.8454 4.6207C18.3653 4.35685 18.94 4.21915 19.523 4.21875H25.3027C26.6246 4.21875 27.8621 4.92188 28.523 6.075L31.3229 10.9125ZM14.0963 19.5047L16.4307 28.3922C16.5994 29.0391 15.9104 29.6016 15.3197 29.2781L13.5197 28.3359L12.1374 30.9656H19.3416C20.1994 30.9656 20.9026 31.6687 20.9026 32.5266V38.0531C20.9026 38.9109 20.1994 39.6141 19.3416 39.6141H9.44864C9.51052 39.6234 9.57333 39.6281 9.63708 39.6281C8.35739 39.6281 7.16208 38.9813 6.48708 37.8984L3.39333 33.0047C2.67614 31.8797 2.61989 30.4734 3.23864 29.2922L5.82614 24.3422L4.33552 23.5547C4.20285 23.4821 4.09376 23.373 4.02115 23.2403C3.94855 23.1076 3.91546 22.9569 3.92582 22.806C3.93617 22.6551 3.98953 22.5103 4.07958 22.3888C4.16964 22.2673 4.29261 22.1741 4.43396 22.1203L13.0683 18.9703C13.5043 18.8156 13.9824 19.0547 14.0949 19.5047M32.94 30.8405L29.5932 24.3998C29.1854 23.6264 29.4947 22.6842 30.2541 22.2905L35.1619 19.7452C35.9354 19.3373 36.8775 19.6467 37.2713 20.4061L41.8697 29.2795L41.874 29.3161C42.3394 30.3989 42.2719 31.6364 41.6729 32.6531L38.7479 37.6453C38.4165 38.208 37.9435 38.6741 37.3761 38.9973C36.8087 39.3205 36.1665 39.4895 35.5135 39.4875L29.9166 39.4594V41.1469C29.9166 41.8359 29.115 42.1875 28.6088 41.7234L21.8307 35.5219C21.7509 35.4485 21.6872 35.3594 21.6436 35.2601C21.6001 35.1609 21.5776 35.0537 21.5776 34.9453C21.5776 34.8369 21.6001 34.7297 21.6436 34.6305C21.6872 34.5312 21.7509 34.4421 21.8307 34.3688L28.651 28.2094C29.1572 27.7453 29.9588 28.1109 29.9588 28.7859L29.9447 30.825L32.94 30.8405Z" fill="white"/>
</svg>
