<svg width="19" height="15" viewBox="0 0 19 15" fill="none" xmlns="http://www.w3.org/2000/svg">
<path d="M12.8766 0.0965034V0.0932617H13.7206L14.029 0.154854C14.2346 0.19484 14.4213 0.247242 14.589 0.312075C14.7567 0.376909 14.919 0.452554 15.0759 0.538993C15.2328 0.625432 15.3751 0.713509 15.5028 0.80319C15.6294 0.891801 15.743 0.98581 15.8437 1.08522C15.9432 1.18571 16.0985 1.21164 16.3095 1.16302C16.5205 1.11439 16.7477 1.04685 16.9912 0.960412C17.2346 0.873972 17.4754 0.776722 17.7134 0.66866C17.9515 0.560599 18.0965 0.491989 18.1484 0.462813C18.1993 0.432569 18.2263 0.41636 18.2296 0.414188L18.2328 0.409326L18.2491 0.401221L18.2653 0.393117L18.2815 0.385013L18.2977 0.376909L18.301 0.372046L18.3059 0.368805L18.3107 0.365563L18.314 0.3607L18.3302 0.355838L18.3464 0.352596L18.3432 0.376909L18.3383 0.401221L18.3302 0.425534L18.3221 0.449847L18.314 0.466055L18.3059 0.482264L18.2977 0.506576C18.2923 0.522785 18.2869 0.54439 18.2815 0.57141C18.2761 0.598429 18.2247 0.706474 18.1273 0.895578C18.0299 1.08468 17.9082 1.27648 17.7621 1.47098C17.6161 1.66548 17.4851 1.81242 17.3694 1.91185C17.2525 2.01234 17.1751 2.08257 17.1372 2.12255C17.0994 2.16361 17.0534 2.20142 16.9993 2.23601L16.9181 2.2895L16.9019 2.29761L16.8857 2.30571L16.8824 2.31057L16.8775 2.31381L16.8727 2.31706L16.8694 2.32192L16.8532 2.33002L16.837 2.33813L16.8337 2.34299L16.8289 2.34623L16.824 2.34947L16.8207 2.35433L16.8175 2.3592L16.8126 2.36244L16.8078 2.36568L16.8045 2.37054H16.8857L17.3401 2.27329C17.6431 2.20846 17.9326 2.13012 18.2085 2.03827L18.6467 1.8924L18.6954 1.87619L18.7197 1.86808L18.736 1.85998L18.7522 1.85187L18.7684 1.84377L18.7847 1.83567L18.8171 1.8308L18.8496 1.82756V1.85998L18.8415 1.86322L18.8334 1.86808L18.8301 1.87294L18.8252 1.87619L18.8204 1.87943L18.8171 1.88429L18.8139 1.88915L18.809 1.8924L18.8041 1.89564L18.8009 1.9005L18.7977 1.90536L18.7928 1.9086L18.7847 1.92481L18.7766 1.94102L18.7717 1.94426C18.7695 1.9475 18.7008 2.03934 18.5656 2.2198C18.4303 2.40134 18.3573 2.49318 18.3464 2.49535C18.3356 2.49859 18.3205 2.5148 18.301 2.54397C18.2826 2.57422 18.1679 2.69471 17.9569 2.90542C17.7459 3.11613 17.5392 3.3036 17.3369 3.46785C17.1335 3.63318 17.0307 3.83632 17.0285 4.07729C17.0253 4.31717 17.0128 4.5884 16.9912 4.89095C16.9695 5.19351 16.9289 5.52037 16.8694 5.87156C16.8099 6.22275 16.7179 6.61985 16.5935 7.06288C16.4691 7.5059 16.3176 7.93813 16.139 8.35955C15.9605 8.78097 15.7739 9.15916 15.5791 9.49414C15.3843 9.82912 15.2058 10.1128 15.0435 10.3451C14.8812 10.5774 14.7162 10.7962 14.5484 11.0015C14.3807 11.2068 14.1686 11.4381 13.9122 11.6952C13.6547 11.9513 13.514 12.0918 13.4902 12.1167C13.4653 12.1404 13.3593 12.229 13.172 12.3825C12.9859 12.537 12.7858 12.6915 12.5715 12.846C12.3583 12.9995 12.1625 13.1275 11.9839 13.2302C11.8054 13.3328 11.5901 13.4501 11.338 13.5819C11.0869 13.7148 10.8153 13.838 10.5232 13.9515C10.231 14.0649 9.92263 14.1703 9.59802 14.2675C9.2734 14.3648 8.95961 14.4404 8.65663 14.4944C8.35366 14.5485 8.0101 14.5944 7.62597 14.6322L7.04977 14.6889V14.697H5.99477V14.6889L5.85681 14.6808C5.76484 14.6754 5.68909 14.67 5.62958 14.6646C5.57007 14.6592 5.34554 14.6295 4.956 14.5755C4.56646 14.5215 4.26078 14.4674 4.03895 14.4134C3.81714 14.3594 3.48711 14.2567 3.04887 14.1054C2.61064 13.9542 2.23571 13.8012 1.92408 13.6467C1.61353 13.4933 1.41876 13.396 1.33977 13.355C1.26186 13.315 1.17421 13.2653 1.07683 13.2059L0.930748 13.1167L0.927518 13.1119L0.922633 13.1086L0.917764 13.1054L0.914517 13.1005L0.898287 13.0924L0.882056 13.0843L0.878826 13.0794L0.87394 13.0762L0.869071 13.073L0.865825 13.0681L0.862595 13.0632L0.85771 13.06H0.849594V13.0276L0.865825 13.0308L0.882056 13.0357L0.955095 13.0438C1.00379 13.0492 1.13634 13.0573 1.35275 13.0681C1.56917 13.0789 1.7991 13.0789 2.04256 13.0681C2.28602 13.0573 2.53491 13.033 2.78918 12.9952C3.04347 12.9573 3.34374 12.8925 3.68999 12.8007C4.03626 12.7088 4.35438 12.5997 4.64438 12.4732C4.93329 12.3457 5.13887 12.2507 5.26115 12.188C5.38233 12.1264 5.56736 12.0118 5.81623 11.8444L6.18954 11.5931L6.19279 11.5883L6.19766 11.585L6.20254 11.5818L6.20577 11.5769L6.20902 11.5721L6.21389 11.5688L6.21877 11.5656L6.222 11.5607L6.23823 11.5558L6.25446 11.5526L6.25771 11.5364L6.26258 11.5202L6.26746 11.5169L6.27069 11.5121L6.14085 11.504C6.05429 11.4986 5.97042 11.4932 5.88927 11.4878C5.80812 11.4824 5.68098 11.4581 5.50784 11.4148C5.33473 11.3716 5.14807 11.3068 4.94788 11.2203C4.74771 11.1339 4.55294 11.0312 4.36357 10.9124C4.17422 10.7935 4.03733 10.6946 3.95293 10.6158C3.86962 10.5379 3.76141 10.4277 3.62831 10.2851C3.49631 10.1414 3.3816 9.99389 3.28422 9.84262C3.18683 9.69135 3.09378 9.51681 3.00507 9.31909L2.87033 9.02409L2.86222 8.99978L2.8541 8.97547L2.84923 8.95926L2.84599 8.94305L2.87033 8.94629L2.89468 8.95116L3.07322 8.97547C3.19226 8.99168 3.37891 8.99708 3.63318 8.99168C3.88747 8.98628 4.0633 8.97547 4.16069 8.95926C4.25807 8.94305 4.31759 8.93224 4.33922 8.92684L4.37169 8.91874L4.41226 8.91064L4.45284 8.90253L4.45609 8.89767L4.46096 8.89443L4.46584 8.89119L4.46907 8.88632L4.43661 8.87822L4.40415 8.87012L4.37169 8.86201L4.33922 8.85391L4.30676 8.8458C4.28513 8.8404 4.24726 8.82959 4.19315 8.81339C4.13905 8.79718 3.99297 8.73774 3.75491 8.63509C3.51687 8.53244 3.32751 8.43249 3.18683 8.33524C3.04581 8.23771 2.91135 8.13104 2.78431 8.01593C2.65771 7.89923 2.51868 7.74903 2.36718 7.56534C2.2157 7.38165 2.08044 7.16823 1.96141 6.92511C1.84239 6.68198 1.75312 6.44966 1.6936 6.22814C1.63432 6.00793 1.59521 5.78278 1.57675 5.5555L1.54752 5.21512L1.56375 5.21836L1.57998 5.22322L1.59621 5.23133L1.61244 5.23943L1.62867 5.24754L1.64491 5.25564L1.89648 5.3691C2.06421 5.44474 2.2725 5.50958 2.52137 5.5636C2.77025 5.61762 2.91903 5.64735 2.96772 5.65275L3.04076 5.66085H3.18683L3.1836 5.65599L3.17872 5.65275L3.17385 5.6495L3.1706 5.64464L3.16737 5.63978L3.16249 5.63654L3.15762 5.6333L3.15437 5.62843L3.13814 5.62033L3.12191 5.61222L3.11868 5.60736L3.1138 5.60412L3.10893 5.60088L3.10568 5.59602L3.08945 5.58791L3.07322 5.57981L3.06999 5.57495C3.06674 5.57277 3.02021 5.5382 2.93039 5.47121C2.84165 5.40314 2.7486 5.31508 2.65122 5.20701C2.55383 5.09895 2.45645 4.98549 2.35906 4.86664C2.2615 4.74751 2.1746 4.62005 2.09937 4.48574C2.02364 4.35068 1.94355 4.17885 1.85915 3.97031C1.77584 3.76285 1.71254 3.55376 1.66925 3.34305C1.62598 3.13234 1.60163 2.92434 1.59621 2.71902C1.59081 2.51371 1.59621 2.33813 1.61244 2.19225C1.62867 2.04637 1.66114 1.88158 1.70983 1.69789C1.75852 1.5142 1.82887 1.3197 1.92083 1.11439L2.05879 0.806432L2.06691 0.782119L2.07502 0.757806L2.07991 0.754565L2.08314 0.749702L2.08638 0.74484L2.09125 0.741598L2.09614 0.74484L2.09937 0.749702L2.10261 0.754565L2.10748 0.757806L2.11237 0.761048L2.1156 0.765911L2.11885 0.770773L2.12371 0.774015L2.13183 0.790223L2.13995 0.806432L2.14483 0.809673L2.14806 0.814536L2.36718 1.05766C2.51326 1.21975 2.68639 1.40075 2.88656 1.60064C3.08676 1.80054 3.19766 1.90428 3.2193 1.91185C3.24095 1.92048 3.26799 1.94533 3.30045 1.9864C3.33291 2.02639 3.44112 2.12202 3.62507 2.27329C3.80903 2.42457 4.04978 2.60017 4.34734 2.80007C4.64492 2.99996 4.97494 3.19717 5.33742 3.39167C5.69992 3.58617 6.08946 3.76176 6.50604 3.91845C6.92264 4.07513 7.21479 4.17778 7.38251 4.22641C7.55024 4.27503 7.83697 4.33716 8.24274 4.4128C8.64851 4.48845 8.9542 4.53707 9.15978 4.55868C9.36538 4.58028 9.50605 4.59272 9.58179 4.59596L9.6954 4.5992L9.69217 4.57489L9.68729 4.55057L9.65482 4.34797C9.63319 4.2129 9.62236 4.0238 9.62236 3.78067C9.62236 3.53755 9.6413 3.31334 9.67917 3.10803C9.71705 2.90271 9.77386 2.69471 9.84959 2.484C9.92534 2.27329 9.99947 2.10417 10.072 1.97668C10.1455 1.85025 10.2418 1.706 10.3609 1.54391C10.4799 1.38183 10.6341 1.21435 10.8234 1.04145C11.0128 0.868559 11.2292 0.714579 11.4727 0.579514C11.7161 0.444449 11.9407 0.341785 12.1463 0.271554C12.3519 0.201323 12.525 0.155389 12.6656 0.133783C12.8063 0.112177 12.8766 0.0997451 12.8766 0.0965034Z" fill="#ED1C24"/>
</svg>
